<svg width="356" height="157" viewBox="0 0 356 157" fill="none" xmlns="http://www.w3.org/2000/svg">
<path d="M289.634 156.1C286.545 155.959 284.017 154.344 282.05 151.255C281.067 149.289 280.646 147.041 280.787 144.514C280.927 141.705 284.789 119.936 292.373 79.2086L291.741 76.6807C287.106 76.9615 278.539 79.6299 266.04 84.6858C262.81 86.2306 259.931 88.1266 257.403 90.3736C255.016 92.1994 252.347 93.042 249.398 92.9016C245.606 92.6207 242.516 90.795 240.129 87.4244C238.303 84.4751 237.461 82.3685 237.601 81.1045C237.601 79.7001 238.514 78.6468 240.34 77.9446C251.434 71.6248 260.282 63.0579 266.883 52.244C266.883 52.1035 266.953 52.0333 267.094 52.0333C270.885 46.5561 276.854 37.0061 285 23.3834C287.106 19.7319 288.3 15.308 288.581 10.1117L289.424 5.26653C290.126 1.89595 292.162 0.140441 295.533 0C297.499 0 299.254 1.12353 300.799 3.37058C302.344 5.61763 303.327 8.21579 303.749 11.165C304.31 14.1143 305.855 16.6422 308.383 18.7488C312.737 22.5407 314.843 26.0518 314.703 29.2819C314.703 30.4054 314.282 31.3885 313.439 32.2312C310.63 35.6017 309.156 39.5341 309.015 44.0282C308.594 47.2583 307.821 51.0502 306.698 55.4039C306.698 56.387 306.698 57.2998 306.698 58.1425C306.838 58.9851 306.909 59.6873 306.909 60.2491C315.616 58.8447 323.902 56.5274 331.767 53.2973C340.333 49.7863 345.108 48.101 346.091 48.2414C348.198 48.3818 350.656 49.9969 353.465 53.0866C354.729 54.491 355.29 55.8954 355.15 57.2998C355.009 59.4064 353.535 60.8108 350.726 61.5131C340.895 63.4792 326.851 66.7094 308.594 71.2035C305.645 71.9057 303.749 73.8016 302.906 76.8913C302.204 79.1384 301.221 84.9667 299.957 94.3762C298.271 107.718 296.024 120.077 293.216 131.453C292.794 132.857 292.584 134.191 292.584 135.455C292.303 138.826 293.216 141.986 295.322 144.935C296.446 146.761 296.937 148.586 296.797 150.412C296.656 151.816 295.884 153.151 294.479 154.415C293.075 155.679 291.46 156.24 289.634 156.1ZM273.413 69.9395C281.278 67.8329 288.3 65.3752 294.479 62.5664C296.867 52.3142 298.271 45.573 298.693 42.3429L298.482 40.4469C298.903 33.4249 297.991 29.8437 295.743 29.7032C294.901 29.7032 293.496 31.1076 291.53 33.9164C289.564 36.5848 288.16 38.9021 287.317 40.8683C282.823 50.4182 277.346 59.1958 270.885 67.2009C270.745 67.3413 270.605 67.9031 270.464 68.8862C270.464 69.5884 270.956 69.9395 271.939 69.9395H273.413Z" fill="#B8B8B8"/>
<path d="M52.0484 156.1C48.9587 155.959 46.4307 154.344 44.4646 151.255C43.4815 149.289 43.0601 147.041 43.2006 144.514C43.341 141.705 47.2031 119.936 54.7869 79.2086L54.155 76.6807C49.5204 76.9615 40.9535 79.6299 28.4543 84.6858C25.2242 86.2306 22.3451 88.1266 19.8172 90.3736C17.4297 92.1994 14.7613 93.042 11.8121 92.9016C8.02017 92.6207 4.93047 90.795 2.54298 87.4244C0.717251 84.4751 -0.125394 82.3685 0.0150472 81.1045C0.0150472 79.7001 0.927912 78.6468 2.75364 77.9446C13.8485 71.6248 22.6962 63.0579 29.2969 52.244C29.2969 52.1035 29.3672 52.0333 29.5076 52.0333C33.2995 46.5561 39.2682 37.0061 47.4138 23.3834C49.5204 19.7319 50.7142 15.308 50.995 10.1117L51.8377 5.26653C52.5399 1.89595 54.5763 0.140441 57.9469 0C59.913 0 61.6685 1.12353 63.2134 3.37058C64.7582 5.61763 65.7413 8.21579 66.1626 11.165C66.7244 14.1143 68.2693 16.6422 70.7972 18.7488C75.1509 22.5407 77.2575 26.0518 77.117 29.2819C77.117 30.4054 76.6957 31.3885 75.8531 32.2312C73.0442 35.6017 71.5696 39.5341 71.4292 44.0282C71.0079 47.2583 70.2354 51.0502 69.1119 55.4039C69.1119 56.387 69.1119 57.2998 69.1119 58.1425C69.2523 58.9851 69.3226 59.6873 69.3226 60.2491C78.0299 58.8447 86.3159 56.5274 94.1806 53.2973C102.747 49.7863 107.522 48.101 108.506 48.2414C110.612 48.3818 113.07 49.9969 115.879 53.0866C117.143 54.491 117.704 55.8954 117.564 57.2998C117.424 59.4064 115.949 60.8108 113.14 61.5131C103.309 63.4792 89.2652 66.7094 71.0079 71.2035C68.0586 71.9057 66.1626 73.8016 65.32 76.8913C64.6178 79.1384 63.6347 84.9667 62.3707 94.3762C60.6855 107.718 58.4384 120.077 55.6296 131.453C55.2083 132.857 54.9976 134.191 54.9976 135.455C54.7167 138.826 55.6296 141.986 57.7362 144.935C58.8597 146.761 59.3513 148.586 59.2108 150.412C59.0704 151.816 58.298 153.151 56.8936 154.415C55.4891 155.679 53.8741 156.24 52.0484 156.1ZM35.8274 69.9395C43.6921 67.8329 50.7142 65.3752 56.8936 62.5664C59.281 52.3142 60.6855 45.573 61.1068 42.3429L60.8961 40.4469C61.3174 33.4249 60.4046 29.8437 58.1575 29.7032C57.3149 29.7032 55.9105 31.1076 53.9443 33.9164C51.9781 36.5848 50.5737 38.9021 49.7311 40.8683C45.237 50.4182 39.7598 59.1958 33.2995 67.2009C33.1591 67.3413 33.0186 67.9031 32.8782 68.8862C32.8782 69.5884 33.3697 69.9395 34.3528 69.9395H35.8274Z" fill="#B8B8B8"/>
<path d="M190.505 76.8475C190.461 77.4956 190.081 78.0788 189.39 78.6621C189.123 78.8781 188.833 79.0942 188.565 79.2886C188.32 79.483 188.097 79.6774 187.852 79.8503C186.915 80.5632 185.934 81.0168 184.908 81.1896C180.962 81.8593 178.42 81.9457 177.416 81.4489C176.257 80.8872 175.945 78.7485 175.811 77.9492V77.69C175.655 77.0203 175.254 75.6161 175.231 75.5945C175.231 75.5513 175.209 75.5297 175.209 75.5081C175.254 75.3785 175.521 75.2057 175.655 75.0977L175.811 74.9465C176.971 73.9311 178.398 72.8726 180.315 72.6134C180.984 72.5269 181.608 72.2893 182.21 72.0733C182.5 71.9437 182.79 71.8573 183.102 71.7709C183.593 71.598 184.017 71.598 184.351 71.7276C186.179 72.3973 188.208 73.3046 189.769 74.9897C190.327 75.6161 190.594 76.2426 190.55 76.8691L190.505 76.8475Z" fill="#DDDDDD"/>
<path d="M183.836 88.0782C183.167 88.5967 182.431 89.2664 181.807 90.1089C181.317 90.7786 180.581 91.0162 179.845 91.189C179.8 91.189 179.778 91.2106 179.756 91.2106L177.392 91.8803C177.236 91.9451 176.991 92.0099 176.656 92.0963H176.567C174.583 92.6364 172.933 92.4204 171.327 91.4267C169.499 90.3033 168.897 88.6399 169.499 86.6093C170.168 84.557 171.416 83.304 173.334 82.8072C173.557 82.7424 173.758 82.6127 173.891 82.5263C173.958 82.4615 174.114 82.3535 174.159 82.3535C174.337 82.4399 174.471 82.656 174.627 82.8504C174.716 82.98 174.806 83.0664 174.873 83.1528C175.831 84.2978 177.08 84.8594 178.574 84.8594H178.641C180.001 84.8594 181.317 84.773 182.32 84.665C183.524 84.6002 184.104 84.9026 184.527 85.8748C184.84 86.6309 184.594 87.4086 183.814 88.0566L183.836 88.0782Z" fill="#B8B8B8"/>
<path d="M167.069 92.0105C167.069 92.0105 167.025 92.0537 167.002 92.0753C166.445 92.853 164.661 93.4795 163.345 93.7603C163.323 93.7603 163.279 93.7819 163.212 93.7819C162.743 93.9763 162.186 94.0628 161.361 94.0628C158.73 94.4516 158.083 94.106 158.061 94.106C158.016 94.0412 157.927 93.9763 157.838 93.9547C157.704 93.9331 157.526 93.8683 157.191 93.7387C155.742 93.1338 154.315 92.529 152.888 91.9241C152.264 91.6865 152.107 91.4272 152.107 91.3624C152.241 89.2453 154.404 86.5234 156.656 86.4802L158.15 86.437C159.064 86.3938 159.934 86.3722 160.826 86.3506C161.361 86.329 161.963 86.3722 162.454 86.6098C162.833 86.7826 163.145 86.8258 163.435 86.6962C163.769 86.5666 164.014 86.3074 164.215 85.8537L164.282 85.6593C164.349 85.4649 164.438 85.2488 164.527 85.0544C164.549 84.9896 164.572 84.9896 164.594 85.0112C164.572 85.5081 164.683 85.8969 164.973 86.1562C165.218 86.437 165.62 86.5666 166.133 86.545C165.754 88.1004 166.289 89.5046 166.757 90.7575C166.846 91.0168 166.935 91.3192 166.98 91.6216L167.025 91.8809L167.047 91.9673L167.069 92.0105Z" fill="#DDDDDD"/>
<path d="M168.138 79.63C166.421 81.4446 164.392 82.6327 162.14 83.1728C161.717 83.3024 161.271 83.3024 160.78 83.324C160.557 83.324 160.312 83.324 160.111 83.3456C159.063 83.3456 157.658 83.2592 156.343 82.5463C154.113 81.2934 153.69 77.9666 154.849 75.9575C155.473 74.8558 156.254 74.1429 157.279 73.7756C158.417 73.3652 159.643 73.1059 160.936 73.0195H161.137C161.917 73.0195 162.586 73.3436 162.988 73.9917C163.79 75.3094 164.972 76.0223 166.689 76.2383C167.626 76.3247 168.339 76.8432 168.629 77.5777C168.896 78.2906 168.696 79.0467 168.116 79.6732L168.138 79.63Z" fill="#B8B8B8"/>
<path d="M178.084 69.8881C176.813 71.3786 175.14 72.3076 173.357 73.3013L173.201 73.3877C171.729 73.7117 170.547 73.6253 170.503 73.6253C168.875 73.6685 167.582 73.3661 166.422 72.718C165.441 72.1996 164.683 70.8386 164.549 69.4128C164.482 68.6351 164.571 67.1445 165.932 66.086C166.623 65.5243 167.269 65.1571 167.894 64.8978L168.317 64.7034C168.317 64.7034 169.232 64.2065 170.726 64.2065C170.815 64.2065 170.926 64.2281 171.015 64.2281C171.707 64.3146 172.398 64.3578 173.044 64.3794C173.557 64.401 174.092 64.401 174.628 64.4442C174.94 64.4874 175.185 64.509 175.319 64.5306C175.341 64.5522 175.386 64.5738 175.453 64.5738C175.653 64.617 176.322 64.833 177.125 65.5459C178.061 66.3884 178.173 66.6909 178.307 67.0149C178.307 67.0581 178.329 67.1013 178.351 67.1445C179.065 68.0086 178.998 68.7863 178.084 69.8881Z" fill="#B8B8B8"/>
<path d="M237.373 77.6016C237.127 76.7591 236.615 76.219 235.789 75.9382C235.009 75.6789 234.251 75.4413 233.515 75.0957C230.929 73.9075 228.097 72.741 225.064 72.2009C223.058 71.8336 220.984 71.5096 218.999 71.2072C217.06 70.9047 215.03 70.6023 213.068 70.2566C210.058 69.7166 206.847 69.5006 203.569 69.6086C205.353 68.4852 206.446 66.8218 207.271 65.3528C207.538 64.8992 207.784 64.4239 208.029 63.9703C208.297 63.4734 208.564 62.9765 208.854 62.5013C210.036 60.449 209.88 58.656 208.319 56.9062C207.695 56.1933 206.959 55.9556 206.045 56.1501C203.882 56.5821 201.696 57.2734 198.909 58.3319C198.017 58.6776 197.103 58.98 196.211 59.2393C194.472 59.8009 192.666 60.3626 190.994 61.3995C191.016 61.3563 191.016 61.3131 191.038 61.2915L191.105 61.1403C191.596 59.8873 192.086 58.656 192.577 57.403C193.536 55.0267 194.517 52.564 195.409 50.1013C196.1 48.2003 196.746 46.256 197.371 44.3766C198.151 42.0651 198.932 39.6672 199.801 37.3557C200.827 34.6338 200.582 32.1711 199.065 29.8596C198.686 29.2979 198.129 28.4338 197.014 28.3258C194.65 28.1313 192.777 28.8226 191.506 30.4212L191.15 30.8533C189.901 32.4087 188.608 34.0073 187.225 35.4979C185.843 36.9885 184.327 38.4358 182.877 39.84C181.45 41.1794 180.001 42.5836 178.641 44.0309C178.596 44.0741 178.552 44.1174 178.507 44.1606C178.485 44.1606 178.485 44.1822 178.462 44.1822C178.15 43.2316 177.816 42.3027 177.481 41.3738C177.191 40.5745 176.902 39.7752 176.634 38.9759C176.077 37.3989 175.229 35.9515 174.114 34.6986C172.777 33.208 171.238 32.992 169.521 34.0289C167.001 35.5627 165.151 37.9174 163.88 41.2442C162.676 44.355 162.676 47.5954 162.743 50.663C162.765 51.0734 162.765 51.4623 162.765 51.8727C162.653 51.6351 162.564 51.3975 162.453 51.1598C161.873 49.7773 161.249 48.3299 160.29 47.0769C159.688 46.3208 159.086 45.5863 158.461 44.8302C157.614 43.7933 156.745 42.7348 155.92 41.6546C153.4 38.2198 150.367 34.9146 146.109 30.9181C144.057 29.0171 141.827 27.0728 138.862 24.6101C138.527 24.3509 138.215 24.07 137.903 23.8108C136.989 23.0331 136.052 22.2338 135.049 21.5425C134.67 21.3049 133.577 20.5704 132.552 21.3481C131.013 22.5362 130.233 23.854 130.143 25.3662C130.054 26.9432 130.255 28.5418 130.456 29.9028C130.746 31.7822 131.258 33.5752 131.927 35.7139C132.485 37.4853 133.109 39.3648 134.046 41.1362C134.804 42.4972 135.606 43.9877 136.142 45.5863C136.654 47.1417 137.39 48.7619 138.438 50.7062C139.709 53.0609 141.181 55.3292 142.608 57.5326C143.232 58.5048 143.856 59.4553 144.481 60.449C144.949 61.1619 145.417 61.9612 145.863 62.8469C145.707 62.7605 145.551 62.6741 145.373 62.6093C141.471 60.9027 137.858 59.8225 134.335 59.3041C134.112 59.2609 133.867 59.2393 133.622 59.2177L133.154 59.1528C129.408 58.5912 125.996 58.7208 122.718 59.4985C122.183 59.6281 121.715 59.8873 121.291 60.2546C120.11 61.2915 119.909 63.6678 120.89 65.2232C121.938 66.9082 123.477 68.1612 124.948 69.3493L125.193 69.5438C125.461 69.7814 125.751 70.019 126.018 70.2566C127.044 71.1208 128.114 71.9849 129.274 72.7626C128.36 72.5897 127.468 72.5033 126.554 72.5033C123.164 72.5033 120.377 73.9939 118.259 76.9535C117.701 77.7312 117.478 78.5737 117.635 79.3514C117.791 80.1723 118.348 80.9068 119.24 81.4901C119.731 81.8141 120.288 82.0733 120.845 82.3326C122.161 82.9374 123.499 83.4991 124.792 83.9528C126.041 84.4064 127.111 85.1409 128.226 85.9186C128.56 86.1562 128.917 86.3939 129.252 86.6099C130.701 87.5604 132.195 88.0789 133.8 88.1869C134.023 88.1869 134.246 88.2085 134.469 88.2301C134.871 88.2517 135.272 88.2949 135.651 88.2949C135.562 88.3597 135.495 88.4245 135.406 88.4893C135.094 88.6838 134.781 88.8998 134.492 89.1158C131.905 91.0817 129.385 93.4364 126.331 96.7848C123.521 99.874 121.381 103.309 119.998 106.981C118.46 111.086 118.192 114.78 119.195 118.236C119.998 121.001 120.556 122.341 124.591 122.578C126.977 122.708 128.427 121.93 129.318 120.051C129.831 118.949 130.679 117.977 131.883 117.07C133.064 116.206 134.179 115.104 135.205 113.808C137.323 111.086 140.222 107.586 143.723 104.627C143.879 104.497 144.057 104.367 144.236 104.259C144.302 104.216 144.392 104.151 144.459 104.108L144.325 104.583C144.079 105.383 143.834 106.204 143.634 107.024C142.809 110.33 142.273 113.829 142.073 117.459C141.827 121.866 141.894 125.516 142.273 128.973C142.452 130.463 142.831 132.386 144.146 134.028L144.236 134.136C144.548 134.525 144.949 135 145.618 135H145.707C147.045 134.892 148.762 134.611 150.055 133.207C150.39 132.84 150.724 132.472 151.036 132.105C151.371 131.738 151.683 131.371 152.017 131.025L152.731 130.247C154.269 128.562 155.853 126.813 157.101 124.847C157.168 124.739 157.213 124.696 157.213 124.674C157.235 124.696 157.28 124.739 157.324 124.825C157.48 125.084 157.681 125.3 157.882 125.516L157.993 125.646C158.305 125.97 158.595 126.121 158.93 126.143C159.22 126.164 159.532 126.013 159.822 125.754C160.156 125.452 160.491 125.171 160.825 124.89C162.141 123.745 163.501 122.578 164.348 120.915C164.482 120.677 164.66 120.44 164.905 120.202C164.972 120.116 166.444 118.193 167.024 117.113L167.068 117.048C167.068 117.048 167.113 116.94 167.135 116.919C167.983 115.125 168.473 113.484 168.651 111.928C168.674 111.712 168.741 111.539 168.919 111.323C169.075 111.151 169.298 110.891 169.476 110.848C169.744 111.41 171.595 115.125 172.799 116.594C172.866 116.681 172.933 116.767 172.999 116.854L173.156 117.027C173.936 118.02 174.739 119.036 175.608 119.986C178.15 122.73 180.915 125.624 184.237 127.979C187.158 130.053 190.057 131.371 193.09 131.976C195.029 132.386 196.813 130.939 197.192 129.405C197.482 128.195 197.259 127.072 196.969 125.927C196.702 124.89 196.457 123.853 196.211 122.794C195.81 121.153 195.409 119.446 194.963 117.783C194.026 114.369 192.8 110.416 190.592 106.765L190.793 106.83C191.105 106.96 191.417 107.068 191.752 107.197L192.532 107.478C194.138 108.083 195.788 108.688 197.482 109.12C200.648 109.898 203.77 109.833 207.249 109.66C209.367 109.574 211.218 108.839 212.756 107.478C213.291 107.024 213.425 106.506 213.157 105.858C212.957 105.361 212.622 104.994 212.266 104.648L212.087 104.432C211.53 103.849 210.995 103.266 210.437 102.682C209.322 101.516 208.163 100.328 207.159 99.0531C206.87 98.6642 206.557 98.297 206.267 97.9081C205.041 96.3311 203.77 94.7109 202.299 93.2635C201.897 92.8747 201.563 92.421 201.206 91.9458L200.938 91.6001C200.938 91.6001 200.916 91.5569 200.894 91.5569H200.938C203.012 91.773 205.086 91.6865 207.249 91.2761C210.593 90.6712 213.916 90.1744 217.149 89.7207C217.974 89.5911 218.776 89.4831 219.601 89.3751C221.318 89.1374 223.102 88.8998 224.841 88.5542C225.644 88.4029 226.38 88.1005 227.116 87.7765C228.587 87.1068 229.836 86.6099 231.085 86.2427C232.556 85.7674 234.429 85.0329 235.767 83.4343C237.395 81.5117 237.93 79.6106 237.373 77.6016ZM196.724 61.7236L197.192 61.5724C197.973 61.2915 198.731 61.0323 199.489 60.7731C201.362 60.1466 203.324 59.4769 205.197 58.6992C205.576 58.5264 205.933 58.5264 206.201 58.6992C206.535 58.9152 206.736 59.4121 206.736 60.017C206.736 60.5354 206.334 61.1835 206.067 61.6156C204.863 63.6246 203.436 65.9577 201.808 68.0964C201.072 69.1117 200.046 69.7814 198.753 70.1054C198.307 70.235 197.861 70.3431 197.415 70.4511C196.033 70.7751 194.628 71.0992 193.313 71.7472C191.127 72.849 189.544 73.9723 188.318 75.3117L188.206 75.4413L188.006 75.6357C187.404 76.2406 187.404 76.2622 186.802 75.7437C185.152 74.4044 183.725 73.6267 182.231 73.2162C182.253 73.1946 182.275 73.1946 182.298 73.173C182.766 72.8274 183.212 72.4817 183.68 72.1361L184.572 71.488C185.397 70.8615 186.11 70.1054 186.779 69.3709C187.203 68.9173 187.649 68.4636 188.095 68.0316C188.363 67.7939 188.652 67.5779 188.942 67.3619C189.544 66.9082 190.146 66.4546 190.525 65.8065C191.886 63.4086 194.249 62.5877 196.724 61.7236ZM164.883 79.0274C165.73 79.1138 166.377 79.5674 166.645 80.2371C166.89 80.8852 166.712 81.5765 166.176 82.1381C164.616 83.7799 162.787 84.8601 160.736 85.3569C160.357 85.465 159.955 85.465 159.509 85.4866C159.309 85.4866 159.086 85.4866 158.907 85.5082C157.949 85.5082 156.678 85.4218 155.496 84.7737C153.467 83.6287 153.088 80.626 154.136 78.7897C154.693 77.796 155.407 77.1479 156.343 76.8023C157.369 76.435 158.484 76.1974 159.665 76.111H159.844C160.557 76.111 161.159 76.4134 161.516 76.9967C162.252 78.1848 163.322 78.8329 164.883 79.0274ZM164.192 69.8462C164.816 69.3277 165.396 69.0037 165.976 68.7661L166.355 68.5932C166.355 68.5932 167.18 68.1396 168.54 68.1396C168.629 68.1396 168.718 68.1612 168.808 68.1612C169.432 68.2476 170.056 68.2692 170.658 68.2908C171.126 68.2908 171.617 68.2908 172.085 68.3556C172.375 68.3988 172.598 68.4204 172.71 68.442C172.71 68.442 172.776 68.4852 172.821 68.4852C172.999 68.5284 173.601 68.7229 174.337 69.3709C175.185 70.127 175.296 70.4079 175.408 70.7103C175.408 70.7535 175.43 70.7967 175.452 70.8183C176.099 71.596 176.032 72.3089 175.207 73.3026C174.047 74.6636 172.531 75.5061 170.926 76.3918L170.792 76.4782C169.454 76.7807 168.384 76.6943 168.339 76.6943C166.868 76.7375 165.686 76.4566 164.638 75.8734C163.746 75.3981 163.055 74.1667 162.943 72.8706C162.876 72.1577 162.966 70.8183 164.192 69.8462ZM168.072 82.7862C168.651 81.6413 168.83 80.626 168.651 79.589C168.629 79.481 168.629 79.4378 168.607 79.4162H168.808C168.941 79.4162 169.097 79.4378 169.231 79.3946C170.101 79.3946 170.235 79.481 170.48 80.2155C170.658 80.7124 170.792 81.2308 170.903 81.7493L171.015 82.2246C171.06 82.3542 171.037 82.4622 170.837 82.5486L170.636 82.635C170.279 82.8078 169.922 82.9806 169.566 83.0671C168.428 83.3479 167.47 83.9312 166.6 84.8169L166.489 84.9249C166.221 85.2057 165.976 85.465 165.641 85.5946C166.734 84.8169 167.559 83.8664 168.072 82.7862ZM167.403 88.4677C168.005 86.6099 169.142 85.465 170.881 85.0113C171.082 84.9465 171.26 84.8385 171.394 84.7521C171.461 84.6873 171.595 84.6009 171.639 84.6009C171.795 84.6873 171.929 84.8817 172.063 85.0545C172.152 85.1625 172.219 85.2489 172.286 85.3353C173.156 86.3723 174.293 86.8907 175.653 86.8907H175.72C176.946 86.8907 178.15 86.8043 179.064 86.7179C180.157 86.6531 180.692 86.9339 181.071 87.8197C181.361 88.5109 181.138 89.2022 180.425 89.8071C179.823 90.2824 179.154 90.8872 178.574 91.6433C178.128 92.2482 177.459 92.4642 176.79 92.6155C176.745 92.6155 176.723 92.6371 176.701 92.6371L174.56 93.2419C174.427 93.3067 174.204 93.35 173.891 93.4364H173.802C171.996 93.9332 170.502 93.7388 169.053 92.8315C167.403 91.8162 166.845 90.304 167.403 88.4677ZM174.583 83.7799C173.535 83.2615 173.245 81.3388 173.133 80.6043V80.3667C172.999 79.7618 172.62 78.4873 172.598 78.4657C172.598 78.4225 172.598 78.4009 172.598 78.3793C172.643 78.2713 172.888 78.0984 172.999 78.012L173.133 77.8824C174.181 76.9535 175.475 76.003 177.214 75.7653C177.816 75.6789 178.395 75.4629 178.931 75.2685C179.198 75.1605 179.466 75.0741 179.733 74.9876C180.179 74.8364 180.558 74.8364 180.871 74.9444C182.521 75.5493 184.371 76.3702 185.776 77.904C186.289 78.4657 186.534 79.049 186.489 79.6106C186.445 80.1939 186.11 80.734 185.486 81.2524C185.241 81.4469 184.973 81.6413 184.728 81.8141C184.505 81.9869 184.304 82.1597 184.081 82.3326C183.234 82.9806 182.342 83.3911 181.406 83.5423C177.816 84.1472 175.519 84.2336 174.605 83.7799H174.583ZM182.409 89.5911C182.476 89.3102 182.587 89.0078 182.744 88.727C183.011 88.2733 183.301 87.69 183.301 86.9772C183.301 86.6315 183.234 86.2643 183.056 85.8754C183.658 85.4434 184.237 85.0329 184.817 84.5792C185.062 84.4064 185.33 84.3416 185.598 84.428C185.999 84.5144 186.289 84.7737 186.423 85.1841C186.423 85.1841 186.646 85.5946 186.668 86.3291C186.668 87.0636 186.467 87.6252 186.066 87.9709C186.021 87.9925 185.999 88.0141 185.954 88.0357C185.954 88.0357 185.887 88.1005 185.843 88.1221C185.598 88.2949 185.352 88.4893 185.107 88.6622C184.483 89.159 183.858 89.6127 183.1 89.7639L182.632 89.8287C182.454 89.8719 182.409 89.8071 182.409 89.8071C182.409 89.8071 182.364 89.7639 182.409 89.5911ZM177.169 49.41C177.169 49.41 177.281 49.3236 177.303 49.2804L179.6 46.5153L180.001 46.1264L183.033 43.2965C183.658 42.6268 184.327 42.0003 184.996 41.3954C185.731 40.7473 186.467 40.056 187.136 39.3216C187.983 38.3926 188.853 37.4853 189.723 36.5996C190.079 36.2324 190.436 35.8435 190.793 35.4763C191.64 34.5906 192.309 33.64 192.822 32.6679C193.357 31.631 195.074 30.6589 196.3 30.7237C196.479 30.7453 196.59 30.8101 196.724 31.0261C197.46 32.1278 197.817 33.1864 197.817 34.2881C197.817 35.0442 197.661 35.7571 197.348 36.4268C195.988 39.516 194.985 42.778 194.026 45.932C193.825 46.5585 193.625 47.1849 193.446 47.8114C191.952 52.5856 190.079 58.2023 187.582 63.495C186.601 65.6121 185.642 67.4915 184.037 69.0037C183.457 69.5654 182.788 70.1918 182.03 70.6455C180.982 71.2504 179.934 71.9849 178.931 72.849C178.44 73.2594 177.86 73.3458 177.214 73.4322C177.281 73.1946 177.37 72.9786 177.481 72.7626C178.306 70.8183 177.95 69.4789 176.255 68.1612C175.185 67.3403 174.025 66.4978 172.487 66.325C172.041 66.2601 171.706 65.9361 171.416 65.2664C170.703 63.6462 170.524 61.9828 170.881 60.3626C171.639 56.971 173.267 53.8818 175.675 51.1814C176.032 50.8142 176.344 50.4037 176.589 49.9933C176.745 49.7341 176.946 49.518 177.169 49.41ZM164.638 50.2957C164.638 49.7773 164.682 49.2588 164.682 48.7403C164.727 48.4595 164.928 47.0985 165.151 45.8672L165.262 45.1975C165.686 42.9292 166.11 40.7905 167.603 38.9975C168.54 37.8742 169.677 36.9885 170.993 36.3836C171.416 36.1676 172.085 36.0163 172.888 36.9237C173.445 37.5717 173.914 38.3278 174.248 39.2135C174.828 40.7257 175.385 42.2379 175.943 43.7717L176.411 45.0895C176.701 45.824 176.589 46.3424 176.077 46.8825C174.538 48.5459 172.62 50.6198 171.216 52.9313C169.41 55.934 168.406 58.548 168.072 61.1403C167.826 62.9981 168.094 64.7264 168.897 66.2169C168.919 66.2817 168.964 66.3466 168.964 66.3898H168.83C168.518 66.3682 168.228 66.4114 167.893 66.433C167.76 66.4546 167.626 66.4546 167.403 66.4978C167.247 66.5194 167.202 66.5194 167.202 66.5194C167.202 66.5194 167.157 66.433 167.157 66.1953C167.157 64.4239 166.845 62.6957 166.199 60.9027C165.262 58.3319 164.905 55.61 164.66 53.2769C164.571 52.3048 164.616 51.2679 164.66 50.2957H164.638ZM125.193 65.8065C124.502 65.2232 123.856 64.5319 123.298 63.7542C122.986 63.3654 122.874 63.0413 122.964 62.7821C123.031 62.5229 123.32 62.2852 123.811 62.0692C125.84 61.2699 128.025 60.8163 130.344 60.7731C130.5 60.7731 130.634 60.7514 130.768 60.7514C133.198 60.7514 135.762 61.2699 138.728 62.3068C139.219 62.4797 139.687 62.6525 140.155 62.8037C141.426 63.2358 142.742 63.6678 143.968 64.2943C145.618 65.0936 147.112 66.1953 148.539 67.2539C148.851 67.4915 149.141 67.7075 149.453 67.9236C149.743 68.1396 150.055 68.3772 150.345 68.5932C150.969 69.0685 151.616 69.5438 152.285 69.9758C153.578 70.8399 154.961 71.2936 156.432 71.3368H157.28C157.904 71.38 158.551 71.38 159.197 71.38C159.576 71.38 159.911 71.2072 160.067 70.9263C160.223 70.6671 160.201 70.2999 159.978 69.9542C159.643 69.4141 159.13 69.0901 158.528 69.0685C155.094 68.8741 152.82 66.8434 150.858 64.6831C149.409 63.1061 148.338 61.2483 147.29 59.4337L147.112 59.1312C145.774 56.8198 144.258 54.5299 142.809 52.3264C142.363 51.6567 141.917 50.987 141.471 50.2957C140.869 49.3668 140.4 48.4379 140.088 47.5306C139.419 45.4999 138.505 43.5341 137.613 41.6546C137.279 40.9634 136.944 40.2505 136.632 39.5592C136.075 38.3278 135.606 37.0533 135.16 35.8003L134.759 34.6338C134.269 33.316 133.956 31.9982 133.622 30.5076C133.243 28.8874 133.087 27.1592 133.131 25.215C133.131 24.8261 133.198 24.5021 133.332 24.1996C133.466 23.8756 133.577 23.8108 133.644 23.7892C133.689 23.7892 133.8 23.7892 134.09 23.962C134.893 24.4589 135.673 25.0854 136.409 25.6686C136.677 25.8847 136.944 26.1007 137.19 26.3167C141.917 30.054 145.373 33.1 148.361 36.254C150.903 38.8895 153.422 41.8491 156.365 45.5431C159.599 49.6476 161.427 54.2706 162.809 58.2671C162.988 58.7856 163.166 59.3041 163.367 59.8009C163.857 61.0971 164.37 62.4365 164.571 63.819C164.66 64.5103 164.749 65.2448 164.705 66.0009C164.638 67.1891 164.08 68.0532 163.077 68.55C160.78 69.7166 160.647 71.7688 160.758 73.1946V73.3242C160.78 73.5403 160.803 73.7563 160.78 73.7995C160.736 73.8427 160.446 73.9075 160.223 73.9291C157.726 74.3612 155.763 75.0308 154.069 76.0678C153.667 76.2838 153.4 76.543 153.177 76.8455C152.709 77.5368 151.995 77.904 151.014 77.9472C149.208 78.0336 147.58 77.8824 146.064 77.4504C145.417 77.2559 144.793 77.0831 144.146 76.9103C142.809 76.543 141.426 76.1542 140.088 75.7221C137.769 74.9444 135.473 73.6699 133.02 71.8336L131.637 70.8183C129.497 69.2197 127.267 67.5563 125.193 65.8065ZM134.001 85.6162C132.061 85.573 130.612 84.4496 129.408 83.4127C129.408 83.4127 129.363 83.3695 129.341 83.3695C128.694 82.7214 126.91 81.9653 125.483 81.4036C125.461 81.4036 125.416 81.382 125.394 81.382C124.814 81.2524 124.257 81.0796 123.699 80.8204C122.897 80.4315 122.005 80.0643 120.979 79.697C120.667 79.589 120.466 79.4594 120.422 79.3298C120.355 79.2002 120.422 78.9625 120.578 78.6601C121.18 77.4936 122.183 76.5862 123.833 75.7221C124.814 75.2253 125.929 74.9444 126.91 74.9444H127.178C128.337 74.9444 129.118 75.0957 129.787 75.4845C131.102 76.219 132.552 76.5214 133.956 76.7807L134.38 76.8671C135.428 77.0831 136.431 77.5152 137.39 77.9256C137.68 78.0552 137.992 78.1848 138.282 78.2929C141.917 79.805 145.841 80.6476 149.944 80.8204H150.144C150.144 80.8204 150.301 80.8204 150.345 80.842C150.523 80.8852 150.702 80.8636 150.88 80.842C151.192 80.8204 151.215 80.842 151.259 80.9716C151.482 81.5333 151.259 82.2894 150.858 82.6134C150.412 82.959 149.855 83.0239 149.253 83.0887H149.074C147.848 83.2615 146.822 83.5207 145.908 83.8664C144.659 84.3632 143.411 84.8385 142.162 85.3137C141.181 85.681 140.222 86.0698 139.241 86.4371C139.018 86.5235 138.906 86.5451 138.795 86.5019C137.234 85.8106 135.562 85.6594 134.001 85.6162ZM142.675 101.797C139.308 104.54 136.454 107.781 134.09 110.567C132.596 112.382 130.924 114.045 129.341 115.558C128.114 116.724 127.156 117.891 126.442 119.1C126.018 119.792 125.483 120.094 124.725 120.008C122.651 119.813 122.183 119.597 121.737 117.696C121.47 116.486 121.403 115.255 121.381 113.786C121.291 111.842 122.005 109.682 122.651 108.018C124.346 103.525 127.312 99.3771 131.66 95.2942C135.317 91.881 138.973 89.4183 142.853 87.7116C145.44 86.5883 147.669 86.005 149.855 85.8754C150.078 85.8754 150.345 85.8754 150.59 85.7458C150.813 85.6378 151.014 85.5946 151.237 85.5946C151.661 85.5946 152.084 85.8106 152.642 86.3075C152.932 86.5667 153.266 86.8475 153.266 86.9555C153.266 87.0636 152.909 87.4092 152.642 87.6468C151.661 88.5758 150.836 89.6127 150.211 90.7144C148.918 93.0043 149.141 94.6893 150.969 96.5256C151.081 96.6336 151.103 96.6768 151.126 96.6984C151.103 96.6984 151.081 96.7416 150.969 96.828C150.68 97.0224 150.345 97.1952 149.921 97.3465C147.067 98.3618 144.682 100.176 142.675 101.797ZM154.604 123.896C154.247 124.307 153.913 124.76 153.601 125.192C153.444 125.408 153.288 125.624 153.11 125.84C151.527 127.893 149.877 129.751 148.182 131.414C147.959 131.63 147.692 131.846 147.357 132.084C146.733 132.494 146.532 132.472 146.086 131.889C145.507 131.155 145.15 130.269 144.994 129.189C144.793 127.936 144.748 126.64 144.682 125.387C144.637 124.479 144.592 123.572 144.503 122.665C144.347 120.526 144.414 118.323 144.704 116.098C144.793 115.342 144.882 114.585 144.971 113.808C145.217 111.496 145.484 109.098 146.153 106.808C146.822 104.562 147.647 102.877 148.807 101.516C149.342 100.846 149.921 100.436 150.59 100.22C151.861 99.8308 152.82 99.0531 153.712 98.297C154.091 97.9513 154.426 97.8001 154.782 97.8001C154.894 97.8001 155.005 97.8217 155.139 97.8649C155.496 97.9513 155.54 98.1025 155.496 98.3402C155.474 98.4698 155.451 98.5994 155.429 98.729C155.407 98.9451 155.362 99.1611 155.295 99.3771C154.76 101.192 154.559 103.028 154.426 105.231C154.292 107.651 154.225 109.638 154.225 111.496C154.247 114.348 154.649 117.048 155.407 119.532C155.964 121.304 155.719 122.643 154.604 123.896ZM156.254 94.9702C154.938 94.4301 153.645 93.8684 152.352 93.3283C151.794 93.1123 151.638 92.8747 151.638 92.8099C151.75 90.8872 153.712 88.4245 155.763 88.3813L157.124 88.3381C157.949 88.2949 158.751 88.2733 159.554 88.2517C160.045 88.2301 160.58 88.2733 161.026 88.4893C161.36 88.6406 161.65 88.6838 161.918 88.5758C162.23 88.4677 162.453 88.2301 162.631 87.8197L162.698 87.6468C162.765 87.474 162.832 87.2796 162.921 87.1068C162.943 87.042 162.966 87.042 162.988 87.0636C162.988 87.5172 163.077 87.8629 163.322 88.1005C163.545 88.3597 163.902 88.4677 164.37 88.4461C164.036 89.8503 164.504 91.1249 164.928 92.2698C165.017 92.5075 165.084 92.7883 165.128 93.0475L165.173 93.2851L165.195 93.3716C165.173 93.3932 165.151 93.4148 165.128 93.4364C164.616 94.1493 163.01 94.7109 161.806 94.9702C161.784 94.9702 161.739 94.9918 161.695 94.9918C161.271 95.1646 160.758 95.251 160.022 95.251C157.636 95.5966 157.057 95.2942 157.034 95.2942C156.99 95.2294 156.923 95.1862 156.834 95.1646C156.722 95.143 156.544 95.0782 156.254 94.9702ZM165.931 113.03C164.526 116.508 162.52 119.597 159.933 122.211C159.911 122.211 159.866 122.276 159.866 122.276C159.777 122.341 159.71 122.427 159.621 122.492C159.532 122.6 159.331 122.773 159.286 122.794C159.175 122.73 159.108 122.643 159.063 122.535C159.063 122.47 159.063 122.492 159.019 122.449C158.595 121.585 158.06 119.338 157.882 118.647C157.168 115.752 156.834 112.814 156.923 109.919C156.945 109.206 156.945 108.493 156.945 107.781C156.945 106.614 156.945 105.426 157.034 104.259C157.19 102.293 157.726 100.371 158.194 98.9235C158.417 98.2538 158.684 98.1025 159.665 98.1025H159.978C160.446 98.1458 160.959 98.1674 161.026 98.2322C161.07 98.297 161.048 98.621 161.048 98.9019C161.026 99.0531 161.026 99.2259 161.026 99.3987C160.936 102.531 162.163 105.275 163.456 107.845C163.478 107.91 163.523 107.997 163.568 108.061C163.679 108.213 163.768 108.364 163.813 108.537C164.036 109.271 164.571 109.725 164.995 110.027C166.176 110.87 166.444 111.734 165.931 113.03ZM169.655 104.843L169.454 105.275C168.986 106.312 168.495 107.37 167.76 108.277C167.559 108.537 167.314 108.666 167.091 108.666H167.046C166.823 108.645 166.622 108.493 166.489 108.234C165.262 105.88 163.991 103.438 163.456 100.738C163.077 98.729 163.501 97.3465 164.861 96.2879C165.106 96.0935 165.329 95.8991 165.552 95.7047C165.753 95.5102 165.931 95.3374 166.154 95.1646C166.332 95.035 166.489 94.9702 166.667 94.9702C166.823 94.9702 167.001 95.035 167.157 95.1862C167.76 95.7263 168.428 96.0503 169.298 96.2015C170.145 96.3527 170.636 96.9144 170.77 97.8865C170.814 98.2754 170.859 98.7074 170.881 99.1179C170.903 99.3339 170.926 99.5715 170.926 99.766C171.015 101.667 170.346 103.395 169.655 104.843ZM194.093 124.479L194.182 124.868C194.472 126.078 194.74 127.201 194.873 128.303C194.873 128.822 194.717 129.21 194.427 129.426C194.16 129.599 193.803 129.621 193.379 129.491C192.109 129.081 190.771 128.627 189.121 128.044C188.318 127.763 187.582 127.309 186.69 126.575C185.887 125.884 185.04 125.236 184.215 124.587C182.565 123.313 180.871 121.974 179.443 120.397C176.835 117.459 174.538 114.758 172.754 111.604C172.308 110.783 172.041 109.898 171.751 108.969C171.595 108.385 171.416 107.781 171.171 107.219C171.104 106.981 171.238 106.7 171.327 106.571C172.866 104.108 173.445 101.278 173.2 97.4329C173.133 96.3959 173.267 96.2231 174.36 95.9855C174.761 95.8775 175.185 95.8127 175.608 95.7263C175.92 95.683 176.255 95.6182 176.567 95.5534C177.325 95.4022 177.972 95.035 178.618 94.6677L178.886 94.5381C178.886 94.5381 178.975 94.4733 178.998 94.4733C178.998 94.4733 178.998 94.4877 178.998 94.5165C179.488 96.5039 180.692 98.1026 181.874 99.6363L182.052 99.8956C182.699 100.716 183.301 101.494 183.792 102.358C183.97 102.661 184.171 102.963 184.505 103.158C186.445 104.281 187.381 106.117 188.363 108.04C190.659 112.555 192.421 117.631 194.071 124.479H194.093ZM201.295 95.5534C201.295 95.5534 201.295 95.575 201.34 95.5966C202.499 96.8928 203.569 98.297 204.573 99.6795L205.22 100.522C206.78 102.639 208.185 104.281 209.59 105.685C209.88 105.966 209.969 106.096 209.969 106.096C209.924 106.182 209.523 106.355 209.389 106.42C208.074 107.068 206.624 107.219 204.885 107.24H204.751C199.288 107.24 194.539 106.117 190.213 103.849C188.586 102.985 186.735 102.013 185.241 100.608C184.728 100.112 184.394 99.5067 184.014 98.8802C183.792 98.5346 183.591 98.1674 183.323 97.8217C182.9 97.2384 182.521 96.6336 182.119 96.0287C181.896 95.683 181.673 95.359 181.45 95.0134C181.16 94.6029 180.96 94.1061 180.848 93.5444C180.714 92.7883 180.96 92.3778 181.673 92.1402C182.052 92.0106 182.431 91.9458 182.766 91.9458C184.081 91.881 185.33 91.4273 186.668 90.5416C186.735 90.4984 186.802 90.4552 186.846 90.412L187.092 90.1744C187.203 90.0879 187.627 89.8719 189.009 89.8719C189.388 89.8719 189.856 89.8935 190.414 89.9367H190.503C192.889 89.9583 194.851 90.1744 196.68 91.0817C197.17 91.3193 197.616 91.6433 198.062 91.9674C198.285 92.1402 198.53 92.313 198.798 92.5074L198.909 92.6371C200.292 94.3221 201.094 95.3158 201.295 95.5534ZM234.407 80.8636C233.649 82.0085 232.601 82.8942 231.285 83.4775C227.049 85.3137 223.258 86.5667 219.668 87.3012C217.862 87.6684 215.989 87.8845 214.116 87.9277C211.574 88.0141 209.144 88.5542 206.892 89.1374C204.93 89.6343 202.967 89.4399 201.295 89.2022C199.444 88.9646 197.616 88.4893 195.832 88.0573C194.807 87.7981 193.803 87.5388 192.777 87.3228C192.354 87.2364 191.908 87.15 191.484 87.0636C190.994 86.9555 190.481 86.8475 189.99 86.7395C189.344 86.5883 189.031 86.2427 189.009 85.6594C188.987 84.6657 188.808 83.2615 187.426 82.2894C187.404 82.2678 187.337 82.2246 187.337 82.1813C187.315 82.1381 187.359 82.0517 187.426 81.9869C188.273 81.0148 188.429 79.805 188.474 78.7681C188.474 78.0768 188.764 77.6016 189.366 77.1911C189.79 76.9103 190.191 76.6078 190.615 76.3054C191.194 75.8518 191.796 75.3981 192.398 75.0308C194.829 73.5835 197.571 72.9138 199.957 72.4385C201.317 72.1577 202.678 72.0281 204.015 72.0065C205.42 72.1577 206.847 72.2225 208.23 72.2657C210.905 72.3737 213.67 72.4817 216.279 73.3026C217.662 73.7131 219.066 73.7995 220.426 73.8643C221.051 73.9075 221.697 73.9291 222.322 73.9939C223.637 74.1451 224.975 74.426 226.246 74.6852C226.759 74.7932 227.272 74.9012 227.762 74.9876C227.941 75.0308 228.119 75.0957 228.253 75.2037C229.791 76.2838 231.464 76.8455 233.225 77.4071C234.095 77.688 234.675 78.12 234.898 78.7033C235.121 79.3082 234.942 80.0427 234.407 80.8636Z" fill="#8D8D8D"/>
<path d="M206.624 59.9532C206.602 60.4717 206.245 61.1198 205.978 61.5518C204.751 63.5609 203.324 65.894 201.696 68.0327C200.961 69.048 199.935 69.7177 198.642 70.0417C198.196 70.1713 197.75 70.2793 197.304 70.3874C195.944 70.7114 194.517 71.0354 193.201 71.6835C191.038 72.7853 189.433 73.9086 188.206 75.248L188.095 75.3776C188.095 75.3776 187.983 75.5072 187.894 75.572C187.292 76.1769 187.292 76.1985 186.69 75.68C185.04 74.3407 183.613 73.563 182.119 73.1525C182.119 73.1309 182.164 73.1309 182.186 73.1093C182.654 72.7637 183.123 72.418 183.568 72.0724L184.46 71.4243C185.308 70.7978 185.999 70.0417 186.69 69.3072C187.092 68.8536 187.537 68.3999 187.983 67.9679C188.251 67.7302 188.541 67.5142 188.831 67.2982C189.433 66.8445 190.057 66.3909 190.414 65.7428C191.774 63.3449 194.138 62.524 196.635 61.6599L197.103 61.5086C197.861 61.2278 198.619 60.9686 199.378 60.7093C201.273 60.0829 203.213 59.4132 205.086 58.6355C205.465 58.4627 205.821 58.4627 206.089 58.6355C206.424 58.8515 206.624 59.3484 206.624 59.9532Z" fill="#EFEDE4"/>
<path d="M234.317 80.7944C233.537 81.9393 232.489 82.825 231.173 83.4083C226.959 85.2445 223.146 86.4975 219.556 87.232C217.75 87.5992 215.877 87.8153 214.004 87.8585C211.462 87.9449 209.032 88.4849 206.78 89.0682C204.817 89.5651 202.855 89.3707 201.183 89.133C199.332 88.8954 197.504 88.4201 195.72 87.9881C194.694 87.7288 193.691 87.4696 192.665 87.2536C192.242 87.1672 191.818 87.0808 191.372 86.9944C190.881 86.8863 190.369 86.7783 189.878 86.6703C189.231 86.5191 188.919 86.1735 188.897 85.5902C188.875 84.5965 188.696 83.1923 187.314 82.2202C187.314 82.1986 187.225 82.1553 187.225 82.1121C187.225 82.0689 187.247 81.9825 187.314 81.9177C188.183 80.9456 188.317 79.7358 188.362 78.6989C188.384 78.0076 188.674 77.5324 189.254 77.1219C189.677 76.8411 190.101 76.5386 190.502 76.2362C191.082 75.7825 191.684 75.3289 192.308 74.9616C194.717 73.5143 197.482 72.8446 199.845 72.3693C201.205 72.0885 202.588 71.9589 203.903 71.9373C205.308 72.0885 206.735 72.1533 208.117 72.1965C210.793 72.3045 213.558 72.4125 216.167 73.2334C217.572 73.6439 218.954 73.7303 220.314 73.7951C220.939 73.8383 221.585 73.8599 222.21 73.9247C223.525 74.0759 224.863 74.3568 226.134 74.616C226.647 74.724 227.16 74.832 227.65 74.9184C227.829 74.9616 228.007 75.0264 228.141 75.1345C229.679 76.2146 231.374 76.7763 233.113 77.3379C233.983 77.6188 234.562 78.0508 234.785 78.6341C235.008 79.239 234.852 79.9735 234.317 80.7944Z" fill="white"/>
<path d="M209.88 106.032C209.88 106.032 209.412 106.291 209.278 106.356C207.963 107.004 206.513 107.155 204.774 107.177H204.64C199.177 107.177 194.428 106.053 190.102 103.785C188.475 102.921 186.624 101.949 185.13 100.545C184.617 100.048 184.283 99.4429 183.904 98.8164C183.703 98.4708 183.48 98.1035 183.235 97.7579C182.811 97.1746 182.41 96.5698 182.008 95.9649C181.785 95.6192 181.562 95.2952 181.339 94.9496C181.05 94.5391 180.849 94.0422 180.76 93.4806C180.626 92.7245 180.871 92.314 181.562 92.0764C181.941 91.9468 182.321 91.882 182.655 91.882C183.971 91.8172 185.219 91.3635 186.557 90.4778C186.646 90.4346 186.691 90.3914 186.735 90.3482L186.802 90.2834L186.981 90.1105C186.981 90.1105 187.516 89.8081 188.898 89.8081C189.277 89.8081 189.746 89.8297 190.303 89.8729H190.392C192.778 89.8945 194.74 90.1105 196.591 91.0179C197.082 91.2555 197.505 91.5795 197.951 91.9036C198.196 92.0764 198.419 92.2492 198.687 92.4436L198.798 92.5733C200.181 94.2583 200.984 95.252 201.184 95.4896C201.207 95.4896 201.207 95.5112 201.229 95.5328C202.388 96.829 203.459 98.2332 204.462 99.6157L205.109 100.458C206.669 102.575 208.074 104.217 209.479 105.621C209.769 105.902 209.858 106.032 209.88 106.032Z" fill="#F4F4F4"/>
<path d="M194.76 128.238C194.76 128.756 194.604 129.145 194.314 129.361C194.047 129.534 193.69 129.556 193.266 129.426C191.995 129.016 190.657 128.562 189.007 127.979C188.205 127.698 187.469 127.244 186.577 126.51C185.774 125.818 184.927 125.17 184.124 124.522C182.452 123.248 180.757 121.908 179.33 120.331C176.721 117.393 174.425 114.693 172.641 111.539C172.195 110.718 171.927 109.832 171.66 108.903C171.482 108.32 171.303 107.715 171.08 107.154C170.991 106.916 171.125 106.635 171.214 106.505C172.775 104.043 173.355 101.213 173.087 97.3675C173.02 96.3306 173.154 96.1578 174.246 95.9202C174.648 95.8121 175.071 95.7473 175.495 95.6609C175.807 95.6177 176.142 95.5529 176.454 95.4881C177.212 95.3369 177.881 94.9696 178.505 94.6024L178.773 94.4728C178.773 94.4728 178.862 94.408 178.884 94.408C178.884 94.4296 178.907 94.4296 178.907 94.4512C179.397 96.4386 180.601 98.0372 181.783 99.571L181.961 99.8302C182.608 100.651 183.21 101.429 183.701 102.293C183.879 102.595 184.08 102.898 184.414 103.092C186.354 104.216 187.291 106.052 188.272 107.974C190.591 112.489 192.33 117.566 193.98 124.414L194.069 124.803C194.359 126.013 194.626 127.136 194.76 128.238Z" fill="#F4F4F4"/>
<path d="M170.837 99.6984C170.904 101.599 170.235 103.328 169.544 104.775L169.343 105.207C168.875 106.244 168.384 107.303 167.649 108.21C167.47 108.469 167.225 108.599 166.98 108.599H166.935C166.712 108.577 166.512 108.426 166.378 108.167C165.151 105.812 163.88 103.371 163.368 100.671C162.966 98.6615 163.39 97.2789 164.75 96.2204C164.995 96.0259 165.218 95.8315 165.441 95.6371C165.642 95.4427 165.843 95.2698 166.043 95.097C166.222 94.9674 166.4 94.9026 166.556 94.9026C166.734 94.9026 166.891 94.9674 167.047 95.1186C167.649 95.6587 168.34 95.9827 169.187 96.1339C170.057 96.2852 170.525 96.8468 170.659 97.819C170.726 98.2078 170.748 98.6399 170.77 99.0503C170.793 99.2663 170.815 99.504 170.837 99.6984Z" fill="#EFEDE4"/>
<path d="M165.819 112.964C164.437 116.442 162.408 119.532 159.821 122.146C159.799 122.146 159.754 122.21 159.754 122.21C159.665 122.275 159.598 122.362 159.531 122.426C159.42 122.534 159.241 122.707 159.197 122.729C159.063 122.664 158.996 122.578 158.974 122.47C158.952 122.405 158.974 122.426 158.929 122.383C158.483 121.519 157.948 119.272 157.792 118.581C157.056 115.686 156.722 112.748 156.811 109.854C156.833 109.141 156.833 108.428 156.833 107.715C156.833 106.548 156.833 105.36 156.922 104.194C157.079 102.228 157.636 100.305 158.082 98.8578C158.305 98.1881 158.573 98.0369 159.554 98.0369H159.866C160.356 98.0801 160.847 98.1017 160.914 98.1665C160.958 98.2313 160.936 98.5553 160.936 98.8362C160.914 98.9874 160.914 99.1602 160.914 99.333C160.825 102.465 162.051 105.209 163.344 107.78C163.389 107.844 163.433 107.931 163.478 107.996C163.567 108.147 163.656 108.298 163.701 108.471C163.924 109.205 164.459 109.659 164.905 109.962C166.087 110.804 166.354 111.668 165.819 112.964Z" fill="white"/>
<path d="M154.491 123.83C154.134 124.241 153.8 124.694 153.488 125.126C153.332 125.342 153.176 125.558 153.02 125.774C151.436 127.827 149.764 129.685 148.07 131.348C147.847 131.564 147.579 131.78 147.245 132.018C146.642 132.428 146.419 132.406 145.974 131.823C145.394 131.089 145.037 130.203 144.881 129.123C144.703 127.87 144.636 126.574 144.569 125.321C144.524 124.413 144.48 123.506 144.39 122.599C144.257 120.46 144.301 118.257 144.591 116.032C144.68 115.276 144.769 114.519 144.859 113.742C145.104 111.43 145.371 109.032 146.04 106.742C146.709 104.496 147.534 102.811 148.694 101.45C149.229 100.78 149.809 100.37 150.478 100.154C151.749 99.7648 152.707 98.9871 153.599 98.231C153.978 97.8853 154.313 97.7341 154.67 97.7341C154.781 97.7341 154.915 97.7557 155.026 97.7989C155.405 97.8853 155.428 98.0366 155.405 98.2742C155.361 98.4038 155.339 98.5334 155.316 98.663C155.294 98.8791 155.249 99.0951 155.182 99.3111C154.647 101.126 154.447 102.962 154.313 105.165C154.179 107.585 154.112 109.572 154.112 111.43C154.112 114.282 154.536 116.982 155.294 119.466C155.851 121.238 155.606 122.577 154.491 123.83Z" fill="#F4F4F4"/>
<path d="M150.098 90.6489C148.805 92.9388 149.028 94.6238 150.879 96.46C150.968 96.568 150.99 96.6112 151.012 96.6328C150.99 96.6328 150.968 96.6761 150.856 96.7625C150.566 96.9569 150.232 97.1297 149.808 97.2809C146.954 98.2963 144.568 100.111 142.562 101.731C139.195 104.475 136.341 107.715 133.999 110.502C132.483 112.316 130.811 113.98 129.228 115.492C128.001 116.659 127.065 117.825 126.329 119.035C125.905 119.726 125.37 120.029 124.612 119.942C122.538 119.748 122.092 119.532 121.624 117.631C121.357 116.421 121.29 115.19 121.267 113.721C121.178 111.776 121.892 109.616 122.538 107.953C124.255 103.459 127.199 99.3116 131.547 95.2287C135.203 91.8154 138.86 89.3527 142.74 87.6461C145.326 86.5228 147.556 85.9395 149.741 85.8099C149.987 85.8099 150.232 85.8099 150.477 85.6803C150.7 85.5723 150.901 85.5291 151.124 85.5291C151.548 85.5291 151.971 85.7451 152.529 86.2419C152.818 86.5012 153.153 86.782 153.175 86.89C153.175 86.9764 152.796 87.3437 152.551 87.5813C151.548 88.5102 150.722 89.5472 150.098 90.6489Z" fill="white"/>
<path d="M150.747 82.5484C150.301 82.894 149.744 82.9588 149.142 83.0236H148.963C147.737 83.1964 146.711 83.4557 145.797 83.8013C144.548 84.2982 143.3 84.7734 142.051 85.2487C141.092 85.6159 140.111 86.0048 139.13 86.372C138.929 86.4584 138.796 86.4801 138.684 86.4368C137.146 85.7456 135.473 85.5943 133.89 85.5511C131.95 85.5079 130.501 84.3846 129.319 83.3477C129.297 83.3477 129.252 83.3045 129.23 83.3045C128.583 82.6564 126.8 81.9003 125.373 81.3386C125.35 81.3386 125.306 81.317 125.283 81.317C124.726 81.1874 124.146 81.0146 123.611 80.7553C122.786 80.3665 121.894 79.9992 120.868 79.632C120.556 79.524 120.356 79.3944 120.311 79.2647C120.244 79.1351 120.311 78.8975 120.467 78.5951C121.069 77.4285 122.072 76.5212 123.723 75.6571C124.704 75.1602 125.818 74.8794 126.8 74.8794H127.067C128.249 74.8794 129.007 75.0306 129.676 75.4195C130.992 76.154 132.441 76.4564 133.846 76.7156L134.269 76.802C135.317 77.0181 136.321 77.4501 137.279 77.8606C137.569 77.9902 137.881 78.1198 138.171 78.2278C141.806 79.74 145.73 80.5825 149.833 80.7553H150.034C150.034 80.7553 150.19 80.7553 150.234 80.7769C150.413 80.8201 150.613 80.7985 150.77 80.7769C151.082 80.7553 151.104 80.7769 151.171 80.9066C151.372 81.4682 151.171 82.2243 150.747 82.5484Z" fill="#EFEDE4"/>
<path d="M197.708 34.2213C197.708 34.9774 197.552 35.6903 197.262 36.36C195.879 39.4492 194.876 42.7112 193.917 45.8652C193.716 46.4917 193.538 47.1182 193.337 47.7446C191.843 52.5188 189.97 58.1355 187.495 63.4282C186.492 65.5453 185.533 67.4247 183.928 68.9369C183.348 69.4986 182.679 70.125 181.921 70.5787C180.873 71.1836 179.825 71.9181 178.822 72.7822C178.331 73.1926 177.751 73.279 177.105 73.3655C177.172 73.1278 177.283 72.9118 177.372 72.6958C178.197 70.7515 177.863 69.4122 176.146 68.0944C175.098 67.2735 173.916 66.431 172.378 66.2582C171.932 66.1934 171.597 65.8693 171.307 65.1996C170.594 63.5794 170.415 61.916 170.772 60.2958C171.53 56.9042 173.158 53.815 175.588 51.1147C175.945 50.7474 176.235 50.337 176.48 49.9265C176.659 49.6673 176.859 49.4512 177.082 49.3432C177.127 49.3 177.172 49.2568 177.194 49.2136L179.513 46.4485C179.624 46.3189 179.758 46.1892 179.892 46.0596L182.924 43.2297C183.549 42.56 184.218 41.9335 184.887 41.3286C185.622 40.6805 186.358 39.9893 187.027 39.2548C187.874 38.3258 188.744 37.4185 189.614 36.5328C189.97 36.1656 190.327 35.7767 190.684 35.4095C191.531 34.5238 192.2 33.5732 192.713 32.6011C193.248 31.5642 194.965 30.5921 196.214 30.6569C196.392 30.6785 196.481 30.7433 196.615 30.9593C197.351 32.0611 197.708 33.1196 197.708 34.2213Z" fill="white"/>
<path d="M175.963 46.8171C174.425 48.4805 172.507 50.5543 171.102 52.8658C169.296 55.8686 168.293 58.4825 167.958 61.0749C167.713 62.9327 167.981 64.6609 168.783 66.1515C168.828 66.2163 168.85 66.2811 168.85 66.3243H168.716C168.404 66.3027 168.114 66.3459 167.802 66.3675C167.646 66.3891 167.512 66.3891 167.289 66.4323C167.156 66.4539 167.089 66.4539 167.089 66.4539C167.089 66.4539 167.044 66.3675 167.044 66.1299C167.044 64.3585 166.732 62.6303 166.085 60.8372C165.149 58.2665 164.792 55.5446 164.569 53.2115C164.48 52.2393 164.502 51.2024 164.547 50.2303C164.547 49.7118 164.569 49.1934 164.569 48.6749C164.614 48.3941 164.814 47.0331 165.037 45.8017L165.149 45.132C165.595 42.8638 165.996 40.7251 167.49 38.9321C168.427 37.8087 169.564 36.923 170.879 36.3181C171.303 36.1021 171.972 35.9509 172.775 36.8582C173.332 37.5063 173.8 38.2624 174.135 39.1481C174.715 40.6603 175.272 42.1725 175.829 43.7063L176.298 45.024C176.588 45.7585 176.498 46.277 175.963 46.8171Z" fill="#F4F4F4"/>
<path d="M164.595 65.9366C164.528 67.1247 163.971 67.9888 162.967 68.4857C160.671 69.6522 160.537 71.7045 160.648 73.1303V73.2599C160.671 73.4759 160.693 73.6919 160.693 73.7351C160.626 73.7783 160.336 73.8432 160.113 73.8648C157.616 74.2968 155.676 74.9665 153.959 76.0034C153.58 76.2195 153.29 76.4787 153.067 76.7811C152.599 77.4724 151.885 77.8397 150.904 77.8829C149.098 77.9693 147.471 77.8181 145.954 77.386C145.308 77.1916 144.683 77.0188 144.037 76.8459C142.699 76.4787 141.316 76.0898 139.979 75.6578C137.682 74.8801 135.363 73.6055 132.91 71.7693L131.528 70.754C129.387 69.1554 127.157 67.492 125.084 65.7421C124.392 65.1589 123.768 64.4676 123.188 63.6899C122.876 63.301 122.765 62.977 122.854 62.7178C122.921 62.4585 123.211 62.2209 123.701 62.0049C125.73 61.2056 127.916 60.7519 130.234 60.7087C130.391 60.7087 130.524 60.6871 130.68 60.6871C133.111 60.6871 135.653 61.2056 138.641 62.2425C139.109 62.4153 139.577 62.5881 140.045 62.7394C141.316 63.1714 142.632 63.6035 143.858 64.2299C145.508 65.0292 147.002 66.131 148.429 67.1895C148.741 67.4271 149.031 67.6432 149.344 67.8592C149.633 68.0752 149.946 68.3129 150.258 68.5289C150.86 69.0041 151.506 69.4794 152.175 69.9115C153.469 70.7756 154.873 71.2292 156.345 71.2724H157.17C157.794 71.3156 158.441 71.3156 159.088 71.3156C159.489 71.3156 159.801 71.1428 159.957 70.862C160.113 70.6027 160.091 70.2355 159.868 69.8899C159.556 69.3498 159.021 69.0257 158.419 69.0041C154.985 68.8097 152.71 66.7791 150.748 64.6188C149.321 63.0418 148.229 61.184 147.203 59.3693L147.002 59.0669C145.664 56.7554 144.148 54.4655 142.699 52.262C142.253 51.5924 141.807 50.9227 141.361 50.2314C140.759 49.3025 140.291 48.3736 139.979 47.4662C139.31 45.4356 138.395 43.4697 137.503 41.5903C137.169 40.899 136.835 40.1861 136.522 39.4948C135.965 38.2635 135.497 36.9889 135.051 35.736L134.649 34.5694C134.159 33.2517 133.847 31.9339 133.512 30.4433C133.155 28.8231 132.977 27.0949 133.022 25.1506C133.044 24.7618 133.111 24.4377 133.222 24.1353C133.378 23.8113 133.468 23.7465 133.534 23.7249C133.579 23.7249 133.691 23.7249 133.98 23.8977C134.805 24.3945 135.564 25.021 136.299 25.6043C136.567 25.8203 136.835 26.0363 137.102 26.2524C141.807 29.9896 145.263 33.0356 148.251 36.1896C150.793 38.8252 153.335 41.7847 156.256 45.4788C159.489 49.5833 161.317 54.2063 162.7 58.2028C162.878 58.7213 163.057 59.2397 163.257 59.7366C163.748 61.0327 164.261 62.3721 164.461 63.7547C164.55 64.446 164.64 65.1805 164.595 65.9366Z" fill="white"/>
</svg>
