<svg width="24" height="24" viewBox="0 0 24 24" fill="none" xmlns="http://www.w3.org/2000/svg">
<path d="M8.99998 16.0578C8.35768 16.0578 7.81248 15.8337 7.3644 15.3857C6.91633 14.9376 6.6923 14.3924 6.6923 13.7501C6.6923 13.1078 6.91633 12.5626 7.3644 12.1145C7.81248 11.6665 8.35768 11.4424 8.99998 11.4424C9.64228 11.4424 10.1875 11.6665 10.6356 12.1145C11.0836 12.5626 11.3077 13.1078 11.3077 13.7501C11.3077 14.3924 11.0836 14.9376 10.6356 15.3857C10.1875 15.8337 9.64228 16.0578 8.99998 16.0578ZM5.3077 21.5001C4.80257 21.5001 4.375 21.3251 4.025 20.9751C3.675 20.6251 3.5 20.1975 3.5 19.6924V6.30784C3.5 5.80271 3.675 5.37514 4.025 5.02514C4.375 4.67514 4.80257 4.50014 5.3077 4.50014H6.69233V2.38477H8.23075V4.50014H15.8077V2.38477H17.3076V4.50014H18.6923C19.1974 4.50014 19.625 4.67514 19.975 5.02514C20.325 5.37514 20.5 5.80271 20.5 6.30784V19.6924C20.5 20.1975 20.325 20.6251 19.975 20.9751C19.625 21.3251 19.1974 21.5001 18.6923 21.5001H5.3077ZM5.3077 20.0001H18.6923C18.7692 20.0001 18.8397 19.9681 18.9038 19.904C18.9679 19.8398 19 19.7693 19 19.6924V10.3078H4.99997V19.6924C4.99997 19.7693 5.03202 19.8398 5.09612 19.904C5.16024 19.9681 5.23077 20.0001 5.3077 20.0001ZM4.99997 8.80787H19V6.30784C19 6.23091 18.9679 6.16038 18.9038 6.09627C18.8397 6.03217 18.7692 6.00012 18.6923 6.00012H5.3077C5.23077 6.00012 5.16024 6.03217 5.09612 6.09627C5.03202 6.16038 4.99997 6.23091 4.99997 6.30784V8.80787Z" fill="#B8B8B8"/>
</svg>
