<svg width="335" height="335" viewBox="0 0 335 335" fill="none" xmlns="http://www.w3.org/2000/svg">
<rect width="335" height="335" rx="6" fill="#EFEDE4"/>
<path d="M181.135 165.844C181.09 166.494 180.704 167.079 180.002 167.664C179.73 167.881 179.435 168.098 179.163 168.293C178.914 168.488 178.687 168.683 178.437 168.856C177.485 169.572 176.488 170.027 175.445 170.2C171.433 170.872 168.848 170.959 167.828 170.46C166.649 169.897 166.332 167.751 166.196 166.949V166.689C166.037 166.017 165.629 164.608 165.607 164.587C165.607 164.543 165.584 164.522 165.584 164.5C165.629 164.37 165.901 164.197 166.037 164.088L166.196 163.936C167.375 162.918 168.826 161.856 170.775 161.596C171.455 161.509 172.09 161.271 172.702 161.054C172.997 160.924 173.292 160.837 173.609 160.75C174.108 160.577 174.538 160.577 174.878 160.707C176.737 161.379 178.8 162.289 180.387 163.98C180.954 164.608 181.226 165.237 181.18 165.865L181.135 165.844Z" fill="#FFE888"/>
<path d="M174.356 177.111C173.676 177.632 172.928 178.304 172.293 179.149C171.795 179.821 171.047 180.059 170.298 180.233C170.253 180.233 170.23 180.254 170.208 180.254L167.805 180.926C167.646 180.991 167.397 181.056 167.057 181.143H166.966C164.949 181.685 163.271 181.468 161.639 180.471C159.78 179.344 159.168 177.675 159.78 175.638C160.46 173.579 161.73 172.322 163.679 171.823C163.906 171.758 164.11 171.628 164.246 171.541C164.314 171.476 164.472 171.368 164.518 171.368C164.699 171.455 164.835 171.671 164.994 171.866C165.085 171.996 165.175 172.083 165.243 172.17C166.218 173.319 167.488 173.882 169.006 173.882H169.074C170.457 173.882 171.795 173.795 172.815 173.687C174.039 173.622 174.628 173.925 175.059 174.901C175.376 175.659 175.127 176.44 174.334 177.09L174.356 177.111Z" fill="#F4D13D"/>
<path d="M157.309 181.057C157.309 181.057 157.263 181.1 157.241 181.122C156.674 181.902 154.86 182.53 153.523 182.812C153.5 182.812 153.455 182.834 153.387 182.834C152.911 183.029 152.344 183.116 151.505 183.116C148.83 183.506 148.173 183.159 148.15 183.159C148.105 183.094 148.014 183.029 147.924 183.007C147.788 182.986 147.606 182.921 147.266 182.791C145.793 182.184 144.342 181.577 142.891 180.97C142.256 180.732 142.098 180.471 142.098 180.406C142.234 178.282 144.433 175.551 146.722 175.508L148.241 175.465C149.17 175.421 150.055 175.4 150.961 175.378C151.505 175.356 152.117 175.4 152.616 175.638C153.002 175.812 153.319 175.855 153.614 175.725C153.954 175.595 154.203 175.335 154.407 174.88L154.475 174.685C154.543 174.489 154.634 174.273 154.724 174.078C154.747 174.013 154.77 174.013 154.792 174.034C154.77 174.533 154.883 174.923 155.178 175.183C155.427 175.465 155.835 175.595 156.357 175.573C155.971 177.134 156.515 178.542 156.991 179.8C157.082 180.06 157.173 180.363 157.218 180.666L157.263 180.927L157.286 181.013L157.309 181.057Z" fill="#FFE888"/>
<path d="M158.396 168.635C156.65 170.456 154.587 171.648 152.298 172.19C151.867 172.32 151.414 172.32 150.915 172.342C150.688 172.342 150.439 172.342 150.235 172.363C149.169 172.363 147.741 172.277 146.404 171.561C144.137 170.304 143.706 166.966 144.885 164.951C145.52 163.845 146.313 163.13 147.356 162.762C148.512 162.35 149.759 162.09 151.074 162.003H151.278C152.071 162.003 152.751 162.328 153.159 162.978C153.975 164.301 155.177 165.016 156.922 165.233C157.874 165.319 158.6 165.839 158.894 166.576C159.166 167.292 158.962 168.05 158.373 168.679L158.396 168.635Z" fill="#F4D13D"/>
<path d="M168.507 158.861C167.215 160.357 165.514 161.289 163.701 162.286L163.542 162.372C162.046 162.698 160.845 162.611 160.799 162.611C159.144 162.654 157.83 162.351 156.651 161.701C155.653 161.18 154.883 159.815 154.747 158.385C154.679 157.604 154.769 156.109 156.152 155.047C156.855 154.483 157.512 154.115 158.147 153.855L158.578 153.66C158.578 153.66 159.507 153.161 161.026 153.161C161.117 153.161 161.23 153.183 161.321 153.183C162.023 153.27 162.726 153.313 163.384 153.335C163.905 153.356 164.449 153.356 164.993 153.4C165.31 153.443 165.56 153.465 165.696 153.486C165.719 153.508 165.764 153.53 165.832 153.53C166.036 153.573 166.716 153.79 167.532 154.505C168.484 155.35 168.597 155.654 168.734 155.979C168.734 156.022 168.756 156.065 168.779 156.109C169.504 156.976 169.436 157.756 168.507 158.861Z" fill="#F4D13D"/>
<path d="M228.783 166.6C228.534 165.755 228.012 165.213 227.174 164.931C226.38 164.671 225.609 164.433 224.861 164.086C222.232 162.894 219.353 161.724 216.27 161.182C214.229 160.813 212.121 160.488 210.104 160.185C208.131 159.881 206.069 159.578 204.074 159.231C201.013 158.689 197.749 158.473 194.417 158.581C196.23 157.454 197.341 155.785 198.18 154.311C198.452 153.856 198.701 153.379 198.95 152.924C199.222 152.426 199.495 151.927 199.789 151.45C200.991 149.391 200.832 147.592 199.245 145.837C198.61 145.122 197.862 144.883 196.933 145.078C194.734 145.512 192.512 146.205 189.679 147.267C188.772 147.614 187.843 147.917 186.936 148.178C185.168 148.741 183.331 149.305 181.631 150.345C181.654 150.302 181.654 150.258 181.676 150.237L181.745 150.085C182.243 148.828 182.742 147.592 183.241 146.335C184.215 143.951 185.213 141.48 186.12 139.01C186.822 137.102 187.48 135.152 188.115 133.266C188.908 130.947 189.701 128.541 190.585 126.222C191.628 123.491 191.379 121.02 189.837 118.701C189.452 118.138 188.885 117.271 187.752 117.162C185.349 116.967 183.445 117.661 182.153 119.265L181.79 119.698C180.52 121.259 179.206 122.863 177.8 124.358C176.395 125.854 174.853 127.306 173.38 128.714C171.929 130.058 170.455 131.467 169.072 132.919C169.027 132.963 168.982 133.006 168.936 133.049C168.914 133.049 168.914 133.071 168.891 133.071C168.574 132.117 168.234 131.185 167.894 130.253C167.599 129.451 167.304 128.649 167.032 127.848C166.465 126.265 165.604 124.813 164.471 123.556C163.11 122.061 161.546 121.844 159.801 122.884C157.239 124.423 155.358 126.786 154.065 130.123C152.841 133.244 152.841 136.495 152.909 139.573C152.932 139.985 152.932 140.375 152.932 140.787C152.819 140.548 152.728 140.31 152.615 140.072C152.025 138.684 151.39 137.232 150.416 135.975C149.804 135.217 149.191 134.48 148.557 133.721C147.695 132.681 146.811 131.619 145.972 130.535C143.411 127.089 140.328 123.773 135.998 119.763C133.912 117.856 131.646 115.905 128.631 113.434C128.29 113.174 127.973 112.893 127.656 112.633C126.726 111.852 125.774 111.05 124.754 110.357C124.369 110.118 123.258 109.381 122.215 110.162C120.651 111.354 119.858 112.676 119.767 114.193C119.676 115.775 119.88 117.379 120.084 118.745C120.379 120.63 120.9 122.429 121.58 124.575C122.147 126.352 122.782 128.238 123.734 130.015C124.505 131.38 125.321 132.876 125.865 134.48C126.386 136.04 127.134 137.666 128.2 139.616C129.492 141.979 130.988 144.255 132.439 146.465C133.074 147.441 133.708 148.394 134.343 149.391C134.819 150.107 135.295 150.908 135.749 151.797C135.59 151.71 135.431 151.624 135.25 151.559C131.283 149.846 127.61 148.763 124.029 148.243C123.802 148.199 123.553 148.178 123.303 148.156L122.827 148.091C119.019 147.527 115.55 147.657 112.218 148.438C111.674 148.568 111.198 148.828 110.767 149.196C109.566 150.237 109.362 152.621 110.359 154.181C111.425 155.872 112.989 157.129 114.485 158.321L114.734 158.516C115.006 158.754 115.301 158.993 115.573 159.231C116.616 160.098 117.704 160.965 118.883 161.745C117.953 161.572 117.047 161.485 116.117 161.485C112.671 161.485 109.838 162.981 107.684 165.95C107.117 166.73 106.891 167.576 107.049 168.356C107.208 169.179 107.775 169.916 108.682 170.502C109.18 170.827 109.747 171.087 110.314 171.347C111.651 171.954 113.011 172.517 114.326 172.972C115.596 173.428 116.684 174.164 117.817 174.945C118.157 175.183 118.52 175.421 118.86 175.638C120.334 176.592 121.852 177.112 123.485 177.22C123.711 177.22 123.938 177.242 124.165 177.264C124.573 177.285 124.981 177.329 125.366 177.329C125.275 177.394 125.207 177.459 125.117 177.524C124.799 177.719 124.482 177.936 124.187 178.152C121.558 180.125 118.996 182.487 115.89 185.847C113.034 188.946 110.858 192.392 109.452 196.077C107.888 200.195 107.616 203.901 108.636 207.369C109.452 210.143 110.019 211.487 114.122 211.725C116.548 211.855 118.021 211.075 118.928 209.189C119.449 208.084 120.311 207.109 121.535 206.198C122.737 205.331 123.87 204.226 124.913 202.926C127.066 200.195 130.013 196.683 133.572 193.714C133.731 193.584 133.912 193.454 134.094 193.346C134.162 193.302 134.252 193.237 134.32 193.194L134.184 193.671C133.935 194.473 133.686 195.296 133.482 196.12C132.643 199.436 132.099 202.947 131.895 206.588C131.645 211.01 131.714 214.673 132.099 218.141C132.28 219.636 132.666 221.565 134.003 223.212L134.094 223.321C134.411 223.711 134.819 224.188 135.499 224.188H135.59C136.95 224.079 138.696 223.797 140.01 222.389C140.35 222.02 140.691 221.652 141.008 221.283C141.348 220.915 141.665 220.546 142.005 220.2L142.731 219.419C144.295 217.729 145.904 215.973 147.174 214.001C147.242 213.892 147.287 213.849 147.287 213.827C147.31 213.849 147.355 213.892 147.401 213.979C147.559 214.239 147.763 214.456 147.967 214.673L148.081 214.803C148.398 215.128 148.693 215.28 149.033 215.301C149.328 215.323 149.645 215.171 149.94 214.911C150.28 214.608 150.62 214.326 150.96 214.044C152.297 212.895 153.68 211.725 154.541 210.056C154.677 209.818 154.859 209.579 155.108 209.341C155.176 209.254 156.672 207.325 157.262 206.242L157.307 206.177C157.307 206.177 157.352 206.068 157.375 206.047C158.237 204.248 158.735 202.6 158.917 201.04C158.939 200.823 159.007 200.65 159.189 200.433C159.347 200.26 159.574 200 159.755 199.956C160.027 200.52 161.909 204.248 163.133 205.721C163.201 205.808 163.269 205.895 163.337 205.982L163.496 206.155C164.289 207.152 165.105 208.171 165.989 209.124C168.574 211.877 171.385 214.781 174.762 217.144C177.732 219.224 180.679 220.546 183.762 221.153C185.734 221.565 187.548 220.113 187.933 218.574C188.228 217.36 188.001 216.233 187.707 215.085C187.434 214.044 187.185 213.004 186.936 211.942C186.528 210.295 186.12 208.582 185.666 206.913C184.714 203.489 183.467 199.523 181.223 195.86L181.427 195.925C181.745 196.055 182.062 196.163 182.402 196.293L183.195 196.575C184.828 197.182 186.505 197.789 188.228 198.222C191.447 199.003 194.621 198.938 198.157 198.764C200.311 198.677 202.192 197.941 203.756 196.575C204.3 196.12 204.436 195.6 204.164 194.95C203.96 194.451 203.62 194.083 203.258 193.736L203.076 193.519C202.51 192.934 201.965 192.349 201.399 191.764C200.265 190.593 199.086 189.401 198.066 188.122C197.772 187.732 197.454 187.364 197.16 186.974C195.913 185.391 194.621 183.766 193.124 182.314C192.716 181.924 192.376 181.468 192.014 180.992L191.742 180.645C191.742 180.645 191.719 180.602 191.696 180.602H191.742C193.85 180.818 195.958 180.732 198.157 180.32C201.557 179.713 204.935 179.214 208.222 178.759C209.061 178.629 209.877 178.521 210.716 178.412C212.461 178.174 214.275 177.936 216.043 177.589C216.859 177.437 217.607 177.134 218.355 176.809C219.851 176.137 221.121 175.638 222.39 175.27C223.887 174.793 225.791 174.056 227.151 172.452C228.806 170.523 229.35 168.616 228.783 166.6ZM187.457 150.67L187.933 150.518C188.727 150.237 189.497 149.976 190.268 149.716C192.172 149.088 194.167 148.416 196.071 147.636C196.457 147.462 196.82 147.462 197.092 147.636C197.432 147.852 197.636 148.351 197.636 148.958C197.636 149.478 197.228 150.128 196.956 150.562C195.731 152.577 194.281 154.918 192.626 157.064C191.878 158.082 190.835 158.754 189.52 159.079C189.067 159.21 188.613 159.318 188.16 159.426C186.754 159.751 185.326 160.076 183.989 160.727C181.767 161.832 180.158 162.959 178.911 164.303L178.797 164.433L178.593 164.628C177.981 165.235 177.981 165.256 177.369 164.736C175.692 163.393 174.241 162.612 172.722 162.2C172.745 162.179 172.767 162.179 172.79 162.157C173.266 161.81 173.72 161.464 174.196 161.117L175.102 160.467C175.941 159.838 176.667 159.079 177.347 158.343C177.777 157.887 178.231 157.432 178.684 156.999C178.956 156.76 179.251 156.544 179.546 156.327C180.158 155.872 180.77 155.417 181.155 154.766C182.538 152.361 184.941 151.537 187.457 150.67ZM155.086 168.031C155.947 168.117 156.604 168.573 156.876 169.244C157.126 169.895 156.944 170.588 156.4 171.152C154.813 172.799 152.955 173.883 150.869 174.381C150.484 174.49 150.076 174.49 149.622 174.511C149.418 174.511 149.191 174.511 149.01 174.533C148.035 174.533 146.743 174.446 145.542 173.796C143.479 172.647 143.093 169.635 144.159 167.792C144.726 166.795 145.451 166.145 146.403 165.798C147.446 165.43 148.579 165.191 149.781 165.105H149.962C150.688 165.105 151.3 165.408 151.662 165.993C152.411 167.185 153.499 167.836 155.086 168.031ZM154.383 158.819C155.017 158.299 155.607 157.974 156.196 157.736L156.582 157.562C156.582 157.562 157.42 157.107 158.803 157.107C158.894 157.107 158.985 157.129 159.075 157.129C159.71 157.216 160.345 157.237 160.957 157.259C161.433 157.259 161.932 157.259 162.408 157.324C162.702 157.367 162.929 157.389 163.042 157.411C163.042 157.411 163.11 157.454 163.156 157.454C163.337 157.497 163.949 157.692 164.697 158.343C165.559 159.101 165.672 159.383 165.785 159.686C165.785 159.73 165.808 159.773 165.831 159.795C166.488 160.575 166.42 161.29 165.581 162.287C164.403 163.653 162.861 164.498 161.229 165.387L161.093 165.473C159.733 165.777 158.645 165.69 158.599 165.69C157.103 165.733 155.902 165.452 154.836 164.866C153.929 164.39 153.227 163.154 153.113 161.854C153.045 161.138 153.136 159.795 154.383 158.819ZM158.327 171.802C158.917 170.653 159.098 169.635 158.917 168.594C158.894 168.486 158.894 168.443 158.871 168.421H159.075C159.211 168.421 159.37 168.443 159.506 168.399C160.39 168.399 160.526 168.486 160.775 169.223C160.957 169.721 161.093 170.241 161.206 170.762L161.32 171.238C161.365 171.368 161.342 171.477 161.138 171.564L160.934 171.65C160.571 171.824 160.209 171.997 159.846 172.084C158.69 172.365 157.715 172.951 156.831 173.839L156.718 173.948C156.446 174.229 156.196 174.49 155.856 174.62C156.967 173.839 157.806 172.886 158.327 171.802ZM157.647 177.502C158.259 175.638 159.415 174.49 161.183 174.034C161.388 173.969 161.569 173.861 161.705 173.774C161.773 173.709 161.909 173.623 161.954 173.623C162.113 173.709 162.249 173.904 162.385 174.078C162.476 174.186 162.544 174.273 162.612 174.359C163.496 175.4 164.652 175.92 166.035 175.92H166.103C167.35 175.92 168.574 175.833 169.503 175.747C170.614 175.682 171.158 175.963 171.543 176.852C171.838 177.546 171.611 178.239 170.886 178.846C170.274 179.323 169.594 179.93 169.004 180.688C168.551 181.295 167.871 181.512 167.191 181.664C167.146 181.664 167.123 181.685 167.1 181.685L164.924 182.292C164.788 182.357 164.561 182.4 164.244 182.487H164.153C162.317 182.986 160.798 182.791 159.325 181.88C157.647 180.862 157.08 179.344 157.647 177.502ZM164.947 172.799C163.881 172.279 163.586 170.35 163.473 169.613V169.375C163.337 168.768 162.952 167.489 162.929 167.467C162.929 167.424 162.929 167.402 162.929 167.381C162.974 167.272 163.224 167.099 163.337 167.012L163.473 166.882C164.539 165.95 165.853 164.996 167.622 164.758C168.234 164.671 168.823 164.455 169.367 164.259C169.639 164.151 169.911 164.064 170.183 163.978C170.637 163.826 171.022 163.826 171.339 163.934C173.017 164.541 174.898 165.365 176.327 166.904C176.848 167.467 177.097 168.052 177.052 168.616C177.007 169.201 176.667 169.743 176.032 170.263C175.782 170.458 175.51 170.653 175.261 170.827C175.034 171 174.83 171.173 174.604 171.347C173.742 171.997 172.835 172.409 171.883 172.561C168.234 173.167 165.899 173.254 164.969 172.799H164.947ZM172.904 178.629C172.972 178.347 173.085 178.044 173.244 177.762C173.516 177.307 173.81 176.722 173.81 176.007C173.81 175.66 173.742 175.291 173.561 174.901C174.173 174.468 174.762 174.056 175.352 173.601C175.601 173.428 175.873 173.362 176.145 173.449C176.553 173.536 176.848 173.796 176.984 174.208C176.984 174.208 177.211 174.62 177.233 175.356C177.233 176.093 177.029 176.657 176.621 177.004C176.576 177.025 176.553 177.047 176.508 177.069C176.508 177.069 176.44 177.134 176.395 177.155C176.145 177.329 175.896 177.524 175.646 177.697C175.012 178.196 174.377 178.651 173.606 178.803L173.13 178.868C172.949 178.911 172.904 178.846 172.904 178.846C172.904 178.846 172.858 178.803 172.904 178.629ZM167.576 138.316C167.576 138.316 167.69 138.229 167.712 138.186L170.047 135.412L170.455 135.022L173.538 132.182C174.173 131.51 174.853 130.882 175.533 130.275C176.281 129.625 177.029 128.931 177.709 128.194C178.571 127.262 179.455 126.352 180.339 125.463C180.702 125.095 181.064 124.705 181.427 124.336C182.289 123.448 182.969 122.494 183.49 121.519C184.034 120.478 185.78 119.503 187.026 119.568C187.208 119.59 187.321 119.655 187.457 119.872C188.205 120.977 188.568 122.039 188.568 123.144C188.568 123.903 188.409 124.618 188.092 125.29C186.709 128.389 185.689 131.662 184.714 134.826C184.51 135.455 184.306 136.084 184.125 136.712C182.606 141.502 180.702 147.137 178.163 152.447C177.165 154.571 176.191 156.457 174.558 157.974C173.969 158.538 173.289 159.166 172.518 159.621C171.453 160.228 170.387 160.965 169.367 161.832C168.868 162.244 168.279 162.331 167.622 162.417C167.69 162.179 167.78 161.962 167.894 161.745C168.732 159.795 168.37 158.451 166.647 157.129C165.559 156.305 164.38 155.46 162.816 155.287C162.362 155.222 162.022 154.896 161.728 154.225C161.002 152.599 160.821 150.93 161.183 149.305C161.954 145.902 163.609 142.802 166.057 140.093C166.42 139.725 166.737 139.313 166.987 138.901C167.146 138.641 167.35 138.424 167.576 138.316ZM154.836 139.205C154.836 138.684 154.881 138.164 154.881 137.644C154.927 137.362 155.131 135.997 155.358 134.761L155.471 134.09C155.902 131.814 156.332 129.668 157.851 127.869C158.803 126.742 159.959 125.854 161.297 125.247C161.728 125.03 162.408 124.878 163.224 125.789C163.79 126.439 164.267 127.197 164.607 128.086C165.196 129.603 165.763 131.12 166.329 132.659L166.805 133.981C167.1 134.718 166.987 135.238 166.465 135.78C164.901 137.449 162.952 139.53 161.524 141.849C159.687 144.861 158.667 147.484 158.327 150.085C158.078 151.949 158.35 153.683 159.166 155.178C159.189 155.243 159.234 155.308 159.234 155.352H159.098C158.781 155.33 158.486 155.373 158.146 155.395C158.01 155.417 157.874 155.417 157.647 155.46C157.488 155.482 157.443 155.482 157.443 155.482C157.443 155.482 157.398 155.395 157.398 155.157C157.398 153.379 157.08 151.645 156.423 149.846C155.471 147.267 155.108 144.536 154.859 142.196C154.768 141.22 154.813 140.18 154.859 139.205H154.836ZM114.734 154.766C114.032 154.181 113.374 153.488 112.807 152.707C112.49 152.317 112.377 151.992 112.467 151.732C112.535 151.472 112.83 151.234 113.329 151.017C115.392 150.215 117.613 149.76 119.971 149.716C120.13 149.716 120.266 149.695 120.402 149.695C122.873 149.695 125.479 150.215 128.494 151.255C128.993 151.429 129.469 151.602 129.945 151.754C131.237 152.187 132.575 152.621 133.822 153.249C135.499 154.051 137.018 155.157 138.469 156.219C138.786 156.457 139.081 156.674 139.398 156.89C139.693 157.107 140.01 157.346 140.305 157.562C140.94 158.039 141.597 158.516 142.277 158.949C143.592 159.816 144.998 160.272 146.494 160.315H147.355C147.99 160.358 148.647 160.358 149.305 160.358C149.69 160.358 150.03 160.185 150.189 159.903C150.348 159.643 150.325 159.275 150.098 158.928C149.758 158.386 149.237 158.061 148.625 158.039C145.134 157.844 142.821 155.807 140.827 153.639C139.353 152.057 138.265 150.193 137.199 148.373L137.018 148.069C135.658 145.75 134.116 143.453 132.643 141.242C132.19 140.57 131.736 139.898 131.283 139.205C130.671 138.273 130.195 137.341 129.877 136.43C129.197 134.393 128.268 132.421 127.361 130.535C127.021 129.842 126.681 129.126 126.364 128.433C125.797 127.197 125.321 125.919 124.867 124.661L124.459 123.491C123.961 122.169 123.643 120.847 123.303 119.351C122.918 117.726 122.759 115.992 122.805 114.041C122.805 113.651 122.873 113.326 123.009 113.023C123.145 112.698 123.258 112.633 123.326 112.611C123.371 112.611 123.485 112.611 123.779 112.784C124.595 113.283 125.389 113.911 126.137 114.496C126.409 114.713 126.681 114.93 126.93 115.147C131.736 118.896 135.25 121.952 138.288 125.117C140.872 127.761 143.434 130.73 146.426 134.436C149.713 138.554 151.572 143.193 152.977 147.202C153.159 147.722 153.34 148.243 153.544 148.741C154.043 150.041 154.564 151.385 154.768 152.772C154.859 153.466 154.949 154.203 154.904 154.961C154.836 156.154 154.269 157.02 153.249 157.519C150.914 158.689 150.778 160.748 150.892 162.179V162.309C150.914 162.526 150.937 162.742 150.914 162.786C150.869 162.829 150.574 162.894 150.348 162.916C147.809 163.349 145.814 164.021 144.091 165.061C143.683 165.278 143.411 165.538 143.184 165.842C142.708 166.535 141.983 166.904 140.985 166.947C139.149 167.034 137.494 166.882 135.953 166.449C135.295 166.253 134.661 166.08 134.003 165.907C132.643 165.538 131.237 165.148 129.877 164.715C127.52 163.934 125.185 162.656 122.691 160.813L121.286 159.795C119.109 158.191 116.843 156.522 114.734 154.766ZM123.689 174.641C121.716 174.598 120.243 173.471 119.019 172.431C119.019 172.431 118.973 172.387 118.951 172.387C118.293 171.737 116.48 170.978 115.029 170.415C115.006 170.415 114.961 170.393 114.938 170.393C114.349 170.263 113.782 170.09 113.215 169.83C112.399 169.44 111.493 169.071 110.45 168.703C110.132 168.594 109.928 168.464 109.883 168.334C109.815 168.204 109.883 167.966 110.042 167.662C110.654 166.492 111.674 165.582 113.351 164.715C114.349 164.216 115.482 163.934 116.48 163.934H116.752C117.931 163.934 118.724 164.086 119.404 164.476C120.742 165.213 122.215 165.517 123.643 165.777L124.074 165.863C125.139 166.08 126.16 166.514 127.134 166.925C127.429 167.055 127.746 167.185 128.041 167.294C131.736 168.811 135.726 169.656 139.897 169.83H140.101C140.101 169.83 140.26 169.83 140.305 169.851C140.487 169.895 140.668 169.873 140.849 169.851C141.167 169.83 141.189 169.851 141.235 169.981C141.461 170.545 141.235 171.303 140.827 171.629C140.373 171.975 139.806 172.04 139.194 172.105H139.013C137.766 172.279 136.723 172.539 135.794 172.886C134.524 173.384 133.255 173.861 131.986 174.338C130.988 174.706 130.013 175.096 129.016 175.465C128.789 175.552 128.676 175.573 128.562 175.53C126.976 174.836 125.275 174.685 123.689 174.641ZM132.507 190.875C129.084 193.627 126.182 196.879 123.779 199.674C122.26 201.495 120.56 203.164 118.951 204.681C117.704 205.851 116.729 207.022 116.004 208.236C115.573 208.929 115.029 209.233 114.258 209.146C112.15 208.951 111.674 208.734 111.221 206.827C110.949 205.613 110.88 204.378 110.858 202.904C110.767 200.953 111.493 198.786 112.15 197.117C113.873 192.609 116.888 188.447 121.308 184.351C125.026 180.927 128.744 178.456 132.688 176.744C135.318 175.617 137.585 175.031 139.806 174.901C140.033 174.901 140.305 174.901 140.555 174.771C140.781 174.663 140.985 174.62 141.212 174.62C141.643 174.62 142.073 174.836 142.64 175.335C142.935 175.595 143.275 175.877 143.275 175.985C143.275 176.093 142.912 176.44 142.64 176.679C141.643 177.611 140.804 178.651 140.169 179.756C138.854 182.054 139.081 183.744 140.94 185.586C141.053 185.695 141.076 185.738 141.099 185.76C141.076 185.76 141.053 185.803 140.94 185.89C140.645 186.085 140.305 186.258 139.874 186.41C136.973 187.429 134.547 189.249 132.507 190.875ZM144.635 213.047C144.272 213.459 143.932 213.914 143.615 214.348C143.456 214.564 143.298 214.781 143.116 214.998C141.507 217.057 139.829 218.921 138.106 220.59C137.88 220.806 137.608 221.023 137.267 221.262C136.633 221.673 136.429 221.652 135.975 221.066C135.386 220.33 135.023 219.441 134.865 218.357C134.661 217.1 134.615 215.8 134.547 214.543C134.502 213.632 134.457 212.722 134.366 211.812C134.207 209.666 134.275 207.455 134.57 205.223C134.661 204.464 134.751 203.706 134.842 202.926C135.091 200.606 135.363 198.201 136.043 195.903C136.723 193.649 137.562 191.959 138.741 190.593C139.285 189.921 139.874 189.509 140.555 189.293C141.847 188.903 142.821 188.122 143.728 187.364C144.114 187.017 144.454 186.865 144.816 186.865C144.93 186.865 145.043 186.887 145.179 186.93C145.542 187.017 145.587 187.169 145.542 187.407C145.519 187.537 145.496 187.667 145.474 187.797C145.451 188.014 145.406 188.231 145.338 188.447C144.794 190.268 144.59 192.11 144.454 194.321C144.318 196.748 144.25 198.742 144.25 200.606C144.272 203.467 144.68 206.177 145.451 208.669C146.018 210.446 145.768 211.79 144.635 213.047ZM146.312 184.026C144.975 183.484 143.66 182.921 142.345 182.379C141.779 182.162 141.62 181.924 141.62 181.859C141.733 179.93 143.728 177.459 145.814 177.415L147.197 177.372C148.035 177.329 148.851 177.307 149.668 177.285C150.166 177.264 150.71 177.307 151.164 177.524C151.504 177.676 151.798 177.719 152.07 177.611C152.388 177.502 152.615 177.264 152.796 176.852L152.864 176.679C152.932 176.505 153 176.31 153.091 176.137C153.113 176.072 153.136 176.072 153.159 176.093C153.159 176.549 153.249 176.895 153.499 177.134C153.725 177.394 154.088 177.502 154.564 177.481C154.224 178.889 154.7 180.168 155.131 181.317C155.221 181.555 155.29 181.837 155.335 182.097L155.38 182.335L155.403 182.422C155.38 182.444 155.358 182.465 155.335 182.487C154.813 183.202 153.181 183.766 151.957 184.026C151.934 184.026 151.889 184.048 151.844 184.048C151.413 184.221 150.892 184.308 150.144 184.308C147.718 184.655 147.129 184.351 147.106 184.351C147.061 184.286 146.993 184.243 146.902 184.221C146.789 184.199 146.607 184.134 146.312 184.026ZM156.151 202.145C154.723 205.635 152.683 208.734 150.053 211.357C150.03 211.357 149.985 211.422 149.985 211.422C149.894 211.487 149.826 211.573 149.736 211.638C149.645 211.747 149.441 211.92 149.396 211.942C149.282 211.877 149.214 211.79 149.169 211.682C149.169 211.617 149.169 211.638 149.123 211.595C148.693 210.728 148.149 208.474 147.967 207.78C147.242 204.876 146.902 201.929 146.993 199.024C147.015 198.309 147.015 197.594 147.015 196.879C147.015 195.708 147.015 194.516 147.106 193.346C147.265 191.373 147.809 189.444 148.285 187.992C148.511 187.32 148.783 187.169 149.781 187.169H150.098C150.574 187.212 151.096 187.234 151.164 187.299C151.209 187.364 151.186 187.689 151.186 187.971C151.164 188.122 151.164 188.296 151.164 188.469C151.073 191.612 152.32 194.364 153.635 196.944C153.657 197.009 153.703 197.095 153.748 197.16C153.861 197.312 153.952 197.464 153.997 197.637C154.224 198.374 154.768 198.829 155.199 199.133C156.4 199.978 156.672 200.845 156.151 202.145ZM159.937 193.931L159.733 194.364C159.257 195.405 158.758 196.467 158.01 197.377C157.806 197.637 157.556 197.767 157.33 197.767H157.284C157.058 197.745 156.854 197.594 156.718 197.334C155.471 194.971 154.179 192.522 153.635 189.813C153.249 187.797 153.68 186.41 155.063 185.348C155.312 185.153 155.539 184.958 155.766 184.763C155.97 184.568 156.151 184.394 156.378 184.221C156.559 184.091 156.718 184.026 156.899 184.026C157.058 184.026 157.239 184.091 157.398 184.243C158.01 184.785 158.69 185.11 159.574 185.261C160.435 185.413 160.934 185.977 161.07 186.952C161.116 187.342 161.161 187.776 161.183 188.187C161.206 188.404 161.229 188.642 161.229 188.838C161.32 190.745 160.639 192.479 159.937 193.931ZM184.782 213.632L184.873 214.023C185.168 215.236 185.44 216.363 185.576 217.469C185.576 217.989 185.417 218.379 185.122 218.596C184.85 218.769 184.487 218.791 184.057 218.661C182.765 218.249 181.404 217.794 179.727 217.209C178.911 216.927 178.163 216.472 177.256 215.735C176.44 215.041 175.578 214.391 174.74 213.741C173.062 212.462 171.339 211.118 169.889 209.536C167.236 206.588 164.901 203.879 163.088 200.715C162.634 199.891 162.362 199.003 162.068 198.071C161.909 197.485 161.728 196.879 161.478 196.315C161.41 196.077 161.546 195.795 161.637 195.665C163.201 193.194 163.79 190.355 163.541 186.497C163.473 185.456 163.609 185.283 164.72 185.045C165.128 184.936 165.559 184.871 165.989 184.785C166.307 184.741 166.647 184.676 166.964 184.611C167.735 184.459 168.392 184.091 169.05 183.723L169.322 183.593C169.322 183.593 169.412 183.527 169.435 183.527C169.435 183.527 169.435 183.542 169.435 183.571C169.934 185.565 171.158 187.169 172.359 188.708L172.541 188.968C173.198 189.791 173.81 190.571 174.309 191.438C174.49 191.742 174.694 192.045 175.034 192.24C177.007 193.367 177.959 195.21 178.956 197.139C181.291 201.668 183.082 206.762 184.76 213.632H184.782ZM192.104 184.611C192.104 184.611 192.104 184.633 192.15 184.655C193.328 185.955 194.417 187.364 195.437 188.751L196.094 189.596C197.681 191.72 199.109 193.367 200.537 194.776C200.832 195.058 200.923 195.188 200.923 195.188C200.877 195.275 200.469 195.448 200.333 195.513C198.996 196.163 197.522 196.315 195.754 196.337H195.618C190.064 196.337 185.236 195.21 180.838 192.934C179.183 192.067 177.301 191.092 175.782 189.683C175.261 189.184 174.921 188.577 174.536 187.949C174.309 187.602 174.105 187.234 173.833 186.887C173.402 186.302 173.017 185.695 172.609 185.088C172.382 184.741 172.155 184.416 171.929 184.069C171.634 183.658 171.43 183.159 171.317 182.596C171.181 181.837 171.43 181.425 172.155 181.187C172.541 181.057 172.926 180.992 173.266 180.992C174.604 180.927 175.873 180.471 177.233 179.583C177.301 179.54 177.369 179.496 177.415 179.453L177.664 179.214C177.777 179.128 178.208 178.911 179.614 178.911C179.999 178.911 180.475 178.933 181.042 178.976H181.132C183.558 178.998 185.553 179.214 187.412 180.125C187.911 180.363 188.364 180.688 188.817 181.013C189.044 181.187 189.293 181.36 189.565 181.555L189.679 181.685C191.084 183.376 191.9 184.373 192.104 184.611ZM225.768 169.873C224.997 171.022 223.932 171.91 222.594 172.496C218.287 174.338 214.434 175.595 210.784 176.332C208.948 176.7 207.043 176.917 205.139 176.96C202.555 177.047 200.084 177.589 197.794 178.174C195.799 178.673 193.805 178.477 192.104 178.239C190.223 178.001 188.364 177.524 186.55 177.09C185.508 176.83 184.487 176.57 183.445 176.353C183.014 176.267 182.561 176.18 182.13 176.093C181.631 175.985 181.11 175.877 180.611 175.768C179.954 175.617 179.636 175.27 179.614 174.685C179.591 173.688 179.41 172.279 178.004 171.303C177.981 171.282 177.913 171.238 177.913 171.195C177.891 171.152 177.936 171.065 178.004 171C178.866 170.025 179.024 168.811 179.07 167.771C179.07 167.077 179.364 166.6 179.976 166.188C180.407 165.907 180.815 165.603 181.246 165.3C181.835 164.845 182.447 164.39 183.059 164.021C185.53 162.569 188.319 161.897 190.744 161.42C192.127 161.138 193.51 161.008 194.87 160.987C196.298 161.138 197.749 161.203 199.154 161.247C201.875 161.355 204.686 161.464 207.338 162.287C208.744 162.699 210.172 162.786 211.555 162.851C212.189 162.894 212.847 162.916 213.481 162.981C214.819 163.132 216.179 163.414 217.471 163.674C217.993 163.783 218.514 163.891 219.013 163.978C219.194 164.021 219.375 164.086 219.511 164.194C221.076 165.278 222.776 165.842 224.567 166.405C225.451 166.687 226.04 167.12 226.267 167.706C226.494 168.312 226.312 169.049 225.768 169.873Z" fill="#282828"/>
<path d="M197.521 148.894C197.498 149.414 197.136 150.064 196.863 150.498C195.617 152.513 194.166 154.854 192.511 157C191.763 158.018 190.72 158.69 189.405 159.015C188.952 159.145 188.499 159.254 188.045 159.362C186.662 159.687 185.212 160.012 183.874 160.663C181.675 161.768 180.043 162.895 178.796 164.239L178.683 164.369C178.683 164.369 178.569 164.499 178.479 164.564C177.867 165.171 177.867 165.192 177.255 164.672C175.577 163.329 174.126 162.548 172.607 162.136C172.607 162.115 172.653 162.115 172.675 162.093C173.151 161.746 173.628 161.4 174.081 161.053L174.988 160.403C175.849 159.774 176.552 159.015 177.255 158.279C177.663 157.823 178.116 157.368 178.569 156.935C178.841 156.696 179.136 156.48 179.431 156.263C180.043 155.808 180.678 155.353 181.04 154.702C182.423 152.297 184.826 151.473 187.365 150.606L187.841 150.454C188.612 150.173 189.383 149.912 190.153 149.652C192.08 149.024 194.053 148.352 195.957 147.572C196.342 147.398 196.705 147.398 196.977 147.572C197.317 147.788 197.521 148.287 197.521 148.894Z" fill="#EFEDE4"/>
<path d="M225.676 169.803C224.883 170.952 223.817 171.841 222.48 172.426C218.195 174.268 214.319 175.525 210.669 176.262C208.833 176.631 206.929 176.847 205.025 176.891C202.44 176.978 199.969 177.519 197.68 178.105C195.685 178.603 193.69 178.408 191.99 178.17C190.108 177.931 188.249 177.454 186.436 177.021C185.393 176.761 184.373 176.501 183.33 176.284C182.899 176.197 182.469 176.111 182.015 176.024C181.517 175.915 180.995 175.807 180.496 175.699C179.839 175.547 179.522 175.2 179.499 174.615C179.476 173.618 179.295 172.209 177.89 171.234C177.89 171.212 177.799 171.169 177.799 171.126C177.799 171.082 177.822 170.996 177.89 170.931C178.774 169.955 178.91 168.741 178.955 167.701C178.978 167.008 179.272 166.531 179.862 166.119C180.292 165.837 180.723 165.534 181.131 165.23C181.721 164.775 182.333 164.32 182.967 163.952C185.416 162.499 188.227 161.828 190.63 161.351C192.012 161.069 193.418 160.939 194.755 160.917C196.184 161.069 197.634 161.134 199.04 161.177C201.76 161.286 204.571 161.394 207.224 162.218C208.652 162.629 210.057 162.716 211.44 162.781C212.075 162.825 212.732 162.846 213.367 162.911C214.704 163.063 216.065 163.345 217.357 163.605C217.878 163.713 218.399 163.822 218.898 163.908C219.08 163.952 219.261 164.017 219.397 164.125C220.961 165.209 222.684 165.772 224.452 166.336C225.336 166.617 225.926 167.051 226.152 167.636C226.379 168.243 226.22 168.98 225.676 169.803Z" fill="white"/>
<path d="M200.833 195.124C200.833 195.124 200.357 195.384 200.221 195.449C198.883 196.099 197.41 196.251 195.642 196.273H195.506C189.952 196.273 185.123 195.145 180.725 192.87C179.071 192.003 177.189 191.027 175.67 189.619C175.149 189.12 174.809 188.513 174.423 187.885C174.219 187.538 173.993 187.17 173.743 186.823C173.313 186.238 172.905 185.631 172.497 185.024C172.27 184.677 172.043 184.352 171.816 184.005C171.522 183.593 171.318 183.095 171.227 182.531C171.091 181.773 171.34 181.361 172.043 181.123C172.429 180.993 172.814 180.927 173.154 180.927C174.491 180.862 175.761 180.407 177.121 179.519C177.212 179.475 177.257 179.432 177.302 179.389L177.37 179.324L177.552 179.15C177.552 179.15 178.096 178.847 179.501 178.847C179.887 178.847 180.363 178.868 180.929 178.912H181.02C183.446 178.933 185.441 179.15 187.322 180.061C187.821 180.299 188.252 180.624 188.705 180.949C188.954 181.123 189.181 181.296 189.453 181.491L189.566 181.621C190.972 183.312 191.788 184.309 191.992 184.547C192.015 184.547 192.015 184.569 192.037 184.59C193.216 185.891 194.304 187.3 195.324 188.687L195.982 189.532C197.569 191.656 198.997 193.303 200.425 194.712C200.72 194.994 200.81 195.124 200.833 195.124Z" fill="#F4F4F4"/>
<path d="M185.46 217.403C185.46 217.923 185.301 218.313 185.007 218.53C184.735 218.703 184.372 218.725 183.941 218.595C182.649 218.183 181.289 217.728 179.611 217.143C178.795 216.861 178.047 216.406 177.14 215.669C176.324 214.976 175.463 214.325 174.647 213.675C172.947 212.396 171.224 211.053 169.773 209.47C167.121 206.523 164.786 203.814 162.972 200.649C162.519 199.826 162.247 198.937 161.975 198.005C161.793 197.42 161.612 196.813 161.385 196.249C161.295 196.011 161.431 195.729 161.521 195.599C163.108 193.128 163.698 190.289 163.426 186.431C163.358 185.391 163.494 185.217 164.604 184.979C165.012 184.871 165.443 184.806 165.874 184.719C166.191 184.676 166.531 184.611 166.849 184.546C167.619 184.394 168.299 184.025 168.934 183.657L169.206 183.527C169.206 183.527 169.297 183.462 169.32 183.462C169.32 183.484 169.342 183.484 169.342 183.505C169.841 185.499 171.065 187.103 172.267 188.642L172.448 188.902C173.105 189.726 173.717 190.506 174.216 191.373C174.397 191.676 174.602 191.98 174.942 192.175C176.914 193.302 177.866 195.144 178.863 197.073C181.221 201.603 182.989 206.696 184.667 213.567L184.757 213.957C185.052 215.171 185.324 216.298 185.46 217.403Z" fill="#F4F4F4"/>
<path d="M161.138 188.77C161.206 190.677 160.526 192.411 159.823 193.863L159.619 194.297C159.143 195.337 158.644 196.399 157.896 197.309C157.715 197.569 157.466 197.699 157.216 197.699H157.171C156.944 197.678 156.74 197.526 156.604 197.266C155.357 194.904 154.065 192.454 153.544 189.745C153.136 187.729 153.566 186.342 154.949 185.28C155.199 185.085 155.425 184.89 155.652 184.695C155.856 184.5 156.06 184.327 156.264 184.153C156.445 184.023 156.627 183.958 156.785 183.958C156.967 183.958 157.126 184.023 157.284 184.175C157.896 184.717 158.599 185.042 159.46 185.194C160.345 185.345 160.821 185.909 160.957 186.884C161.025 187.274 161.047 187.708 161.07 188.12C161.093 188.336 161.115 188.575 161.138 188.77Z" fill="#EFEDE4"/>
<path d="M156.038 202.079C154.632 205.569 152.57 208.668 149.94 211.291C149.917 211.291 149.872 211.356 149.872 211.356C149.781 211.421 149.713 211.507 149.645 211.572C149.532 211.681 149.351 211.854 149.305 211.876C149.169 211.811 149.101 211.724 149.078 211.616C149.056 211.551 149.079 211.572 149.033 211.529C148.58 210.662 148.036 208.408 147.877 207.715C147.129 204.81 146.789 201.863 146.88 198.958C146.902 198.243 146.902 197.528 146.902 196.813C146.902 195.642 146.902 194.45 146.993 193.28C147.152 191.307 147.718 189.379 148.172 187.926C148.398 187.255 148.67 187.103 149.668 187.103H149.985C150.484 187.146 150.983 187.168 151.051 187.233C151.096 187.298 151.073 187.623 151.073 187.905C151.051 188.056 151.051 188.23 151.051 188.403C150.96 191.546 152.207 194.298 153.522 196.878C153.567 196.943 153.612 197.029 153.658 197.094C153.748 197.246 153.839 197.398 153.884 197.571C154.111 198.308 154.655 198.763 155.109 199.067C156.31 199.912 156.582 200.779 156.038 202.079Z" fill="white"/>
<path d="M144.522 212.981C144.159 213.393 143.819 213.848 143.502 214.281C143.343 214.498 143.185 214.715 143.026 214.932C141.416 216.991 139.716 218.855 137.993 220.523C137.767 220.74 137.495 220.957 137.155 221.195C136.543 221.607 136.316 221.585 135.862 221C135.273 220.263 134.91 219.375 134.752 218.291C134.57 217.034 134.502 215.734 134.434 214.476C134.389 213.566 134.344 212.656 134.253 211.746C134.117 209.6 134.162 207.389 134.457 205.157C134.548 204.398 134.638 203.64 134.729 202.859C134.978 200.54 135.25 198.134 135.93 195.837C136.611 193.583 137.449 191.892 138.628 190.527C139.172 189.855 139.762 189.443 140.442 189.227C141.734 188.836 142.709 188.056 143.615 187.298C144.001 186.951 144.341 186.799 144.703 186.799C144.817 186.799 144.953 186.821 145.066 186.864C145.452 186.951 145.474 187.103 145.452 187.341C145.406 187.471 145.384 187.601 145.361 187.731C145.338 187.948 145.293 188.165 145.225 188.381C144.681 190.202 144.477 192.044 144.341 194.255C144.205 196.682 144.137 198.676 144.137 200.54C144.137 203.401 144.567 206.11 145.338 208.603C145.905 210.38 145.656 211.724 144.522 212.981Z" fill="#F4F4F4"/>
<path d="M140.053 179.691C138.739 181.988 138.965 183.678 140.847 185.521C140.938 185.629 140.96 185.672 140.983 185.694C140.96 185.694 140.938 185.737 140.824 185.824C140.529 186.019 140.189 186.193 139.759 186.344C136.857 187.363 134.431 189.184 132.391 190.809C128.968 193.562 126.066 196.813 123.686 199.609C122.145 201.429 120.445 203.098 118.835 204.615C117.588 205.786 116.636 206.956 115.888 208.17C115.457 208.863 114.913 209.167 114.142 209.08C112.034 208.885 111.581 208.668 111.105 206.761C110.833 205.547 110.765 204.312 110.742 202.838C110.651 200.887 111.377 198.72 112.034 197.051C113.78 192.543 116.772 188.382 121.193 184.285C124.91 180.861 128.628 178.39 132.573 176.678C135.202 175.551 137.469 174.966 139.691 174.836C139.94 174.836 140.189 174.836 140.439 174.706C140.665 174.597 140.87 174.554 141.096 174.554C141.527 174.554 141.958 174.771 142.524 175.269C142.819 175.529 143.159 175.811 143.182 175.919C143.182 176.006 142.796 176.374 142.547 176.613C141.527 177.545 140.688 178.585 140.053 179.691Z" fill="white"/>
<path d="M140.714 171.563C140.26 171.91 139.694 171.975 139.082 172.04H138.9C137.654 172.213 136.611 172.474 135.681 172.82C134.412 173.319 133.142 173.796 131.873 174.272C130.898 174.641 129.901 175.031 128.903 175.399C128.699 175.486 128.563 175.508 128.45 175.464C126.886 174.771 125.185 174.619 123.576 174.576C121.604 174.533 120.13 173.405 118.929 172.365C118.906 172.365 118.861 172.322 118.838 172.322C118.181 171.672 116.367 170.913 114.916 170.349C114.894 170.349 114.848 170.328 114.826 170.328C114.259 170.198 113.669 170.024 113.125 169.764C112.287 169.374 111.38 169.006 110.337 168.637C110.02 168.529 109.816 168.399 109.77 168.269C109.702 168.139 109.77 167.9 109.929 167.597C110.541 166.427 111.561 165.516 113.239 164.649C114.236 164.151 115.37 163.869 116.367 163.869H116.639C117.841 163.869 118.611 164.021 119.291 164.411C120.629 165.148 122.102 165.451 123.531 165.711L123.961 165.798C125.027 166.015 126.047 166.448 127.022 166.86C127.316 166.99 127.634 167.12 127.928 167.228C131.624 168.746 135.613 169.591 139.784 169.764H139.988C139.988 169.764 140.147 169.764 140.192 169.786C140.374 169.829 140.578 169.808 140.737 169.786C141.054 169.764 141.077 169.786 141.145 169.916C141.349 170.48 141.145 171.238 140.714 171.563Z" fill="#EFEDE4"/>
<path d="M188.456 123.077C188.456 123.836 188.298 124.551 188.003 125.223C186.598 128.322 185.577 131.595 184.603 134.759C184.399 135.388 184.217 136.016 184.013 136.645C182.494 141.435 180.59 147.07 178.074 152.38C177.054 154.504 176.079 156.39 174.447 157.907C173.857 158.47 173.177 159.099 172.407 159.554C171.341 160.161 170.276 160.898 169.256 161.765C168.757 162.177 168.167 162.263 167.51 162.35C167.578 162.112 167.691 161.895 167.782 161.678C168.621 159.728 168.281 158.384 166.535 157.062C165.47 156.238 164.268 155.393 162.704 155.219C162.251 155.154 161.911 154.829 161.616 154.157C160.891 152.532 160.709 150.863 161.072 149.237C161.843 145.835 163.498 142.735 165.969 140.026C166.331 139.658 166.626 139.246 166.875 138.834C167.057 138.574 167.261 138.357 167.487 138.249C167.533 138.205 167.578 138.162 167.601 138.119L169.958 135.345C170.072 135.214 170.208 135.084 170.344 134.954L173.427 132.115C174.061 131.443 174.742 130.815 175.422 130.208C176.17 129.558 176.918 128.864 177.598 128.127C178.459 127.195 179.343 126.285 180.227 125.396C180.59 125.028 180.953 124.638 181.316 124.269C182.177 123.381 182.857 122.427 183.378 121.452C183.923 120.411 185.668 119.436 186.938 119.501C187.119 119.523 187.21 119.588 187.346 119.804C188.094 120.91 188.456 121.972 188.456 123.077Z" fill="white"/>
<path d="M166.349 135.714C164.785 137.383 162.836 139.464 161.408 141.783C159.571 144.796 158.551 147.418 158.211 150.019C157.962 151.883 158.234 153.617 159.05 155.112C159.095 155.177 159.118 155.243 159.118 155.286H158.982C158.665 155.264 158.37 155.308 158.053 155.329C157.894 155.351 157.758 155.351 157.531 155.394C157.395 155.416 157.327 155.416 157.327 155.416C157.327 155.416 157.282 155.329 157.282 155.091C157.282 153.314 156.964 151.58 156.307 149.781C155.355 147.202 154.992 144.471 154.765 142.13C154.675 141.155 154.697 140.114 154.743 139.139C154.743 138.619 154.765 138.099 154.765 137.578C154.811 137.297 155.015 135.931 155.242 134.696L155.355 134.024C155.808 131.748 156.216 129.602 157.735 127.804C158.687 126.676 159.843 125.788 161.181 125.181C161.612 124.964 162.292 124.813 163.108 125.723C163.674 126.373 164.151 127.132 164.491 128.02C165.08 129.537 165.647 131.055 166.213 132.593L166.689 133.916C166.984 134.652 166.894 135.173 166.349 135.714Z" fill="#F4F4F4"/>
<path d="M154.793 154.897C154.725 156.089 154.158 156.956 153.138 157.454C150.803 158.625 150.667 160.684 150.781 162.114V162.244C150.803 162.461 150.826 162.678 150.826 162.721C150.758 162.764 150.463 162.829 150.237 162.851C147.698 163.285 145.725 163.956 143.98 164.997C143.595 165.214 143.3 165.474 143.073 165.777C142.597 166.471 141.872 166.839 140.874 166.882C139.038 166.969 137.383 166.817 135.842 166.384C135.184 166.189 134.55 166.015 133.892 165.842C132.532 165.474 131.127 165.084 129.766 164.65C127.431 163.87 125.074 162.591 122.58 160.749L121.175 159.73C118.998 158.126 116.732 156.457 114.623 154.702C113.921 154.117 113.286 153.423 112.696 152.643C112.379 152.253 112.266 151.928 112.356 151.667C112.424 151.407 112.719 151.169 113.218 150.952C115.281 150.15 117.502 149.695 119.86 149.652C120.019 149.652 120.155 149.63 120.313 149.63C122.784 149.63 125.369 150.15 128.406 151.191C128.882 151.364 129.358 151.537 129.834 151.689C131.127 152.123 132.464 152.556 133.711 153.185C135.388 153.987 136.907 155.092 138.358 156.154C138.675 156.392 138.97 156.609 139.287 156.826C139.582 157.043 139.899 157.281 140.217 157.498C140.829 157.975 141.486 158.451 142.166 158.885C143.481 159.752 144.909 160.207 146.406 160.25H147.244C147.879 160.294 148.536 160.294 149.194 160.294C149.602 160.294 149.919 160.12 150.078 159.838C150.237 159.578 150.214 159.21 149.987 158.863C149.67 158.321 149.126 157.996 148.514 157.975C145.023 157.779 142.71 155.742 140.716 153.575C139.265 151.993 138.154 150.129 137.111 148.308L136.907 148.005C135.547 145.685 134.005 143.388 132.532 141.177C132.079 140.505 131.625 139.834 131.172 139.14C130.56 138.208 130.084 137.276 129.766 136.366C129.086 134.328 128.157 132.356 127.25 130.47C126.91 129.777 126.57 129.062 126.253 128.368C125.686 127.133 125.21 125.854 124.756 124.597L124.348 123.427C123.85 122.104 123.532 120.782 123.192 119.287C122.83 117.661 122.648 115.927 122.694 113.977C122.716 113.587 122.784 113.261 122.898 112.958C123.056 112.633 123.147 112.568 123.215 112.546C123.26 112.546 123.374 112.546 123.668 112.72C124.507 113.218 125.278 113.847 126.026 114.432C126.298 114.649 126.57 114.865 126.842 115.082C131.625 118.832 135.139 121.888 138.177 125.052C140.761 127.696 143.345 130.666 146.315 134.372C149.602 138.49 151.461 143.128 152.866 147.138C153.048 147.658 153.229 148.178 153.433 148.676C153.932 149.977 154.453 151.321 154.657 152.708C154.748 153.401 154.839 154.138 154.793 154.897Z" fill="white"/>
</svg>
