<svg width="20" height="20" viewBox="0 0 20 20" fill="none" xmlns="http://www.w3.org/2000/svg">
<path fill-rule="evenodd" clip-rule="evenodd" d="M12.2965 2.18438C13.8204 0.660546 16.291 0.660546 17.8148 2.18438C19.3387 3.70821 19.3387 6.17883 17.8148 7.70266L9.91041 15.6071C9.45881 16.0587 9.19297 16.3246 8.89722 16.5552C8.54864 16.8271 8.17147 17.0602 7.7724 17.2504C7.43382 17.4118 7.07713 17.5307 6.47121 17.7326L3.69528 18.6579L3.02688 18.8807C2.48474 19.0614 1.88703 18.9203 1.48295 18.5163C1.07887 18.1122 0.937767 17.5145 1.11848 16.9723L2.26658 13.528C2.46854 12.9221 2.58742 12.5654 2.74878 12.2268C2.93897 11.8277 3.17207 11.4506 3.44396 11.102C3.67464 10.8062 3.94051 10.5404 4.39215 10.0888L12.2965 2.18438ZM3.66644 17.3499L6.03437 16.5606C6.69364 16.3409 6.97374 16.2463 7.23463 16.122C7.55174 15.9709 7.85145 15.7857 8.12845 15.5696C8.35633 15.3919 8.56612 15.1836 9.05751 14.6922L15.3654 8.38431C14.7082 8.15251 13.8615 7.72286 13.0689 6.93026C12.2763 6.13766 11.8467 5.291 11.6149 4.63379L5.30699 10.9417C4.81561 11.4331 4.60734 11.6429 4.4296 11.8708C4.21355 12.1477 4.02832 12.4475 3.87719 12.7646C3.75286 13.0255 3.65835 13.3056 3.43859 13.9648L2.64928 16.3328L3.66644 17.3499ZM12.6288 3.61987C12.6573 3.76567 12.7055 3.96387 12.7859 4.19557C12.9668 4.71719 13.3087 5.40224 13.9528 6.04638C14.597 6.69051 15.282 7.03236 15.8036 7.21334C16.0353 7.29372 16.2335 7.34189 16.3793 7.37039L16.9309 6.81877C17.9666 5.7831 17.9666 4.10394 16.9309 3.06826C15.8953 2.03258 14.2161 2.03258 13.1804 3.06826L12.6288 3.61987Z" fill="#BBBBBB"/>
</svg>
