<svg width="24" height="24" viewBox="0 0 24 24" fill="none" xmlns="http://www.w3.org/2000/svg">
<path d="M6.15383 17.8461H11.423V14.0769H6.15383V17.8461ZM6.15383 12.923H11.423V6.15383H6.15383V12.923ZM12.5769 17.8461H17.8461V11.0769H12.5769V17.8461ZM12.5769 9.92305H17.8461V6.15383H12.5769V9.92305ZM5.3077 20.5C4.80257 20.5 4.375 20.3249 4.025 19.975C3.675 19.625 3.5 19.1974 3.5 18.6922V5.3077C3.5 4.80257 3.675 4.375 4.025 4.025C4.375 3.675 4.80257 3.5 5.3077 3.5H18.6922C19.1974 3.5 19.625 3.675 19.975 4.025C20.325 4.375 20.5 4.80257 20.5 5.3077V7.38462H22.2691V8.88457H20.5V11.25H22.2691V12.7499H20.5V15.1154H22.2691V16.6153H20.5V18.6922C20.5 19.1974 20.325 19.625 19.975 19.975C19.625 20.3249 19.1974 20.5 18.6922 20.5H5.3077ZM5.3077 19H18.6922C18.7692 19 18.8397 18.9679 18.9038 18.9038C18.9679 18.8397 19 18.7692 19 18.6922V5.3077C19 5.23077 18.9679 5.16024 18.9038 5.09613C18.8397 5.03203 18.7692 4.99998 18.6922 4.99998H5.3077C5.23077 4.99998 5.16024 5.03203 5.09612 5.09613C5.03202 5.16024 4.99997 5.23077 4.99997 5.3077V18.6922C4.99997 18.7692 5.03202 18.8397 5.09612 18.9038C5.16024 18.9679 5.23077 19 5.3077 19Z" fill="#DDDDDD"/>
</svg>
