<svg width="23" height="22" viewBox="0 0 23 22" fill="none" xmlns="http://www.w3.org/2000/svg">
<path d="M13.903 10.7778C13.8945 10.9029 13.8222 11.0155 13.6904 11.128C13.6394 11.1697 13.5841 11.2114 13.5331 11.2489C13.4863 11.2865 13.4438 11.324 13.397 11.3573C13.2184 11.4949 13.0314 11.5824 12.8358 11.6158C12.0833 11.745 11.5986 11.7617 11.4072 11.6658C11.1862 11.5574 11.1266 11.1447 11.1011 10.9905V10.9404C11.0714 10.8112 10.9948 10.5402 10.9906 10.536C10.9906 10.5277 10.9863 10.5235 10.9863 10.5194C10.9948 10.4944 11.0459 10.461 11.0714 10.4402L11.1011 10.411C11.3222 10.215 11.5943 10.0108 11.96 9.96073C12.0875 9.94405 12.2066 9.8982 12.3213 9.85651C12.3766 9.83149 12.4319 9.81482 12.4914 9.79814C12.585 9.76479 12.6657 9.76479 12.7295 9.7898C13.0781 9.91904 13.465 10.0941 13.7627 10.4193C13.8689 10.5402 13.92 10.6611 13.9115 10.782L13.903 10.7778Z" fill="#FFE888"/>
<path d="M12.6323 12.9451C12.5047 13.0452 12.3644 13.1744 12.2454 13.337C12.1518 13.4662 12.0115 13.5121 11.8712 13.5454C11.8627 13.5454 11.8585 13.5496 11.8542 13.5496L11.4035 13.6788C11.3738 13.6913 11.327 13.7039 11.2632 13.7205H11.2462C10.8678 13.8248 10.5532 13.7831 10.2471 13.5913C9.89845 13.3745 9.78366 13.0535 9.89845 12.6616C10.026 12.2656 10.2641 12.0238 10.6297 11.9279C10.6722 11.9154 10.7105 11.8904 10.736 11.8737C10.7488 11.8612 10.7785 11.8403 10.787 11.8403C10.8211 11.857 10.8466 11.8987 10.8763 11.9362C10.8933 11.9612 10.9103 11.9779 10.9231 11.9946C11.1059 12.2155 11.344 12.3239 11.6289 12.3239H11.6416C11.901 12.3239 12.1518 12.3073 12.3431 12.2864C12.5727 12.2739 12.6833 12.3323 12.7641 12.5199C12.8236 12.6658 12.7768 12.8159 12.628 12.9409L12.6323 12.9451Z" fill="#F4D13D"/>
<path d="M9.43489 13.7038C9.43489 13.7038 9.42638 13.7122 9.42213 13.7163C9.31584 13.8664 8.97571 13.9873 8.72486 14.0415C8.72061 14.0415 8.71211 14.0457 8.69935 14.0457C8.61007 14.0832 8.50378 14.0999 8.34647 14.0999C7.84477 14.1749 7.72147 14.1082 7.71722 14.1082C7.70872 14.0957 7.69171 14.0832 7.67471 14.079C7.6492 14.0749 7.61518 14.0623 7.55141 14.0373C7.27505 13.9206 7.00295 13.8039 6.73084 13.6871C6.6118 13.6413 6.58203 13.5913 6.58203 13.5787C6.60754 13.1702 7.01995 12.6449 7.44937 12.6366L7.73423 12.6282C7.90855 12.6199 8.07436 12.6157 8.24443 12.6116C8.34646 12.6074 8.46126 12.6157 8.55479 12.6616C8.62707 12.6949 8.6866 12.7033 8.74187 12.6783C8.80564 12.6532 8.85241 12.6032 8.89068 12.5157L8.90343 12.4781C8.91619 12.4406 8.93319 12.3989 8.9502 12.3614C8.95445 12.3489 8.9587 12.3489 8.96295 12.3531C8.9587 12.449 8.97996 12.524 9.03523 12.574C9.082 12.6282 9.15853 12.6532 9.25632 12.6491C9.18404 12.9492 9.28608 13.2202 9.37536 13.462C9.39237 13.512 9.40937 13.5704 9.41788 13.6288L9.42638 13.6788L9.43064 13.6955L9.43489 13.7038Z" fill="#FFE888"/>
<path d="M9.63973 11.3148C9.31236 11.665 8.92546 11.8942 8.49604 11.9985C8.41526 12.0235 8.33023 12.0235 8.23669 12.0276C8.19417 12.0276 8.14741 12.0277 8.10915 12.0318C7.90932 12.0318 7.64147 12.0151 7.39062 11.8776C6.96545 11.6358 6.88467 10.9938 7.10576 10.606C7.2248 10.3934 7.37361 10.2558 7.56919 10.185C7.78602 10.1058 8.01986 10.0557 8.26646 10.0391H8.30472C8.45353 10.0391 8.58108 10.1016 8.65761 10.2267C8.81067 10.481 9.036 10.6185 9.36338 10.6602C9.54195 10.6769 9.678 10.777 9.73327 10.9187C9.78429 11.0563 9.74603 11.2022 9.63549 11.3231L9.63973 11.3148Z" fill="#F4D13D"/>
<path d="M11.5349 9.43481C11.2926 9.72247 10.9737 9.90173 10.6336 10.0935L10.6038 10.1102C10.3232 10.1727 10.0979 10.156 10.0894 10.156C9.77901 10.1644 9.53242 10.106 9.31133 9.98094C9.12426 9.88089 8.97971 9.61825 8.9542 9.34309C8.94144 9.19301 8.95845 8.90536 9.2178 8.70108C9.3496 8.59268 9.4729 8.52181 9.59194 8.47179L9.67273 8.43426C9.67273 8.43426 9.84704 8.33838 10.1319 8.33838C10.1489 8.33838 10.1702 8.34255 10.1872 8.34255C10.319 8.35922 10.4508 8.36756 10.5741 8.37173C10.6719 8.3759 10.7739 8.3759 10.8759 8.38424C10.9355 8.39258 10.9822 8.39674 11.0077 8.40091C11.012 8.40508 11.0205 8.40925 11.0332 8.40925C11.0715 8.41759 11.1991 8.45928 11.3521 8.59685C11.5307 8.75944 11.5519 8.81781 11.5775 8.88034C11.5775 8.88868 11.5817 8.89702 11.586 8.90536C11.722 9.07211 11.7093 9.2222 11.5349 9.43481Z" fill="#F4D13D"/>
<path d="M22.8406 10.9231C22.7938 10.7605 22.696 10.6563 22.5387 10.6021C22.3899 10.5521 22.2454 10.5062 22.1051 10.4395C21.6119 10.2102 21.0719 9.9851 20.4937 9.88087C20.111 9.81 19.7156 9.74747 19.3372 9.6891C18.9673 9.63074 18.5805 9.57237 18.2063 9.50567C17.6323 9.40144 17.0201 9.35976 16.3951 9.3806C16.7352 9.16382 16.9436 8.84281 17.1009 8.55932C17.1519 8.47177 17.1987 8.38005 17.2454 8.29251C17.2964 8.19662 17.3475 8.10073 17.4027 8.00902C17.6281 7.61297 17.5983 7.26695 17.3007 6.92926C17.1817 6.79169 17.0414 6.74583 16.867 6.78335C16.4546 6.86673 16.038 7.00013 15.5065 7.20441C15.3364 7.27111 15.1621 7.32948 14.9921 7.37951C14.6604 7.4879 14.316 7.59629 13.9972 7.7964C14.0014 7.78806 14.0014 7.77973 14.0057 7.77556L14.0184 7.74637C14.112 7.50457 14.2055 7.26694 14.299 7.02515C14.4819 6.56656 14.6689 6.0913 14.839 5.61604C14.9708 5.24918 15.0941 4.87397 15.2131 4.51127C15.362 4.06519 15.5108 3.60244 15.6766 3.15636C15.8721 2.63108 15.8254 2.15582 15.5363 1.70974C15.464 1.60135 15.3577 1.43459 15.1451 1.41374C14.6944 1.37622 14.3373 1.50963 14.095 1.81813L14.0269 1.90151C13.7888 2.20168 13.5422 2.51018 13.2786 2.79783C13.015 3.08549 12.7259 3.36481 12.4496 3.63579C12.1775 3.89427 11.9011 4.16525 11.6418 4.44457C11.6333 4.45291 11.6248 4.46124 11.6163 4.46958C11.612 4.46958 11.612 4.47375 11.6078 4.47375C11.5482 4.29032 11.4845 4.11105 11.4207 3.93179C11.3654 3.77754 11.3101 3.62329 11.2591 3.46903C11.1528 3.1647 10.9913 2.88538 10.7787 2.64358C10.5236 2.35593 10.2302 2.31424 9.90284 2.51435C9.42241 2.81034 9.06952 3.26476 8.82717 3.90677C8.59758 4.5071 8.59759 5.13244 8.61034 5.72443C8.61459 5.80364 8.61459 5.87869 8.61459 5.9579C8.59333 5.91204 8.57633 5.86618 8.55507 5.82032C8.44452 5.55351 8.32548 5.27419 8.14266 5.03239C8.02786 4.88648 7.91307 4.74473 7.79403 4.59882C7.63246 4.39871 7.46665 4.19443 7.30934 3.98598C6.8289 3.32312 6.25068 2.68527 5.43862 1.91402C5.04747 1.54715 4.6223 1.17195 4.05683 0.696686C3.99306 0.646659 3.93353 0.592462 3.87401 0.542435C3.69969 0.392353 3.52112 0.238102 3.3298 0.104696C3.25752 0.0588373 3.04919 -0.0829068 2.85362 0.0671752C2.56025 0.296467 2.41145 0.550773 2.39444 0.842599C2.37743 1.14693 2.4157 1.45543 2.45396 1.71808C2.50923 2.08078 2.60702 2.4268 2.73457 2.83952C2.84086 3.18138 2.95991 3.54408 3.13848 3.88593C3.28303 4.14857 3.43609 4.43623 3.53813 4.74473C3.63592 5.0449 3.77622 5.35757 3.97605 5.73277C4.2184 6.18719 4.499 6.62493 4.77111 7.05016C4.89015 7.23776 5.0092 7.4212 5.12824 7.61297C5.21753 7.75054 5.30682 7.90479 5.39185 8.07572C5.36209 8.05904 5.33233 8.04237 5.29831 8.02986C4.55428 7.70052 3.8655 7.49207 3.19374 7.39201C3.15123 7.38368 3.10446 7.37951 3.05769 7.37534L2.96841 7.36283C2.25413 7.25444 1.60363 7.27945 0.978641 7.42953C0.876602 7.45455 0.787317 7.50457 0.706536 7.57545C0.481199 7.77556 0.442931 8.23414 0.630003 8.5343C0.82983 8.85948 1.1232 9.10128 1.40381 9.33057L1.45057 9.36809C1.50159 9.41395 1.55686 9.45981 1.60788 9.50567C1.80346 9.67243 2.00754 9.83918 2.22863 9.98927C2.05431 9.95591 1.88424 9.93924 1.70992 9.93924C1.06367 9.93924 0.532218 10.2269 0.128312 10.798C0.0220211 10.9481 -0.0204948 11.1107 0.0092667 11.2608C0.0390282 11.4192 0.14532 11.561 0.315386 11.6735C0.408922 11.7361 0.515213 11.7861 0.621504 11.8361C0.872352 11.9528 1.12745 12.0612 1.37404 12.1488C1.61213 12.2363 1.81622 12.3781 2.0288 12.5282C2.09257 12.574 2.1606 12.6199 2.22437 12.6616C2.50073 12.845 2.78559 12.945 3.09171 12.9659C3.13423 12.9659 3.17674 12.9701 3.21926 12.9742C3.29579 12.9784 3.37232 12.9867 3.4446 12.9867C3.42759 12.9992 3.41483 13.0118 3.39783 13.0243C3.3383 13.0618 3.27878 13.1035 3.22351 13.1452C2.73032 13.5245 2.24988 13.9789 1.66741 14.6251C1.1317 15.2213 0.723542 15.8842 0.45994 16.5929C0.166576 17.385 0.115557 18.0979 0.306881 18.7649C0.45994 19.2985 0.56623 19.557 1.33578 19.6029C1.7907 19.6279 2.06706 19.4778 2.23712 19.1151C2.33491 18.9025 2.49648 18.7149 2.72607 18.5398C2.9514 18.373 3.16398 18.1604 3.35956 17.9103C3.76346 17.385 4.31618 16.7096 4.98369 16.1385C5.01345 16.1134 5.04746 16.0884 5.08148 16.0676C5.09423 16.0593 5.11124 16.0467 5.12399 16.0384L5.09849 16.1301C5.05172 16.2844 5.00495 16.4428 4.96669 16.6012C4.80937 17.2391 4.70733 17.9144 4.66906 18.6148C4.6223 19.4653 4.63506 20.1698 4.70733 20.8369C4.74135 21.1245 4.81362 21.4956 5.06447 21.8124L5.08148 21.8332C5.141 21.9083 5.21753 22 5.34508 22H5.36209C5.61718 21.9792 5.94456 21.925 6.19115 21.654C6.25493 21.5831 6.31871 21.5122 6.37823 21.4414C6.442 21.3705 6.50153 21.2996 6.5653 21.2329L6.70135 21.0828C6.99471 20.7577 7.29658 20.42 7.53468 20.0406C7.54743 20.0198 7.55594 20.0114 7.55594 20.0072C7.56019 20.0114 7.56869 20.0198 7.57719 20.0364C7.60696 20.0865 7.64522 20.1281 7.68349 20.1698L7.70474 20.1948C7.76426 20.2574 7.81954 20.2866 7.88331 20.2907C7.93858 20.2949 7.99811 20.2657 8.05338 20.2157C8.11715 20.1573 8.18092 20.1031 8.2447 20.0489C8.49555 19.828 8.7549 19.6029 8.91646 19.2818C8.94197 19.236 8.97598 19.1901 9.02275 19.1443C9.03551 19.1276 9.31611 18.7566 9.42666 18.5481L9.43516 18.5356C9.43516 18.5356 9.44366 18.5148 9.44792 18.5106C9.60948 18.1646 9.70301 17.8477 9.73702 17.5476C9.74128 17.5059 9.75403 17.4725 9.78805 17.4308C9.81781 17.3975 9.86033 17.3475 9.89434 17.3391C9.94536 17.4475 10.2982 18.1646 10.5278 18.4481C10.5406 18.4647 10.5533 18.4814 10.5661 18.4981L10.5959 18.5314C10.7447 18.7232 10.8977 18.9191 11.0635 19.1026C11.5482 19.632 12.0754 20.1907 12.7089 20.6451C13.2659 21.0453 13.8186 21.2996 14.3968 21.4163C14.7667 21.4956 15.1069 21.2162 15.1791 20.9202C15.2344 20.6868 15.1919 20.47 15.1366 20.249C15.0856 20.0489 15.0388 19.8488 14.9921 19.6445C14.9155 19.3277 14.839 18.9984 14.754 18.6773C14.5754 18.0187 14.3416 17.2557 13.9206 16.5512L13.9589 16.5637C14.0184 16.5887 14.078 16.6096 14.1417 16.6346L14.2905 16.6888C14.5967 16.8055 14.9113 16.9222 15.2344 17.0056C15.8381 17.1557 16.4334 17.1432 17.0966 17.1098C17.5005 17.0932 17.8534 16.9514 18.1468 16.6888C18.2488 16.6012 18.2743 16.5012 18.2233 16.3761C18.185 16.2802 18.1213 16.2093 18.0532 16.1426L18.0192 16.1009C17.9129 15.9884 17.8109 15.8758 17.7046 15.7633C17.492 15.5381 17.2709 15.3088 17.0796 15.0629C17.0243 14.9878 16.9648 14.917 16.9096 14.8419C16.6757 14.5376 16.4334 14.2249 16.1528 13.9456C16.0762 13.8706 16.0125 13.783 15.9444 13.6913L15.8934 13.6246C15.8934 13.6246 15.8892 13.6162 15.8849 13.6162H15.8934C16.2888 13.6579 16.6842 13.6413 17.0966 13.5621C17.7344 13.4453 18.3679 13.3494 18.9844 13.2619C19.1417 13.2369 19.2947 13.216 19.452 13.1952C19.7794 13.1493 20.1195 13.1035 20.4512 13.0368C20.6042 13.0076 20.7445 12.9492 20.8848 12.8867C21.1654 12.7574 21.4035 12.6616 21.6416 12.5907C21.9222 12.499 22.2794 12.3572 22.5345 12.0487C22.8448 11.6777 22.9469 11.3108 22.8406 10.9231ZM15.0899 7.85894L15.1791 7.82975C15.3279 7.77556 15.4725 7.72553 15.6171 7.6755C15.9742 7.5546 16.3483 7.42536 16.7055 7.27528C16.7778 7.24193 16.8458 7.24193 16.8968 7.27528C16.9606 7.31697 16.9988 7.41286 16.9988 7.52959C16.9988 7.62964 16.9223 7.75471 16.8713 7.83809C16.6417 8.2258 16.3696 8.67605 16.0592 9.08877C15.9189 9.28471 15.7233 9.41395 15.4767 9.47649C15.3917 9.5015 15.3067 9.52234 15.2217 9.54319C14.958 9.60572 14.6902 9.66826 14.4393 9.79333C14.0227 10.0059 13.7208 10.2227 13.487 10.4812L13.4657 10.5062L13.4275 10.5437C13.3127 10.6605 13.3127 10.6646 13.1979 10.5646C12.8832 10.3061 12.6111 10.156 12.3263 10.0768C12.3305 10.0726 12.3348 10.0726 12.339 10.0685C12.4283 10.0018 12.5134 9.93507 12.6026 9.86837L12.7727 9.7433C12.93 9.6224 13.0661 9.47649 13.1936 9.33474C13.2744 9.24719 13.3594 9.15965 13.4445 9.07627C13.4955 9.03041 13.5508 8.98872 13.606 8.94703C13.7208 8.85948 13.8356 8.77193 13.9079 8.64687C14.1672 8.18411 14.6179 8.02569 15.0899 7.85894ZM9.0185 11.1983C9.18006 11.2149 9.30336 11.3025 9.35438 11.4317C9.40115 11.5568 9.36714 11.6902 9.2651 11.7986C8.96748 12.1154 8.61885 12.3239 8.2277 12.4198C8.15542 12.4406 8.07889 12.4406 7.99385 12.4448C7.95559 12.4448 7.91307 12.4448 7.87906 12.4489C7.69624 12.4489 7.45389 12.4323 7.22856 12.3072C6.84166 12.0862 6.76938 11.5068 6.96921 11.1524C7.0755 10.9606 7.21155 10.8356 7.39012 10.7689C7.5857 10.698 7.79827 10.6521 8.02361 10.6355H8.05763C8.19368 10.6355 8.30847 10.6938 8.3765 10.8064C8.5168 11.0357 8.72089 11.1607 9.0185 11.1983ZM8.8867 9.42646C9.00574 9.3264 9.11629 9.26387 9.22683 9.21801L9.29911 9.18466C9.29911 9.18466 9.45642 9.09711 9.71577 9.09711C9.73278 9.09711 9.74978 9.10128 9.76679 9.10128C9.88583 9.11796 10.0049 9.12213 10.1197 9.12629C10.209 9.12629 10.3025 9.1263 10.3918 9.1388C10.4471 9.14714 10.4896 9.15131 10.5108 9.15548C10.5108 9.15548 10.5236 9.16382 10.5321 9.16382C10.5661 9.17215 10.6809 9.20967 10.8212 9.33474C10.9828 9.48065 11.004 9.53485 11.0253 9.59322C11.0253 9.60155 11.0295 9.60989 11.0338 9.61406C11.1571 9.76414 11.1443 9.90172 10.987 10.0935C10.7659 10.3561 10.4768 10.5187 10.1707 10.6896L10.1452 10.7063C9.89009 10.7647 9.686 10.748 9.6775 10.748C9.39689 10.7564 9.17156 10.7022 8.97173 10.5896C8.80167 10.4979 8.66986 10.2602 8.6486 10.0101C8.63585 9.87254 8.65285 9.61406 8.8867 9.42646ZM9.62648 11.9237C9.73703 11.7027 9.77104 11.5068 9.73702 11.3067C9.73277 11.2858 9.73278 11.2775 9.72853 11.2733H9.76679C9.7923 11.2733 9.82206 11.2775 9.84757 11.2691C10.0134 11.2691 10.0389 11.2858 10.0857 11.4276C10.1197 11.5234 10.1452 11.6235 10.1664 11.7235L10.1877 11.8153C10.1962 11.8403 10.192 11.8611 10.1537 11.8778L10.1154 11.8945C10.0474 11.9278 9.97937 11.9612 9.91134 11.9779C9.69451 12.0321 9.51169 12.1446 9.34587 12.3155L9.32462 12.3364C9.2736 12.3906 9.22683 12.4406 9.16306 12.4656C9.37139 12.3155 9.5287 12.1321 9.62648 11.9237ZM9.49893 13.0201C9.61373 12.6616 9.83056 12.4406 10.1622 12.3531C10.2005 12.3406 10.2345 12.3197 10.26 12.303C10.2727 12.2905 10.2982 12.2738 10.3067 12.2738C10.3365 12.2905 10.362 12.328 10.3875 12.3614C10.4045 12.3822 10.4173 12.3989 10.43 12.4156C10.5959 12.6157 10.8127 12.7158 11.072 12.7158H11.0848C11.3186 12.7158 11.5482 12.6991 11.7225 12.6824C11.9309 12.6699 12.0329 12.7241 12.1052 12.895C12.1605 13.0284 12.118 13.1618 11.9819 13.2786C11.8671 13.3703 11.7396 13.487 11.629 13.6329C11.544 13.7497 11.4164 13.7913 11.2889 13.8205C11.2804 13.8205 11.2761 13.8247 11.2719 13.8247L10.8637 13.9414C10.8382 13.9539 10.7957 13.9623 10.7362 13.9789H10.7192C10.3748 14.0748 10.0899 14.0373 9.81356 13.8622C9.49894 13.6663 9.39264 13.3745 9.49893 13.0201ZM10.868 12.1154C10.6681 12.0154 10.6129 11.6443 10.5916 11.5026V11.4567C10.5661 11.34 10.4938 11.094 10.4896 11.0899C10.4896 11.0815 10.4896 11.0774 10.4896 11.0732C10.4981 11.0523 10.5448 11.019 10.5661 11.0023L10.5916 10.9773C10.7914 10.798 11.038 10.6146 11.3697 10.5688C11.4845 10.5521 11.595 10.5104 11.697 10.4729C11.7481 10.452 11.7991 10.4353 11.8501 10.4187C11.9351 10.3895 12.0074 10.3895 12.0669 10.4103C12.3816 10.5271 12.7344 10.6855 13.0023 10.9815C13.1001 11.0899 13.1468 11.2024 13.1383 11.3108C13.1298 11.4234 13.0661 11.5276 12.947 11.6277C12.9002 11.6652 12.8492 11.7027 12.8025 11.7361C12.7599 11.7694 12.7217 11.8028 12.6792 11.8361C12.5176 11.9612 12.3475 12.0404 12.169 12.0696C11.4845 12.1863 11.0465 12.203 10.8722 12.1154H10.868ZM12.3603 13.2369C12.373 13.1827 12.3943 13.1243 12.4241 13.0701C12.4751 12.9826 12.5304 12.87 12.5304 12.7324C12.5304 12.6657 12.5176 12.5949 12.4836 12.5198C12.5984 12.4364 12.7089 12.3572 12.8195 12.2697C12.8662 12.2363 12.9173 12.2238 12.9683 12.2405C13.0448 12.2572 13.1001 12.3072 13.1256 12.3864C13.1256 12.3864 13.1681 12.4656 13.1724 12.6074C13.1724 12.7491 13.1341 12.8575 13.0576 12.9242C13.0491 12.9284 13.0448 12.9325 13.0363 12.9367C13.0363 12.9367 13.0235 12.9492 13.015 12.9534C12.9683 12.9867 12.9215 13.0243 12.8747 13.0576C12.7557 13.1535 12.6367 13.241 12.4921 13.2702L12.4028 13.2827C12.3688 13.2911 12.3603 13.2786 12.3603 13.2786C12.3603 13.2786 12.3518 13.2702 12.3603 13.2369ZM11.3612 5.48264C11.3612 5.48264 11.3824 5.46596 11.3867 5.45762L11.8246 4.924L11.9011 4.84896L12.4793 4.30282C12.5984 4.17359 12.7259 4.05269 12.8535 3.93596C12.9938 3.81089 13.1341 3.67748 13.2616 3.53574C13.4232 3.35647 13.589 3.18138 13.7548 3.01045C13.8229 2.93958 13.8909 2.86454 13.9589 2.79367C14.1205 2.62274 14.248 2.43931 14.3458 2.2517C14.4479 2.05159 14.7752 1.86399 15.0091 1.8765C15.0431 1.88067 15.0643 1.89317 15.0899 1.93486C15.2302 2.14748 15.2982 2.35176 15.2982 2.56437C15.2982 2.71029 15.2684 2.84786 15.2089 2.9771C14.9495 3.57326 14.7582 4.20277 14.5754 4.81144C14.5371 4.93233 14.4989 5.05323 14.4649 5.17413C14.18 6.09547 13.8229 7.1794 13.3467 8.20079C13.1596 8.60935 12.9768 8.97204 12.6707 9.26387C12.5601 9.37226 12.4326 9.49316 12.288 9.58071C12.0882 9.69744 11.8884 9.83918 11.697 10.0059C11.6035 10.0852 11.493 10.1018 11.3697 10.1185C11.3824 10.0726 11.3994 10.031 11.4207 9.98927C11.578 9.61406 11.51 9.35559 11.1868 9.10128C10.9828 8.94286 10.7617 8.78027 10.4683 8.74692C10.3833 8.73441 10.3195 8.67188 10.2642 8.54264C10.1282 8.22997 10.0942 7.90896 10.1622 7.59629C10.3067 6.94177 10.6171 6.34561 11.0763 5.82449C11.1443 5.75362 11.2038 5.67441 11.2506 5.5952C11.2804 5.54517 11.3186 5.50348 11.3612 5.48264ZM8.97173 5.65356C8.97173 5.55351 8.98023 5.45345 8.98023 5.3534C8.98874 5.2992 9.027 5.03656 9.06952 4.79893L9.09078 4.66969C9.17156 4.23195 9.25234 3.81923 9.5372 3.4732C9.71577 3.25642 9.9326 3.08549 10.1834 2.96876C10.2642 2.92707 10.3918 2.89789 10.5448 3.07299C10.6511 3.19805 10.7404 3.34397 10.8042 3.51489C10.9147 3.80672 11.021 4.09855 11.1273 4.39454L11.2166 4.64885C11.2719 4.79059 11.2506 4.89065 11.1528 4.99487C10.8595 5.31588 10.4938 5.7161 10.226 6.16217C9.88158 6.74166 9.69026 7.2461 9.62648 7.74637C9.57972 8.1049 9.63073 8.43842 9.78379 8.72608C9.78804 8.73858 9.79655 8.75109 9.79655 8.75943H9.77104C9.71152 8.75526 9.65624 8.7636 9.59247 8.76777C9.56696 8.77193 9.54145 8.77193 9.49893 8.78027C9.46917 8.78444 9.46067 8.78444 9.46067 8.78444C9.46067 8.78444 9.45216 8.76777 9.45216 8.72191C9.45216 8.38005 9.39264 8.04654 9.26935 7.70051C9.09078 7.20441 9.02275 6.67912 8.97598 6.22888C8.95898 6.04127 8.96748 5.84117 8.97598 5.65356H8.97173ZM1.45057 8.64687C1.31877 8.5343 1.19547 8.4009 1.08918 8.25082C1.02966 8.17578 1.0084 8.11324 1.02541 8.06321C1.03816 8.01319 1.09344 7.96733 1.18697 7.92564C1.57387 7.77139 1.99053 7.68384 2.4327 7.6755C2.46246 7.6755 2.48798 7.67133 2.51348 7.67133C2.97691 7.67133 3.46585 7.77139 4.03132 7.9715C4.12485 8.00485 4.21414 8.0382 4.30342 8.06738C4.54577 8.15076 4.79662 8.23414 5.03046 8.35504C5.34508 8.50929 5.62994 8.72191 5.90205 8.92619C5.96157 8.97204 6.01684 9.01373 6.07636 9.05542C6.13164 9.09711 6.19116 9.14297 6.24643 9.18466C6.36547 9.27638 6.48877 9.36809 6.61632 9.45147C6.86291 9.61823 7.12652 9.70578 7.40712 9.71412H7.56869C7.68774 9.72245 7.81103 9.72245 7.93433 9.72245C8.00661 9.72245 8.07038 9.6891 8.10015 9.63491C8.12991 9.58488 8.12565 9.51401 8.08313 9.4473C8.01936 9.34308 7.92158 9.28055 7.80678 9.27638C7.15203 9.23886 6.71836 8.84698 6.34421 8.43008C6.06786 8.12575 5.86378 7.76722 5.66395 7.41703L5.62994 7.35866C5.37484 6.91258 5.08573 6.47068 4.80937 6.04544C4.72434 5.91621 4.63931 5.78697 4.55428 5.65356C4.43948 5.4743 4.35019 5.29503 4.29067 5.11994C4.16312 4.72806 3.9888 4.34868 3.81874 3.98598C3.75496 3.85258 3.69119 3.715 3.63167 3.5816C3.52538 3.34397 3.43609 3.098 3.35106 2.8562L3.27453 2.63108C3.18099 2.37677 3.12147 2.12247 3.05769 1.83481C2.98542 1.52214 2.95566 1.18862 2.96416 0.813417C2.96416 0.738375 2.97691 0.675841 3.00242 0.617476C3.02793 0.554942 3.04919 0.542435 3.06194 0.538266C3.07045 0.538266 3.0917 0.538266 3.14698 0.571618C3.30003 0.667503 3.44885 0.788403 3.58915 0.900964C3.64017 0.942654 3.69119 0.984343 3.73796 1.02603C4.63931 1.74726 5.29831 2.33508 5.86803 2.94375C6.35272 3.45236 6.83315 4.0235 7.39437 4.73639C8.01086 5.52849 8.35949 6.42065 8.6231 7.1919C8.65711 7.29196 8.69112 7.39201 8.72939 7.4879C8.82292 7.73804 8.92071 7.99651 8.95898 8.26332C8.97599 8.39673 8.99299 8.53847 8.98449 8.68439C8.97173 8.91368 8.86544 9.08044 8.67411 9.17632C8.23619 9.40145 8.21069 9.79749 8.23195 10.0726V10.0977C8.2362 10.1393 8.24045 10.181 8.23619 10.1894C8.22769 10.1977 8.17242 10.2102 8.1299 10.2144C7.65372 10.2978 7.27958 10.427 6.95645 10.6271C6.87992 10.6688 6.82891 10.7188 6.78639 10.7772C6.6971 10.9106 6.56105 10.9815 6.37398 10.9898C6.0296 11.0065 5.71922 10.9773 5.43011 10.8939C5.30682 10.8564 5.18777 10.8231 5.06447 10.7897C4.80937 10.7188 4.54577 10.6438 4.29067 10.5604C3.8485 10.4103 3.41058 10.1644 2.9429 9.81L2.6793 9.61406C2.27114 9.30556 1.84598 8.98455 1.45057 8.64687ZM3.12997 12.4698C2.76008 12.4615 2.48372 12.2447 2.25413 12.0446C2.25413 12.0446 2.24563 12.0362 2.24138 12.0362C2.11808 11.9112 1.77795 11.7652 1.50585 11.6568C1.5016 11.6568 1.49309 11.6527 1.48884 11.6527C1.37829 11.6277 1.27201 11.5943 1.16571 11.5443C1.01266 11.4692 0.842589 11.3984 0.647013 11.3275C0.58749 11.3067 0.549226 11.2816 0.540722 11.2566C0.527967 11.2316 0.540719 11.1858 0.57048 11.1274C0.685275 10.9023 0.876602 10.7272 1.19122 10.5604C1.3783 10.4645 1.59088 10.4103 1.77795 10.4103H1.82897C2.05006 10.4103 2.19886 10.4395 2.32641 10.5146C2.57726 10.6563 2.85361 10.7147 3.12147 10.7647L3.20225 10.7814C3.40208 10.8231 3.5934 10.9064 3.77622 10.9856C3.8315 11.0107 3.89102 11.0357 3.94629 11.0565C4.63931 11.3483 5.38759 11.5109 6.1699 11.5443H6.20816C6.20816 11.5443 6.23792 11.5443 6.24643 11.5485C6.28044 11.5568 6.31446 11.5526 6.34847 11.5485C6.40799 11.5443 6.41224 11.5485 6.42075 11.5735C6.46326 11.6819 6.42074 11.8278 6.34421 11.8903C6.25918 11.957 6.15289 11.9695 6.03809 11.982H6.00408C5.77024 12.0154 5.57467 12.0654 5.40035 12.1321C5.16226 12.228 4.92417 12.3197 4.68608 12.4114C4.499 12.4823 4.31618 12.5573 4.12911 12.6282C4.08659 12.6449 4.06533 12.6491 4.04407 12.6407C3.74646 12.5073 3.42759 12.4781 3.12997 12.4698ZM4.78386 15.5923C4.14186 16.1218 3.59765 16.7471 3.14698 17.2849C2.86212 17.6351 2.54325 17.9561 2.24138 18.2479C2.00754 18.4731 1.82472 18.6982 1.68866 18.9317C1.60788 19.0651 1.50584 19.1234 1.36129 19.1068C0.965884 19.0692 0.876601 19.0275 0.791568 18.6607C0.740548 18.4272 0.727791 18.1896 0.72354 17.9061C0.706533 17.5309 0.842589 17.114 0.965887 16.793C1.28901 15.9258 1.85448 15.1254 2.68355 14.3375C3.38082 13.6788 4.07809 13.2035 4.81788 12.8742C5.31107 12.6574 5.73623 12.5448 6.15289 12.5198C6.19541 12.5198 6.24643 12.5198 6.2932 12.4948C6.33571 12.474 6.37397 12.4656 6.41649 12.4656C6.49727 12.4656 6.57806 12.5073 6.68435 12.6032C6.73962 12.6532 6.80339 12.7074 6.80339 12.7283C6.80339 12.7491 6.73537 12.8158 6.68435 12.8617C6.49727 13.0409 6.33997 13.241 6.22092 13.4537C5.97432 13.8956 6.01684 14.2207 6.36547 14.5751C6.38673 14.596 6.39099 14.6043 6.39524 14.6085C6.39099 14.6085 6.38673 14.6168 6.36547 14.6335C6.3102 14.671 6.24643 14.7043 6.16565 14.7335C5.62144 14.9295 5.16651 15.2797 4.78386 15.5923ZM7.05849 19.8572C6.99047 19.9364 6.92669 20.0239 6.86716 20.1073C6.8374 20.149 6.80765 20.1907 6.77363 20.2324C6.47177 20.6284 6.15714 20.9869 5.83402 21.308C5.7915 21.3496 5.74048 21.3913 5.67671 21.4372C5.55766 21.5164 5.5194 21.5122 5.43436 21.3997C5.32382 21.2579 5.2558 21.087 5.22604 20.8786C5.18777 20.6368 5.17926 20.3866 5.16651 20.1448C5.158 19.9697 5.14951 19.7946 5.1325 19.6195C5.10274 19.2068 5.11549 18.7816 5.17076 18.3522C5.18777 18.2063 5.20477 18.0603 5.22178 17.9103C5.26855 17.4642 5.31957 17.0014 5.44712 16.5595C5.57467 16.126 5.73198 15.8008 5.95306 15.5381C6.0551 15.4089 6.16565 15.3297 6.2932 15.288C6.53554 15.213 6.71836 15.0629 6.88842 14.917C6.9607 14.8503 7.02448 14.8211 7.09251 14.8211C7.11377 14.8211 7.13502 14.8252 7.16053 14.8336C7.22856 14.8503 7.23706 14.8794 7.22856 14.9253C7.22431 14.9503 7.22005 14.9753 7.2158 15.0003C7.21155 15.042 7.20305 15.0837 7.19029 15.1254C7.08825 15.4756 7.04999 15.83 7.02448 16.2552C6.99897 16.7221 6.98622 17.1057 6.98622 17.4642C6.99047 18.0145 7.067 18.5356 7.21155 19.015C7.31784 19.3569 7.27108 19.6154 7.05849 19.8572ZM7.37311 14.2749C7.12226 14.1707 6.87567 14.0623 6.62907 13.9581C6.52278 13.9164 6.49302 13.8706 6.49302 13.858C6.51428 13.487 6.88842 13.0118 7.27957 13.0034L7.53893 12.9951C7.69624 12.9867 7.8493 12.9826 8.00236 12.9784C8.0959 12.9742 8.19793 12.9826 8.28296 13.0243C8.34674 13.0534 8.40201 13.0618 8.45303 13.0409C8.51256 13.0201 8.55507 12.9742 8.58908 12.895L8.60184 12.8617C8.61459 12.8283 8.62735 12.7908 8.64435 12.7574C8.64861 12.7449 8.65286 12.7449 8.65711 12.7491C8.65711 12.8367 8.67411 12.9034 8.72088 12.9492C8.7634 12.9992 8.83142 13.0201 8.92071 13.0159C8.85693 13.2869 8.94622 13.5329 9.027 13.7538C9.04401 13.7997 9.05677 13.8539 9.06527 13.9039L9.07377 13.9498L9.07802 13.9664C9.07377 13.9706 9.06952 13.9748 9.06527 13.9789C8.96748 14.1165 8.66136 14.2249 8.43177 14.2749C8.42752 14.2749 8.41902 14.2791 8.41051 14.2791C8.32973 14.3125 8.23194 14.3291 8.09164 14.3291C7.63671 14.3958 7.52617 14.3375 7.52192 14.3375C7.51342 14.325 7.50066 14.3166 7.48366 14.3125C7.4624 14.3083 7.42838 14.2958 7.37311 14.2749ZM9.21833 17.7602C8.95048 18.4314 8.56783 19.0275 8.07464 19.532C8.07038 19.532 8.06188 19.5445 8.06188 19.5445C8.04488 19.557 8.03212 19.5737 8.01511 19.5862C7.99811 19.607 7.95984 19.6404 7.95133 19.6445C7.93008 19.632 7.91733 19.6154 7.90882 19.5945C7.90882 19.582 7.90882 19.5862 7.90032 19.5778C7.81954 19.4111 7.7175 18.9775 7.68349 18.8441C7.54743 18.2855 7.48365 17.7185 7.50066 17.1599C7.50491 17.0223 7.50491 16.8847 7.50491 16.7471C7.50491 16.522 7.50491 16.2927 7.52192 16.0676C7.55168 15.6882 7.65372 15.3172 7.74301 15.0379C7.78552 14.9086 7.83654 14.8794 8.02361 14.8794H8.08313C8.17242 14.8878 8.27021 14.8919 8.28296 14.9045C8.29147 14.917 8.28722 14.9795 8.28722 15.0337C8.28297 15.0629 8.28296 15.0962 8.28296 15.1296C8.26596 15.7341 8.4998 16.2635 8.7464 16.7596C8.75065 16.7721 8.75915 16.7888 8.76765 16.8013C8.78891 16.8305 8.80591 16.8597 8.81442 16.893C8.85693 17.0348 8.95897 17.1223 9.03975 17.1807C9.26509 17.3433 9.31612 17.51 9.21833 17.7602ZM9.92835 16.1802L9.89008 16.2635C9.8008 16.4636 9.70727 16.6679 9.56696 16.843C9.5287 16.893 9.48193 16.9181 9.43941 16.9181H9.43091C9.3884 16.9139 9.35013 16.8847 9.32462 16.8347C9.09078 16.3803 8.84844 15.9092 8.7464 15.3881C8.67412 15.0003 8.7549 14.7335 9.01425 14.5292C9.06101 14.4917 9.10353 14.4542 9.14605 14.4167C9.18431 14.3792 9.21833 14.3458 9.26084 14.3125C9.29486 14.2875 9.32462 14.2749 9.35863 14.2749C9.38839 14.2749 9.4224 14.2874 9.45216 14.3166C9.56696 14.4209 9.69451 14.4834 9.86033 14.5126C10.0219 14.5418 10.1154 14.6501 10.1409 14.8378C10.1494 14.9128 10.1579 14.9962 10.1622 15.0754C10.1664 15.1171 10.1707 15.1629 10.1707 15.2004C10.1877 15.5673 10.0602 15.9008 9.92835 16.1802ZM14.5882 19.9697L14.6052 20.0448C14.6604 20.2782 14.7115 20.495 14.737 20.7076C14.737 20.8077 14.7072 20.8827 14.6519 20.9244C14.6009 20.9578 14.5329 20.9619 14.4521 20.9369C14.2098 20.8577 13.9547 20.7702 13.64 20.6576C13.487 20.6034 13.3467 20.5159 13.1766 20.3741C13.0236 20.2407 12.862 20.1156 12.7047 19.9906C12.3901 19.7446 12.0669 19.4861 11.7948 19.1818C11.2974 18.6148 10.8595 18.0937 10.5193 17.485C10.4343 17.3266 10.3833 17.1557 10.328 16.9764C10.2982 16.8639 10.2642 16.7471 10.2175 16.6387C10.2047 16.5929 10.2302 16.5387 10.2472 16.5137C10.5406 16.0384 10.6511 15.4923 10.6044 14.7502C10.5916 14.5501 10.6171 14.5167 10.8255 14.4709C10.902 14.45 10.9828 14.4375 11.0635 14.4209C11.1231 14.4125 11.1868 14.4 11.2464 14.3875C11.3909 14.3583 11.5142 14.2874 11.6375 14.2166L11.6885 14.1916C11.6885 14.1916 11.7055 14.1791 11.7098 14.1791C11.7098 14.1791 11.7098 14.1818 11.7098 14.1874C11.8033 14.5709 12.0329 14.8794 12.2583 15.1754L12.2923 15.2255C12.4156 15.3839 12.5304 15.534 12.6239 15.7007C12.6579 15.7591 12.6962 15.8175 12.7599 15.855C13.1298 16.0718 13.3084 16.4261 13.4955 16.7972C13.9334 17.6685 14.2693 18.6482 14.5839 19.9697H14.5882ZM15.9614 14.3875C15.9614 14.3875 15.9614 14.3917 15.9699 14.3958C16.191 14.646 16.3951 14.917 16.5864 15.1838L16.7097 15.3464C17.0073 15.7549 17.2752 16.0718 17.543 16.3427C17.5983 16.3969 17.6153 16.4219 17.6153 16.4219C17.6068 16.4386 17.5303 16.472 17.5048 16.4845C17.2539 16.6096 16.9776 16.6387 16.6459 16.6429H16.6204C15.5788 16.6429 14.6732 16.4261 13.8484 15.9884C13.538 15.8216 13.1851 15.634 12.9002 15.363C12.8025 15.2672 12.7387 15.1504 12.6664 15.0295C12.6239 14.9628 12.5856 14.8919 12.5346 14.8252C12.4538 14.7127 12.3816 14.596 12.305 14.4792C12.2625 14.4125 12.22 14.35 12.1775 14.2833C12.1222 14.2041 12.0839 14.1082 12.0627 13.9998C12.0372 13.8539 12.0839 13.7747 12.22 13.7288C12.2923 13.7038 12.3645 13.6913 12.4283 13.6913C12.6792 13.6788 12.9173 13.5912 13.1724 13.4203C13.1851 13.412 13.1979 13.4036 13.2064 13.3953L13.2531 13.3494C13.2744 13.3328 13.3552 13.2911 13.6188 13.2911C13.6911 13.2911 13.7803 13.2952 13.8866 13.3036H13.9036C14.3586 13.3077 14.7327 13.3494 15.0813 13.5245C15.1749 13.5704 15.2599 13.6329 15.3449 13.6955C15.3875 13.7288 15.4342 13.7622 15.4853 13.7997L15.5065 13.8247C15.7701 14.1499 15.9232 14.3416 15.9614 14.3875ZM22.2751 11.5526C22.1306 11.7736 21.9307 11.9445 21.6799 12.0571C20.8721 12.4114 20.1493 12.6532 19.4648 12.795C19.1204 12.8658 18.7633 12.9075 18.4061 12.9159C17.9214 12.9325 17.458 13.0368 17.0286 13.1493C16.6545 13.2452 16.2803 13.2077 15.9614 13.1618C15.6086 13.116 15.2599 13.0243 14.9198 12.9409C14.7242 12.8909 14.5329 12.8408 14.3373 12.7991C14.2565 12.7825 14.1715 12.7658 14.0907 12.7491C13.9972 12.7283 13.8994 12.7074 13.8059 12.6866C13.6826 12.6574 13.623 12.5907 13.6188 12.4781C13.6145 12.2864 13.5805 12.0154 13.3169 11.8278C13.3127 11.8236 13.2999 11.8153 13.2999 11.8069C13.2957 11.7986 13.3042 11.7819 13.3169 11.7694C13.4785 11.5818 13.5082 11.3483 13.5167 11.1482C13.5167 11.0148 13.572 10.9231 13.6868 10.8439C13.7676 10.7897 13.8441 10.7313 13.9249 10.673C14.0354 10.5854 14.1502 10.4979 14.265 10.427C14.7285 10.1477 15.2514 10.0184 15.7063 9.92673C15.9657 9.87254 16.225 9.84752 16.4801 9.84335C16.748 9.87254 17.0201 9.88504 17.2837 9.89338C17.7939 9.91423 18.3211 9.93507 18.8185 10.0935C19.0821 10.1727 19.35 10.1894 19.6093 10.2019C19.7284 10.2102 19.8517 10.2144 19.9707 10.2269C20.2216 10.2561 20.4767 10.3103 20.719 10.3603C20.8168 10.3811 20.9146 10.402 21.0081 10.4187C21.0422 10.427 21.0762 10.4395 21.1017 10.4604C21.395 10.6688 21.7139 10.7772 22.0498 10.8856C22.2156 10.9398 22.3261 11.0232 22.3687 11.1357C22.4112 11.2525 22.3772 11.3942 22.2751 11.5526Z" fill="#282828"/>
<path d="M16.9792 7.51711C16.9749 7.61717 16.9069 7.74224 16.8559 7.82561C16.6221 8.21333 16.35 8.66357 16.0396 9.0763C15.8993 9.27224 15.7037 9.40148 15.4571 9.46401C15.3721 9.48902 15.287 9.50987 15.202 9.53071C14.9427 9.59325 14.6706 9.65578 14.4197 9.78085C14.0073 9.99347 13.7012 10.2103 13.4673 10.4687L13.4461 10.4937C13.4461 10.4937 13.4248 10.5188 13.4078 10.5313C13.293 10.648 13.293 10.6522 13.1782 10.5521C12.8636 10.2936 12.5915 10.1435 12.3066 10.0643C12.3066 10.0602 12.3151 10.0602 12.3194 10.056C12.4087 9.9893 12.498 9.92259 12.583 9.85589L12.7531 9.73082C12.9146 9.60992 13.0464 9.46401 13.1782 9.32227C13.2548 9.23472 13.3398 9.14717 13.4248 9.06379C13.4758 9.01793 13.5311 8.97624 13.5864 8.93455C13.7012 8.84701 13.8202 8.75946 13.8883 8.63439C14.1476 8.17164 14.5983 8.01322 15.0745 7.84646L15.1637 7.81728C15.3083 7.76308 15.4529 7.71305 15.5974 7.66303C15.9588 7.54213 16.3287 7.41289 16.6858 7.26281C16.7581 7.22946 16.8261 7.22946 16.8772 7.26281C16.9409 7.3045 16.9792 7.40038 16.9792 7.51711Z" fill="#EFEDE4"/>
<path d="M22.2588 11.5389C22.11 11.7598 21.9101 11.9307 21.6593 12.0433C20.8557 12.3977 20.1287 12.6395 19.4442 12.7812C19.0998 12.8521 18.7427 12.8938 18.3855 12.9021C17.9008 12.9188 17.4374 13.023 17.008 13.1356C16.6338 13.2315 16.2597 13.1939 15.9408 13.1481C15.5879 13.1022 15.2393 13.0105 14.8992 12.9271C14.7036 12.8771 14.5123 12.8271 14.3167 12.7854C14.2359 12.7687 14.1551 12.752 14.0701 12.7353C13.9766 12.7145 13.8788 12.6937 13.7852 12.6728C13.6619 12.6436 13.6024 12.5769 13.5982 12.4644C13.5939 12.2726 13.5599 12.0016 13.2963 11.814C13.2963 11.8098 13.2793 11.8015 13.2793 11.7932C13.2793 11.7848 13.2836 11.7682 13.2963 11.7556C13.4621 11.568 13.4876 11.3346 13.4961 11.1345C13.5004 11.0011 13.5557 10.9093 13.6662 10.8301C13.747 10.7759 13.8278 10.7176 13.9043 10.6592C14.0148 10.5717 14.1296 10.4841 14.2487 10.4132C14.7078 10.1339 15.2351 10.0047 15.6857 9.91297C15.9451 9.85877 16.2087 9.83376 16.4595 9.82959C16.7274 9.85877 16.9995 9.87128 17.2631 9.87962C17.7733 9.90046 18.3005 9.92131 18.7979 10.0797C19.0658 10.1589 19.3294 10.1756 19.5887 10.1881C19.7078 10.1965 19.8311 10.2006 19.9501 10.2131C20.201 10.2423 20.4561 10.2965 20.6984 10.3465C20.7962 10.3674 20.894 10.3882 20.9875 10.4049C21.0215 10.4132 21.0556 10.4257 21.0811 10.4466C21.3744 10.655 21.6976 10.7634 22.0292 10.8718C22.195 10.926 22.3055 11.0094 22.3481 11.122C22.3906 11.2387 22.3608 11.3804 22.2588 11.5389Z" fill="white"/>
<path d="M17.6003 16.4092C17.6003 16.4092 17.5111 16.4592 17.4856 16.4717C17.2347 16.5968 16.9584 16.626 16.6267 16.6302H16.6012C15.5596 16.6302 14.654 16.4134 13.8291 15.9756C13.5188 15.8089 13.1659 15.6213 12.881 15.3503C12.7832 15.2544 12.7195 15.1377 12.6472 15.0168C12.6089 14.9501 12.5664 14.8792 12.5196 14.8125C12.4389 14.6999 12.3623 14.5832 12.2858 14.4665C12.2433 14.3998 12.2008 14.3372 12.1582 14.2705C12.103 14.1913 12.0647 14.0954 12.0477 13.987C12.0222 13.8411 12.069 13.7619 12.2008 13.7161C12.273 13.691 12.3453 13.6785 12.4091 13.6785C12.6599 13.666 12.898 13.5785 13.1531 13.4076C13.1701 13.3992 13.1786 13.3909 13.1871 13.3825L13.1999 13.37L13.2339 13.3367C13.2339 13.3367 13.3359 13.2783 13.5995 13.2783C13.6718 13.2783 13.7611 13.2825 13.8674 13.2908H13.8844C14.3393 13.295 14.7135 13.3367 15.0664 13.5118C15.1599 13.5576 15.2407 13.6202 15.3257 13.6827C15.3725 13.7161 15.415 13.7494 15.466 13.7869L15.4873 13.8119C15.7509 14.1371 15.9039 14.3289 15.9422 14.3748C15.9465 14.3748 15.9465 14.3789 15.9507 14.3831C16.1718 14.6332 16.3759 14.9042 16.5672 15.171L16.6905 15.3336C16.9881 15.7422 17.256 16.059 17.5238 16.33C17.5791 16.3842 17.5961 16.4092 17.6003 16.4092Z" fill="#F4F4F4"/>
<path d="M14.7162 20.6946C14.7162 20.7946 14.6864 20.8697 14.6311 20.9114C14.5801 20.9447 14.5121 20.9489 14.4313 20.9239C14.189 20.8447 13.9339 20.7571 13.6192 20.6446C13.4662 20.5904 13.3259 20.5028 13.1558 20.3611C13.0028 20.2277 12.8412 20.1026 12.6881 19.9775C12.3693 19.7316 12.0461 19.4731 11.774 19.1688C11.2766 18.6018 10.8387 18.0807 10.4985 17.472C10.4135 17.3136 10.3625 17.1426 10.3115 16.9634C10.2774 16.8508 10.2434 16.7341 10.2009 16.6257C10.1839 16.5798 10.2094 16.5256 10.2264 16.5006C10.524 16.0254 10.6346 15.4792 10.5836 14.7372C10.5708 14.5371 10.5963 14.5037 10.8047 14.4578C10.8812 14.437 10.962 14.4245 11.0427 14.4078C11.1023 14.3995 11.166 14.387 11.2256 14.3745C11.3701 14.3453 11.4977 14.2744 11.6167 14.2035L11.6677 14.1785C11.6677 14.1785 11.6847 14.166 11.689 14.166C11.689 14.1702 11.6932 14.1702 11.6932 14.1744C11.7868 14.5579 12.0164 14.8664 12.2417 15.1624L12.2757 15.2124C12.399 15.3708 12.5138 15.5209 12.6073 15.6877C12.6414 15.746 12.6796 15.8044 12.7434 15.8419C13.1133 16.0587 13.2919 16.4131 13.4789 16.7841C13.9211 17.6554 14.2527 18.6351 14.5674 19.9567L14.5844 20.0317C14.6396 20.2652 14.6907 20.482 14.7162 20.6946Z" fill="#F4F4F4"/>
<path d="M10.1551 15.1872C10.1678 15.5541 10.0403 15.8876 9.90846 16.1669L9.87019 16.2503C9.78091 16.4504 9.68737 16.6547 9.54706 16.8298C9.51305 16.8798 9.46628 16.9048 9.41951 16.9048H9.41102C9.3685 16.9007 9.33023 16.8715 9.30472 16.8215C9.07088 16.367 8.82854 15.8959 8.73075 15.3748C8.65422 14.9871 8.735 14.7203 8.99435 14.516C9.04112 14.4785 9.08364 14.441 9.12616 14.4035C9.16442 14.3659 9.20268 14.3326 9.24095 14.2992C9.27496 14.2742 9.30898 14.2617 9.33874 14.2617C9.37275 14.2617 9.40251 14.2742 9.43227 14.3034C9.54707 14.4076 9.67887 14.4702 9.84043 14.4993C10.0062 14.5285 10.0955 14.6369 10.121 14.8245C10.1338 14.8996 10.138 14.9829 10.1423 15.0622C10.1466 15.1038 10.1508 15.1497 10.1551 15.1872Z" fill="#EFEDE4"/>
<path d="M9.19887 17.7474C8.93527 18.4186 8.54837 19.0148 8.05518 19.5192C8.05093 19.5192 8.04243 19.5317 8.04243 19.5317C8.02542 19.5443 8.01266 19.5609 7.99991 19.5734C7.97865 19.5943 7.94464 19.6276 7.93613 19.6318C7.91063 19.6193 7.89787 19.6026 7.89362 19.5818C7.88936 19.5693 7.89362 19.5734 7.88512 19.5651C7.80008 19.3983 7.69804 18.9648 7.66828 18.8314C7.52797 18.2727 7.4642 17.7058 7.48121 17.1471C7.48546 17.0095 7.48546 16.872 7.48546 16.7344C7.48546 16.5093 7.48546 16.28 7.50247 16.0548C7.53223 15.6755 7.63852 15.3044 7.72355 15.0251C7.76607 14.8959 7.81709 14.8667 8.00416 14.8667H8.06369C8.15722 14.875 8.25076 14.8792 8.26351 14.8917C8.27202 14.9042 8.26776 14.9668 8.26776 15.0209C8.26351 15.0501 8.26351 15.0835 8.26351 15.1168C8.24651 15.7213 8.48035 16.2508 8.72694 16.7469C8.73544 16.7594 8.74395 16.7761 8.75245 16.7886C8.76946 16.8178 8.78647 16.8469 8.79497 16.8803C8.83749 17.022 8.93952 17.1096 9.02455 17.168C9.24989 17.3305 9.30091 17.4973 9.19887 17.7474Z" fill="white"/>
<path d="M7.03739 19.8442C6.96936 19.9234 6.90559 20.011 6.84607 20.0943C6.81631 20.136 6.78654 20.1777 6.75678 20.2194C6.45491 20.6154 6.13604 20.974 5.81291 21.295C5.7704 21.3367 5.71938 21.3784 5.65561 21.4242C5.54081 21.5034 5.49829 21.4993 5.41326 21.3867C5.30272 21.245 5.23469 21.074 5.20493 20.8656C5.17092 20.6238 5.15816 20.3736 5.14541 20.1318C5.13691 19.9568 5.1284 19.7817 5.1114 19.6066C5.08589 19.1938 5.09439 18.7686 5.14966 18.3392C5.16667 18.1933 5.18367 18.0474 5.20068 17.8973C5.24744 17.4512 5.29846 16.9885 5.42601 16.5466C5.55356 16.113 5.71087 15.7878 5.93196 15.5252C6.034 15.3959 6.14454 15.3167 6.27209 15.275C6.51444 15.2 6.69725 15.0499 6.86732 14.904C6.9396 14.8373 7.00338 14.8081 7.0714 14.8081C7.09266 14.8081 7.11817 14.8123 7.13943 14.8206C7.21171 14.8373 7.21596 14.8665 7.21171 14.9123C7.20321 14.9373 7.19895 14.9624 7.1947 14.9874C7.19045 15.0291 7.18195 15.0707 7.16919 15.1124C7.06715 15.4626 7.02889 15.817 7.00338 16.2422C6.97787 16.7091 6.96511 17.0927 6.96511 17.4512C6.96511 18.0015 7.04589 18.5226 7.19045 19.0021C7.29674 19.3439 7.24997 19.6024 7.03739 19.8442Z" fill="#F4F4F4"/>
<path d="M6.2 13.4407C5.9534 13.8826 5.99592 14.2078 6.34881 14.5621C6.36581 14.583 6.37007 14.5913 6.37432 14.5955C6.37007 14.5955 6.36581 14.6038 6.34455 14.6205C6.28928 14.658 6.22551 14.6914 6.14472 14.7205C5.60051 14.9165 5.14559 15.2667 4.76294 15.5793C4.12094 16.1088 3.57673 16.7341 3.13031 17.2719C2.8412 17.6221 2.52233 17.9431 2.22046 18.235C1.98662 18.4601 1.80805 18.6852 1.66774 18.9187C1.58696 19.0521 1.48492 19.1104 1.34037 19.0938C0.944963 19.0562 0.859931 19.0146 0.770647 18.6477C0.719627 18.4142 0.706871 18.1766 0.702619 17.8931C0.685612 17.5179 0.821668 17.101 0.944966 16.78C1.27234 15.9129 1.83356 15.1124 2.66263 14.3245C3.3599 13.6658 4.05717 13.1905 4.79695 12.8612C5.29014 12.6444 5.71531 12.5318 6.13197 12.5068C6.17874 12.5068 6.22551 12.5068 6.27228 12.4818C6.31479 12.461 6.35306 12.4526 6.39558 12.4526C6.47636 12.4526 6.55713 12.4943 6.66343 12.5902C6.7187 12.6402 6.78248 12.6944 6.78673 12.7153C6.78673 12.732 6.71445 12.8028 6.66768 12.8487C6.47636 13.028 6.31904 13.2281 6.2 13.4407Z" fill="white"/>
<path d="M6.32404 11.8774C6.23901 11.9441 6.13272 11.9566 6.01792 11.9692H5.98391C5.75007 12.0025 5.55449 12.0525 5.38018 12.1192C5.14208 12.2151 4.90399 12.3068 4.6659 12.3986C4.48308 12.4694 4.29601 12.5445 4.10894 12.6153C4.07067 12.632 4.04516 12.6362 4.02391 12.6278C3.73054 12.4944 3.41167 12.4653 3.1098 12.4569C2.73991 12.4486 2.46355 12.2318 2.23821 12.0317C2.23396 12.0317 2.22546 12.0233 2.22121 12.0233C2.09791 11.8983 1.75778 11.7524 1.48567 11.644C1.48142 11.644 1.47292 11.6398 1.46866 11.6398C1.36237 11.6148 1.25183 11.5814 1.14979 11.5314C0.99248 11.4564 0.822416 11.3855 0.626841 11.3146C0.567318 11.2938 0.529053 11.2688 0.52055 11.2438C0.507795 11.2187 0.520553 11.1729 0.550314 11.1145C0.665109 10.8894 0.856429 10.7143 1.17105 10.5475C1.35812 10.4517 1.57071 10.3975 1.75778 10.3975H1.8088C2.03413 10.3975 2.17869 10.4266 2.30624 10.5017C2.55709 10.6434 2.83345 10.7018 3.1013 10.7518L3.18208 10.7685C3.3819 10.8102 3.57323 10.8936 3.75605 10.9728C3.81132 10.9978 3.87084 11.0228 3.92611 11.0436C4.61913 11.3355 5.36743 11.4981 6.14973 11.5314H6.18799C6.18799 11.5314 6.21775 11.5314 6.22626 11.5356C6.26027 11.5439 6.29854 11.5398 6.3283 11.5356C6.38782 11.5314 6.39207 11.5356 6.40482 11.5606C6.44309 11.669 6.40482 11.8149 6.32404 11.8774Z" fill="#EFEDE4"/>
<path d="M15.2794 2.55126C15.2794 2.69717 15.2496 2.83475 15.1943 2.96399C14.9307 3.56015 14.7394 4.18966 14.5566 4.79832C14.5183 4.91922 14.4843 5.04012 14.4461 5.16102C14.1612 6.08236 13.8041 7.16628 13.3321 8.18768C13.1408 8.59623 12.958 8.95893 12.6519 9.25076C12.5413 9.35915 12.4138 9.48005 12.2692 9.5676C12.0694 9.68433 11.8696 9.82607 11.6782 9.99283C11.5847 10.072 11.4742 10.0887 11.3509 10.1054C11.3636 10.0595 11.3849 10.0178 11.4019 9.97615C11.5592 9.60095 11.4954 9.34247 11.168 9.08817C10.9682 8.92975 10.7429 8.76716 10.4495 8.73381C10.3645 8.7213 10.3007 8.65877 10.2454 8.52953C10.1094 8.21686 10.0754 7.89585 10.1434 7.58318C10.2879 6.92866 10.5983 6.3325 11.0617 5.81138C11.1298 5.7405 11.185 5.6613 11.2318 5.58209C11.2658 5.53206 11.3041 5.49037 11.3466 5.46952C11.3551 5.46119 11.3636 5.45285 11.3679 5.44451L11.81 4.91088C11.8313 4.88587 11.8568 4.86086 11.8823 4.83584L12.4605 4.28971C12.5796 4.16047 12.7071 4.03958 12.8347 3.92284C12.975 3.79778 13.1153 3.66437 13.2428 3.52263C13.4044 3.34336 13.5702 3.16827 13.736 2.99734C13.8041 2.92647 13.8721 2.85143 13.9401 2.78055C14.1017 2.60963 14.2292 2.42619 14.327 2.23859C14.429 2.03848 14.7564 1.85088 14.9945 1.86339C15.0285 1.86755 15.0455 1.88006 15.071 1.92175C15.2113 2.13437 15.2794 2.33864 15.2794 2.55126Z" fill="white"/>
<path d="M11.1316 4.98218C10.8382 5.30319 10.4725 5.70341 10.2047 6.14949C9.86031 6.72897 9.66898 7.23341 9.6052 7.73369C9.55844 8.09222 9.60946 8.42573 9.76252 8.71339C9.77102 8.7259 9.77527 8.7384 9.77527 8.74674H9.74977C9.69024 8.74257 9.63497 8.75091 9.57545 8.75508C9.54569 8.75925 9.52018 8.75925 9.47766 8.76759C9.45215 8.77176 9.43939 8.77176 9.43939 8.77176C9.43939 8.77176 9.43089 8.75508 9.43089 8.70922C9.43089 8.36737 9.37137 8.03385 9.24807 7.68783C9.0695 7.19173 9.00148 6.66644 8.95896 6.21619C8.94195 6.02859 8.9462 5.82848 8.9547 5.64088C8.9547 5.54082 8.95896 5.44077 8.95896 5.34071C8.96746 5.28652 9.00572 5.02387 9.04824 4.78624L9.0695 4.65701C9.15453 4.21927 9.23106 3.80654 9.51592 3.46052C9.69449 3.24373 9.91132 3.07281 10.1622 2.95608C10.243 2.91439 10.3705 2.8852 10.5236 3.0603C10.6299 3.18537 10.7191 3.33128 10.7829 3.50221C10.8935 3.79403 10.9997 4.08586 11.106 4.38186L11.1953 4.63616C11.2506 4.77791 11.2336 4.87796 11.1316 4.98218Z" fill="#F4F4F4"/>
<path d="M8.96475 8.67151C8.95199 8.9008 8.84571 9.06756 8.65438 9.16345C8.21646 9.38857 8.19095 9.78462 8.21221 10.0598V10.0848C8.21646 10.1265 8.22071 10.1682 8.22071 10.1765C8.20796 10.1848 8.15269 10.1973 8.11017 10.2015C7.63399 10.2849 7.26409 10.4141 6.93671 10.6142C6.86443 10.6559 6.80917 10.706 6.76665 10.7643C6.67736 10.8977 6.54131 10.9686 6.35424 10.9769C6.00986 10.9936 5.69949 10.9644 5.41037 10.8811C5.28708 10.8435 5.16803 10.8102 5.04473 10.7768C4.78963 10.706 4.52603 10.6309 4.27094 10.5475C3.83302 10.3975 3.39084 10.1515 2.92316 9.79713L2.65956 9.60118C2.2514 9.29268 1.82624 8.97167 1.43083 8.63399C1.29903 8.52143 1.17998 8.38802 1.06944 8.23794C1.00992 8.1629 0.988663 8.10036 1.00567 8.05034C1.01842 8.00031 1.0737 7.95445 1.16723 7.91276C1.55413 7.75851 1.97079 7.67096 2.41296 7.66262C2.44272 7.66262 2.46823 7.65846 2.49799 7.65846C2.96142 7.65846 3.44611 7.75851 4.01583 7.95862C4.10512 7.99197 4.19441 8.02532 4.28369 8.05451C4.52603 8.13789 4.77688 8.22126 5.01072 8.34216C5.32534 8.49641 5.6102 8.70903 5.88231 8.91331C5.94183 8.95917 5.9971 9.00086 6.05663 9.04255C6.1119 9.08424 6.17141 9.13009 6.23094 9.17178C6.34573 9.2635 6.46903 9.35522 6.59658 9.4386C6.84317 9.60535 7.11103 9.6929 7.39164 9.70124H7.54895C7.668 9.70958 7.79129 9.70958 7.91459 9.70958C7.99112 9.70958 8.05064 9.67623 8.08041 9.62203C8.11017 9.572 8.10592 9.50113 8.0634 9.43443C8.00388 9.3302 7.90184 9.26767 7.78704 9.2635C7.13229 9.22598 6.69862 8.8341 6.32447 8.4172C6.05237 8.11287 5.84404 7.75434 5.64846 7.40415L5.6102 7.34579C5.3551 6.89971 5.06599 6.4578 4.78963 6.03257C4.7046 5.90333 4.61957 5.77409 4.53454 5.64069C4.41974 5.46142 4.33046 5.28216 4.27094 5.10706C4.14339 4.71518 3.96907 4.33581 3.799 3.97311C3.73523 3.8397 3.67145 3.70213 3.61193 3.56872C3.50564 3.33109 3.41635 3.08512 3.33132 2.84332L3.25479 2.6182C3.16125 2.3639 3.10173 2.10959 3.03796 1.82193C2.96993 1.50926 2.93591 1.17575 2.94442 0.800541C2.94867 0.7255 2.96142 0.662966 2.98268 0.604601C3.01244 0.542066 3.02945 0.52956 3.0422 0.525391C3.05071 0.525391 3.07197 0.525391 3.12724 0.558742C3.28455 0.654628 3.42911 0.775527 3.56941 0.888089C3.62043 0.929778 3.67145 0.971468 3.72247 1.01316C4.61957 1.73438 5.27857 2.32221 5.84829 2.93087C6.33298 3.43948 6.81767 4.01063 7.37463 4.72352C7.99112 5.51562 8.33975 6.40777 8.60336 7.17903C8.63737 7.27908 8.67138 7.37914 8.70965 7.47502C8.80318 7.72516 8.90098 7.98363 8.93924 8.25045C8.95625 8.38385 8.97325 8.5256 8.96475 8.67151Z" fill="white"/>
</svg>
