<svg width="137" height="48" viewBox="0 0 137 48" fill="none" xmlns="http://www.w3.org/2000/svg">
<g clip-path="url(#clip0_318_138)">
<path d="M2.1563 43.0293C1.43553 43.0293 0.810864 42.6759 0.282301 41.9692C0.0961024 41.6924 0 41.4332 0 41.1859C0 40.909 0.0961024 40.6322 0.282301 40.3554C0.564602 39.9255 0.876935 39.7135 1.2193 39.7135C1.34543 39.7135 1.45355 39.7311 1.54965 39.7606C1.92205 39.8548 2.28243 39.896 2.6308 39.896C3.0993 39.896 3.58582 39.8195 4.08435 39.6663C7.14762 38.9596 8.77535 38.6062 8.96155 38.6062L14.7818 37.3164C14.5956 36.9807 14.4995 36.6744 14.4995 36.3976C14.4995 35.9677 14.6857 34.6779 15.0641 32.5341C15.1902 31.8921 15.2503 31.2443 15.2503 30.6023C15.2503 30.0192 15.2022 29.4244 15.1121 28.806L15.0641 28.1169C15.0641 27.4455 15.2142 26.8389 15.5085 26.297C15.8028 25.7611 16.1873 25.4901 16.6558 25.4901C17.5927 25.4901 18.0612 26.7152 18.0612 29.1711L17.7789 30.9674C17.2804 34.5542 16.854 36.5508 16.5116 36.9513L21.7672 35.8911C27.4613 34.8781 30.8549 34.1596 31.948 33.7297C32.2003 33.6354 32.4466 33.5942 32.6988 33.5942C33.1373 33.5942 33.5457 33.7297 33.9181 34.0065C34.3866 34.3716 34.6209 34.8487 34.6209 35.4317C34.6209 35.8322 34.4647 36.4447 34.1524 37.2693C33.9962 37.6344 33.7319 37.8229 33.3535 37.8229C33.1313 37.8229 32.9391 37.7405 32.7649 37.5697C32.5907 37.3989 32.4286 37.2045 32.2724 36.9689C32.1162 36.7392 31.882 36.6214 31.5696 36.6214L27.7195 37.2222C27.0288 37.2222 24.0136 37.711 18.6619 38.6946L10.0247 40.5792C8.89548 40.7971 7.77228 41.0386 6.64909 41.3154C5.58595 41.498 4.53483 41.9162 3.50774 42.5581C3.06927 42.8644 2.61879 43.0175 2.14429 43.0175L2.1563 43.0293ZM6.0965 29.9603C5.87426 29.9603 5.628 29.8366 5.3457 29.5952C4.84717 29.1947 4.5949 28.8413 4.5949 28.5351C4.5949 28.1699 4.62493 27.9697 4.691 27.9343C4.75106 27.9049 4.7871 27.8754 4.7871 27.8401C5.2556 27.5338 5.71209 27.2099 6.15055 26.8742C7.18366 25.9554 8.34289 25.2487 9.62226 24.7598C10.5893 24.4241 11.4542 23.9176 12.205 23.2403L19.2445 16.7088H19.2926C19.5448 16.4614 19.701 16.2317 19.7611 16.0197C19.7611 15.9608 19.719 15.8843 19.6409 15.79C19.5628 15.6958 19.4908 15.6546 19.4307 15.6546C18.3676 15.6546 17.3645 15.7311 16.4275 15.8843C14.8658 16.1611 13.2862 16.3319 11.6885 16.3908C11.0338 16.3908 10.4271 16.2317 9.88053 15.9078C9.33395 15.5839 9.04564 15.1186 9.0096 14.5061C9.0096 14.1409 9.14775 13.7993 9.43005 13.4931C9.61625 13.3105 9.82047 13.2163 10.0427 13.2163L10.325 13.2634C11.1359 13.5402 11.9527 13.6757 12.7636 13.6757C13.2922 13.6757 13.8327 13.6227 14.3853 13.5166C14.9319 13.4106 15.5025 13.34 16.0972 13.3105C16.3134 13.3105 16.5296 13.2811 16.7278 13.2163C16.932 13.1574 17.1423 13.122 17.3585 13.122C18.1694 13.0926 18.9202 12.8335 19.6109 12.3387C20.3016 11.8499 21.1606 11.6025 22.1937 11.6025L23.1306 11.6497C24.6923 11.6497 25.4792 12.327 25.4792 13.6757C25.4491 14.2882 25.1368 14.7947 24.5422 15.1952C22.3198 16.6381 20.2896 18.3697 18.4397 20.3957C19.0043 21.2555 19.659 21.8681 20.4098 22.2332C21.8513 23.0636 23.2268 23.8293 24.5422 24.536C25.323 24.9954 25.7314 25.5667 25.7615 26.2381C25.7615 26.6033 25.6593 26.9036 25.4551 27.1333C25.2509 27.363 24.9626 27.4808 24.5842 27.4808C24.0196 27.4808 23.425 27.1746 22.8003 26.562C22.3618 26.0732 20.7041 25.072 17.827 23.5701C16.9801 23.0813 16.4515 22.834 16.2293 22.834C15.977 22.834 15.7308 22.9576 15.4785 23.1991C12.7876 25.5903 11.0998 26.9449 10.4091 27.2511C9.09369 27.8636 7.90442 28.647 6.84129 29.5952C6.55899 29.8425 6.30672 29.9603 6.09049 29.9603H6.0965Z" fill="#282828"/>
<path d="M33.5403 32.3574C32.9757 32.328 32.6934 32.0983 32.6934 31.6684C32.6934 31.5152 32.7474 31.3857 32.8555 31.2797C32.9636 31.1736 33.3661 30.9498 34.0508 30.6141C36.3332 29.6306 38.1952 28.3584 39.6368 26.7977C39.9191 26.4914 40.2614 26.2441 40.6699 26.0615C41.733 25.5727 42.7361 24.8188 43.6731 23.8058C44.0154 23.4053 44.3938 23.0401 44.8023 22.6986C45.457 22.086 46.1297 21.2909 46.8204 20.3074C48.0998 18.7408 48.9167 17.1329 49.259 15.4779C49.229 15.419 49.1209 15.3837 48.9287 15.3837C45.1146 15.6605 42.7841 15.8725 41.9372 16.0257C41.4387 15.9668 40.8861 15.9314 40.2975 15.9314C39.829 15.9314 38.6097 15.9786 36.6396 16.0669L36.5915 16.114C35.9008 16.0551 35.5584 15.7312 35.5584 15.1481C35.5584 14.4767 37.03 14.0762 39.9671 13.9525C41.4687 13.8936 42.9403 13.7052 44.3758 13.3989C44.6281 13.3695 44.9224 13.3518 45.2648 13.3518H46.0156C47.6133 13.3518 49.1569 12.9984 50.6585 12.2917C50.8447 12.168 51.0489 12.1091 51.2712 12.1091C51.8358 12.1091 52.2382 12.4154 52.4905 13.0279C52.6166 13.3636 52.6767 13.6698 52.6767 13.9467C52.6767 14.0998 52.6586 14.2411 52.6286 14.3589C52.5025 14.6652 52.4064 15.0009 52.3463 15.3719C52.1601 16.2318 51.8117 17.0269 51.3132 17.7631C51.0309 18.0988 50.8447 18.4227 50.7486 18.729C49.4332 21.7386 47.4151 24.1886 44.6942 26.0909C42.4718 27.8696 39.9551 29.4833 37.1381 30.9204C35.8227 31.7508 34.6214 32.222 33.5222 32.3457L33.5403 32.3574ZM58.7371 48.0001C58.5509 48.0001 58.3647 47.9707 58.1725 47.9059C58.1725 47.8765 58.1545 47.8588 58.1245 47.8588C57.9383 47.8294 57.7641 47.7646 57.6079 47.6762C56.9172 47.2757 56.5748 46.7869 56.5748 46.2038C56.5748 45.8033 56.8151 45.4087 57.3016 45.0082C57.7881 44.6077 58.1064 44.1012 58.2626 43.4887C59.0735 39.2247 59.4999 36.9278 59.53 36.5862C59.53 36.2799 59.3738 36.1268 59.0615 36.1268H58.8753C57.8121 36.3447 56.731 36.4801 55.6378 36.539C54.2924 36.6038 52.977 36.7982 51.6976 37.1398C51.163 37.2635 50.6044 37.3224 50.0098 37.3224C49.0067 37.3224 48.0697 37.552 47.1928 38.0114C47.0667 38.1057 46.9285 38.1469 46.7724 38.1469C46.46 38.1174 46.1957 37.9761 45.9735 37.7346C45.6311 37.181 45.457 36.7216 45.457 36.3565C45.457 35.6851 45.8173 35.3435 46.5381 35.3435H46.8204C47.0727 35.4082 47.4751 35.4377 48.0397 35.4377C48.8506 35.4377 49.7155 35.3435 50.6225 35.1609C52.064 34.8252 53.5176 34.6544 54.9891 34.6544H55.3195C56.1964 34.6544 56.8031 34.407 57.1514 33.9182C57.3677 33.7062 57.5238 33.5943 57.6199 33.5943H57.8542C58.3227 33.5943 58.8813 33.394 59.5179 32.9935C60.1606 32.593 60.6832 32.3928 61.0916 32.3928C61.5601 32.3928 61.9505 32.5754 62.2629 32.9464C62.4791 33.1938 62.5932 33.4824 62.5932 33.8181C62.5932 34.0006 62.5452 34.2186 62.4551 34.46C61.5781 36.8217 60.9835 39.3366 60.6712 42.0046C60.545 42.8939 60.3889 43.689 60.2027 44.3957C60.0765 44.7609 60.0165 45.1496 60.0165 45.5442C60.0165 45.821 60.0465 46.1096 60.1126 46.4158L60.1606 46.6927C60.1606 47.0932 60.0105 47.4053 59.7162 47.635C59.4158 47.8647 59.0975 47.9825 58.7551 47.9825L58.7371 48.0001ZM59.0675 31.8038C58.3167 31.8038 57.9383 31.1619 57.9383 29.872C57.9683 28.9533 58.0163 28.382 58.0764 28.17C58.4488 26.5444 58.641 24.9366 58.641 23.3405L58.593 22.2804C58.593 20.5606 58.6891 18.8586 58.8753 17.1741L59.2056 11.2846C59.2056 10.301 59.0795 9.35279 58.8332 8.43401L58.7852 7.83328C58.7852 7.03819 59.1455 6.6377 59.8663 6.6377C60.1486 6.6377 60.4309 6.73193 60.7132 6.9145C61.1817 7.25021 61.416 7.77438 61.416 8.48113C61.0736 12.8689 60.8033 16.7795 60.6171 20.2132H60.7132C60.7433 20.1837 62.9056 20.0777 67.1881 19.8892C67.9389 19.8892 68.4375 20.2249 68.6897 20.9022C68.7858 21.0848 68.8279 21.2674 68.8279 21.4559C68.8279 21.9447 68.5215 22.3157 67.9149 22.5631C67.3022 22.8105 66.7316 22.9282 66.2031 22.9282C65.8607 22.9282 65.5123 22.8517 65.17 22.6986C65.1399 22.6691 65.0498 22.6279 64.9117 22.5808C64.7735 22.5336 64.281 22.5101 63.4341 22.5101C62.1187 22.5395 61.1817 22.5867 60.6171 22.6455V23.6586H60.6652L60.5691 26.4679C60.5691 27.3572 60.6472 28.2465 60.8033 29.1359C60.8634 29.3832 60.8994 29.6129 60.8994 29.8249C60.8994 30.6848 60.509 31.2797 59.7282 31.6213C59.5059 31.7449 59.2897 31.8038 59.0735 31.8038H59.0675Z" fill="#282828"/>
<path d="M86.2273 31.9453C86.1012 31.9453 85.9751 31.8982 85.8549 31.8098C85.3864 31.533 85.0441 31.1502 84.8218 30.6614C84.1011 29.2537 83.0379 28.0994 81.6324 27.2101C80.8816 26.627 80.269 26.3384 79.8005 26.3384C79.6443 26.3384 79.5122 26.3855 79.4041 26.4739C79.2959 26.5681 79.2059 26.6447 79.1458 26.7036C76.0825 29.0947 74.2205 30.6142 73.5598 31.2562C73.0913 31.6861 72.6829 31.8982 72.3405 31.8982C71.872 31.8982 71.4936 31.533 71.2113 30.7909C71.1513 30.6672 71.1152 30.5318 71.1152 30.3787C71.1152 29.825 71.5357 29.2714 72.3826 28.7237C74.695 27.3161 76.8393 25.6847 78.8094 23.8471C81.3141 21.7033 82.9719 20.0307 83.7827 18.8292C84.065 18.4935 84.2032 18.2756 84.2032 18.1872C84.2032 18.1283 84.1792 18.04 84.1311 17.934C84.0831 17.828 82.5094 17.7573 79.4161 17.7279C78.6352 17.7279 77.8844 17.8515 77.1637 18.093C76.9114 18.1578 76.6772 18.1872 76.4609 18.1872C76.0225 18.1872 75.632 18.0518 75.2897 17.775C74.7251 17.345 74.4428 16.7796 74.4428 16.0729C74.5989 15.4898 75.0194 15.2012 75.7101 15.2012C77.6802 15.4191 79.0737 15.5252 79.8846 15.5252C80.8876 15.5252 81.9027 15.4663 82.9358 15.3426C83.9029 15.3426 84.8759 15.054 85.8429 14.4709C86.0952 14.3178 86.2814 14.2412 86.4075 14.2412C86.6598 14.2412 87.1583 14.5946 87.9091 15.3013C88.2815 15.6076 88.4737 15.8844 88.4737 16.1318C88.4737 16.3144 88.3957 16.5323 88.2395 16.7737C86.834 19.1355 84.8158 21.5737 82.185 24.0886C81.9027 24.336 81.7646 24.5362 81.7646 24.6893C81.7646 24.9661 82.2631 25.5492 83.2662 26.4385C83.6746 26.8037 84.047 27.1747 84.3954 27.5458C84.5816 27.7283 84.7858 27.8226 85.008 27.8226C85.1642 27.8226 85.3144 27.7872 85.4525 27.7048C85.5907 27.6282 85.7108 27.587 85.8069 27.587C86.1192 27.587 86.2754 27.7578 86.2754 28.0935C86.3054 29.0123 86.5096 29.8898 86.888 30.7144L86.9361 30.9441C86.9361 31.586 86.7018 31.9276 86.2333 31.9571L86.2273 31.9453ZM86.0411 45.1026C84.8819 45.1026 84.3053 44.2427 84.3053 42.5229C84.3053 40.3791 83.8488 38.3355 82.9418 36.4037C82.8157 36.1269 82.6896 35.6852 82.5694 35.0668C82.5694 34.6368 82.8517 34.4248 83.4163 34.4248C84.011 34.4248 84.3714 34.6545 84.4975 35.1139C84.6837 35.8795 84.9059 36.6157 85.1522 37.3225C85.5907 38.6123 85.903 39.9315 86.0892 41.2802C86.1493 41.6807 86.2213 42.0636 86.2994 42.4287C86.3775 42.7939 86.6178 43.0118 87.0262 43.0707C87.2785 43.1296 87.4767 43.1944 87.6388 43.2533C87.795 43.3121 87.8731 43.5595 87.8731 43.9895L87.9211 44.3546C86.9481 44.8434 86.3234 45.0908 86.0471 45.0908L86.0411 45.1026ZM89.2786 47.3112C88.9963 47.3112 88.714 47.2523 88.4317 47.1286C87.837 46.8518 87.5067 46.3747 87.4466 45.7033C87.4466 45.4854 87.6208 45.0437 87.9632 44.3664L88.4797 44.3193L89.3266 44.3664C91.1706 44.3664 92.9065 43.7833 94.5342 42.6172C94.9066 42.3109 95.0988 41.8339 95.0988 41.1919L95.1468 41.0093C94.6483 40.762 94.348 40.5971 94.2579 40.5028C93.8495 40.0434 93.3329 39.8137 92.7082 39.8137C91.4889 39.908 90.6601 40.3202 90.2216 41.0564C89.8492 41.6101 89.4528 41.8869 89.0503 41.8869C88.8641 41.8869 88.6599 41.8103 88.4377 41.6572C87.9992 41.3215 87.783 40.9387 87.783 40.5087C87.783 40.3556 87.813 40.1848 87.8791 40.0022C88.1614 39.3897 88.5818 38.9126 89.1464 38.5769C90.2396 37.935 91.3688 37.611 92.522 37.611C93.8975 37.611 94.8706 37.8879 95.4291 38.4415L95.7595 38.7183C95.9757 38.3826 96.1679 37.7995 96.3241 36.9691C96.5764 36.1092 96.6965 35.2375 96.6965 34.3482V34.0243C96.6965 33.0761 97.0569 32.599 97.7776 32.599C98.1861 32.599 98.5224 32.758 98.7867 33.082C99.051 33.4059 99.1831 33.8123 99.1831 34.3011C99.1831 34.9431 98.4504 37.6464 96.9788 42.3993C96.7265 42.9823 96.6064 43.5065 96.6064 43.9659L96.6544 44.655C96.6544 45.2086 95.9036 45.5443 94.402 45.668C92.8704 45.6974 91.4769 46.1745 90.2276 47.0933C89.8852 47.2464 89.5729 47.3229 89.2906 47.3229L89.2786 47.3112ZM96.1739 32.5872C96.0478 32.5872 95.9217 32.5401 95.8015 32.4518C95.0808 31.8393 94.7204 31.1973 94.7204 30.52C94.7204 30.308 94.7504 30.0901 94.8165 29.878C95.285 28.1583 95.6274 25.3666 95.8496 21.5031C96.1319 18.0047 96.2881 15.6606 96.3181 14.465C96.3181 13.0869 96.1139 12.1328 95.7054 11.6145C95.1709 10.7252 94.9066 9.78871 94.9066 8.80515V8.48123L94.8585 8.34577C94.8585 8.09841 94.8766 7.86282 94.9066 7.63313C94.9366 7.40344 95.1408 7.28564 95.5192 7.28564C95.8015 7.28564 96.192 7.4211 96.6905 7.69791C98.066 8.71092 98.7567 11.2729 98.7567 15.3838C98.7567 16.6088 98.6786 17.8221 98.5224 19.0177C98.4263 19.695 98.1621 22.1627 97.7236 26.4268C97.2551 29.9252 96.9908 31.798 96.9247 32.0395C96.8647 32.4047 96.6124 32.5931 96.1739 32.5931V32.5872Z" fill="#282828"/>
<path d="M124.32 15.2247C124.308 15.4014 124.205 15.5604 124.019 15.7195C123.947 15.7783 123.869 15.8372 123.797 15.8902C123.731 15.9433 123.671 15.9963 123.605 16.0434C123.353 16.2377 123.088 16.3614 122.812 16.4085C121.749 16.5911 121.064 16.6147 120.794 16.4792C120.482 16.3261 120.397 15.743 120.361 15.5251V15.4544C120.319 15.2718 120.211 14.889 120.205 14.8831C120.205 14.8714 120.199 14.8655 120.199 14.8596C120.211 14.8242 120.283 14.7771 120.319 14.7477L120.361 14.7064C120.674 14.4296 121.058 14.141 121.575 14.0704C121.755 14.0468 121.923 13.982 122.085 13.9231C122.163 13.8878 122.241 13.8642 122.325 13.8407C122.458 13.7936 122.572 13.7936 122.662 13.8289C123.154 14.0115 123.701 14.2588 124.121 14.7182C124.272 14.889 124.344 15.0598 124.332 15.2306L124.32 15.2247Z" fill="#FFE888"/>
<path d="M122.524 18.2873C122.344 18.4286 122.146 18.6112 121.978 18.8409C121.846 19.0235 121.647 19.0883 121.449 19.1354C121.437 19.1354 121.431 19.1413 121.425 19.1413L120.789 19.3239C120.747 19.3415 120.68 19.3592 120.59 19.3828H120.566C120.032 19.53 119.587 19.4711 119.155 19.2002C118.662 18.8939 118.5 18.4404 118.662 17.8868C118.842 17.3273 119.179 16.9857 119.695 16.8502C119.755 16.8326 119.81 16.7972 119.846 16.7737C119.864 16.756 119.906 16.7266 119.918 16.7266C119.966 16.7501 120.002 16.809 120.044 16.862C120.068 16.8974 120.092 16.9209 120.11 16.9445C120.368 17.2566 120.704 17.4098 121.107 17.4098H121.125C121.491 17.4098 121.846 17.3862 122.116 17.3567C122.44 17.3391 122.596 17.4215 122.711 17.6866C122.795 17.8927 122.729 18.1047 122.518 18.2814L122.524 18.2873Z" fill="#F4D13D"/>
<path d="M118.007 19.359C118.007 19.359 117.995 19.3708 117.989 19.3767C117.839 19.5887 117.358 19.7595 117.004 19.8361C116.998 19.8361 116.986 19.842 116.968 19.842C116.842 19.895 116.691 19.9185 116.469 19.9185C115.76 20.0245 115.586 19.9303 115.58 19.9303C115.568 19.9126 115.544 19.895 115.52 19.8891C115.484 19.8832 115.436 19.8655 115.346 19.8302C114.956 19.6653 114.571 19.5004 114.187 19.3355C114.019 19.2707 113.977 19.2 113.977 19.1823C114.013 18.6051 114.595 17.8631 115.202 17.8513L115.604 17.8395C115.851 17.8277 116.085 17.8218 116.325 17.8159C116.469 17.8101 116.631 17.8218 116.764 17.8866C116.866 17.9337 116.95 17.9455 117.028 17.9102C117.118 17.8748 117.184 17.8042 117.238 17.6805L117.256 17.6275C117.274 17.5745 117.298 17.5156 117.322 17.4626C117.328 17.4449 117.334 17.4449 117.34 17.4508C117.334 17.5862 117.364 17.6923 117.442 17.7629C117.508 17.8395 117.616 17.8748 117.755 17.8689C117.652 18.293 117.797 18.6758 117.923 19.0174C117.947 19.0881 117.971 19.1705 117.983 19.253L117.995 19.3237L118.001 19.3472L118.007 19.359Z" fill="#FFE888"/>
<path d="M118.295 15.9843C117.833 16.4791 117.286 16.803 116.68 16.9502C116.566 16.9856 116.445 16.9856 116.313 16.9915C116.253 16.9915 116.187 16.9915 116.133 16.9973C115.851 16.9973 115.472 16.9738 115.118 16.7794C114.517 16.4378 114.403 15.5308 114.716 14.9831C114.884 14.6827 115.094 14.4884 115.37 14.3883C115.677 14.2764 116.007 14.2057 116.355 14.1821H116.409C116.62 14.1821 116.8 14.2705 116.908 14.4472C117.124 14.8064 117.443 15.0008 117.905 15.0597C118.157 15.0832 118.349 15.2246 118.428 15.4248C118.5 15.6192 118.446 15.8253 118.289 15.9961L118.295 15.9843Z" fill="#F4D13D"/>
<path d="M120.974 13.3283C120.632 13.7346 120.182 13.9879 119.701 14.2588L119.659 14.2824C119.263 14.3707 118.944 14.3472 118.932 14.3472C118.494 14.3589 118.145 14.2765 117.833 14.0998C117.569 13.9584 117.365 13.5874 117.328 13.1987C117.31 12.9867 117.335 12.5803 117.701 12.2917C117.887 12.1386 118.061 12.0384 118.229 11.9678L118.344 11.9148C118.344 11.9148 118.59 11.7793 118.992 11.7793C119.016 11.7793 119.046 11.7852 119.07 11.7852C119.257 11.8087 119.443 11.8205 119.617 11.8264C119.755 11.8323 119.899 11.8323 120.043 11.8441C120.127 11.8559 120.194 11.8618 120.23 11.8676C120.236 11.8735 120.248 11.8794 120.266 11.8794C120.32 11.8912 120.5 11.9501 120.716 12.1445C120.968 12.3741 120.998 12.4566 121.034 12.5449C121.034 12.5567 121.04 12.5685 121.046 12.5803C121.239 12.8159 121.221 13.0279 120.974 13.3283Z" fill="#F4D13D"/>
<path d="M136.945 15.4309C136.879 15.2012 136.741 15.0539 136.519 14.9774C136.309 14.9067 136.104 14.8419 135.906 14.7477C135.209 14.4237 134.447 14.1057 133.63 13.9585C133.089 13.8583 132.53 13.77 131.996 13.6875C131.473 13.6051 130.927 13.5226 130.398 13.4284C129.587 13.2812 128.722 13.2223 127.839 13.2517C128.32 12.9455 128.614 12.492 128.837 12.0915C128.909 11.9678 128.975 11.8382 129.041 11.7145C129.113 11.5791 129.185 11.4436 129.263 11.314C129.581 10.7545 129.539 10.2657 129.119 9.78865C128.951 9.59429 128.752 9.5295 128.506 9.58251C127.924 9.7003 127.335 9.88877 126.584 10.1774C126.344 10.2716 126.098 10.354 125.857 10.4247C125.389 10.5778 124.902 10.731 124.452 11.0137C124.458 11.0019 124.458 10.9901 124.464 10.9842L124.482 10.943C124.614 10.6014 124.746 10.2657 124.878 9.92411C125.137 9.27625 125.401 8.60484 125.641 7.93343C125.827 7.41515 126.002 6.88509 126.17 6.37269C126.38 5.74251 126.59 5.08877 126.824 4.45858C127.101 3.7165 127.035 3.04509 126.626 2.4149C126.524 2.26177 126.374 2.02619 126.074 1.99674C125.437 1.94374 124.932 2.1322 124.59 2.56803L124.494 2.68582C124.158 3.10987 123.809 3.5457 123.437 3.95208C123.064 4.35846 122.656 4.75306 122.266 5.13588C121.881 5.50104 121.491 5.88386 121.124 6.27846C121.112 6.29024 121.1 6.30202 121.088 6.3138C121.082 6.3138 121.082 6.31969 121.076 6.31969C120.992 6.06055 120.902 5.8073 120.812 5.55404C120.734 5.33613 120.656 5.11822 120.584 4.9003C120.434 4.47036 120.205 4.07576 119.905 3.73417C119.545 3.32779 119.13 3.26889 118.668 3.55159C117.989 3.96975 117.49 4.61171 117.148 5.51871C116.824 6.3668 116.824 7.25024 116.842 8.08656C116.848 8.19846 116.848 8.30447 116.848 8.41638C116.818 8.35159 116.794 8.2868 116.764 8.22202C116.608 7.84509 116.439 7.45049 116.181 7.10889C116.019 6.90276 115.857 6.70251 115.689 6.49637C115.46 6.21368 115.226 5.92509 115.004 5.63061C114.325 4.69417 113.508 3.79306 112.361 2.70349C111.808 2.18521 111.208 1.65515 110.409 0.983737C110.319 0.913062 110.235 0.836498 110.151 0.765823C109.904 0.553798 109.652 0.335884 109.382 0.147418C109.28 0.0826327 108.985 -0.117613 108.709 0.0944118C108.295 0.418338 108.084 0.777602 108.06 1.18987C108.036 1.61981 108.09 2.05564 108.145 2.42668C108.223 2.93907 108.361 3.42791 108.541 4.01098C108.691 4.49392 108.859 5.00631 109.112 5.48926C109.316 5.8603 109.532 6.26668 109.676 6.70251C109.814 7.12656 110.012 7.56828 110.295 8.09834C110.637 8.7403 111.034 9.35871 111.418 9.95944C111.586 10.2245 111.754 10.4836 111.923 10.7545C112.049 10.9489 112.175 11.1668 112.295 11.4083C112.253 11.3847 112.211 11.3612 112.163 11.3435C111.112 10.8782 110.139 10.5837 109.19 10.4424C109.13 10.4306 109.063 10.4247 108.997 10.4188L108.871 10.4012C107.862 10.248 106.943 10.2834 106.06 10.4954C105.916 10.5307 105.79 10.6014 105.676 10.7015C105.358 10.9842 105.303 11.6321 105.568 12.0561C105.85 12.5155 106.265 12.8571 106.661 13.181L106.727 13.234C106.799 13.2988 106.877 13.3636 106.949 13.4284C107.226 13.664 107.514 13.8996 107.826 14.1116C107.58 14.0645 107.34 14.0409 107.093 14.0409C106.18 14.0409 105.43 14.4473 104.859 15.2542C104.709 15.4662 104.649 15.6959 104.691 15.9079C104.733 16.1317 104.883 16.332 105.123 16.491C105.255 16.5793 105.406 16.65 105.556 16.7207C105.91 16.8856 106.271 17.0387 106.619 17.1624C106.955 17.2861 107.244 17.4863 107.544 17.6983C107.634 17.7631 107.73 17.8279 107.82 17.8868C108.211 18.1459 108.613 18.2873 109.045 18.3167C109.106 18.3167 109.166 18.3226 109.226 18.3285C109.334 18.3344 109.442 18.3462 109.544 18.3462C109.52 18.3639 109.502 18.3815 109.478 18.3992C109.394 18.4522 109.31 18.5111 109.232 18.57C108.535 19.1059 107.856 19.7479 107.033 20.6608C106.277 21.503 105.7 22.4394 105.328 23.4407C104.913 24.5597 104.841 25.5668 105.111 26.5091C105.328 27.263 105.478 27.6282 106.565 27.6929C107.208 27.7283 107.598 27.5163 107.838 27.0039C107.976 26.7035 108.205 26.4385 108.529 26.1911C108.847 25.9555 109.148 25.6551 109.424 25.3018C109.994 24.5597 110.775 23.6056 111.718 22.7987C111.76 22.7634 111.808 22.728 111.856 22.6986C111.874 22.6868 111.899 22.6691 111.917 22.6574L111.88 22.7869C111.814 23.0048 111.748 23.2286 111.694 23.4524C111.472 24.3536 111.328 25.3077 111.274 26.2971C111.208 27.4986 111.226 28.4939 111.328 29.4363C111.376 29.8426 111.478 30.3668 111.832 30.8144L111.856 30.8439C111.941 30.9499 112.049 31.0794 112.229 31.0794H112.253C112.613 31.05 113.076 30.9734 113.424 30.5906C113.514 30.4905 113.604 30.3904 113.688 30.2902C113.779 30.1901 113.863 30.09 113.953 29.9958L114.145 29.7837C114.559 29.3244 114.986 28.8473 115.322 28.3113C115.34 28.2819 115.352 28.2701 115.352 28.2642C115.358 28.2701 115.37 28.2819 115.382 28.3055C115.424 28.3761 115.478 28.435 115.532 28.4939L115.562 28.5293C115.646 28.6176 115.725 28.6588 115.815 28.6647C115.893 28.6706 115.977 28.6294 116.055 28.5587C116.145 28.4763 116.235 28.3997 116.325 28.3231C116.68 28.011 117.046 27.6929 117.274 27.2394C117.31 27.1747 117.358 27.1099 117.424 27.0451C117.442 27.0215 117.839 26.4974 117.995 26.2029L118.007 26.1852C118.007 26.1852 118.019 26.1558 118.025 26.1499C118.253 25.661 118.385 25.2134 118.433 24.7894C118.439 24.7305 118.457 24.6834 118.506 24.6245C118.548 24.5774 118.608 24.5067 118.656 24.4949C118.728 24.648 119.226 25.661 119.551 26.0615C119.569 26.0851 119.587 26.1086 119.605 26.1322L119.647 26.1793C119.857 26.4502 120.073 26.7271 120.307 26.9862C120.992 27.7342 121.737 28.5234 122.632 29.1653C123.419 29.7307 124.2 30.09 125.016 30.2549C125.539 30.3668 126.02 29.9722 126.122 29.554C126.2 29.2242 126.14 28.918 126.062 28.6058C125.99 28.3231 125.923 28.0404 125.857 27.7518C125.749 27.3042 125.641 26.839 125.521 26.3855C125.269 25.4549 124.938 24.3771 124.344 23.3818L124.398 23.3994C124.482 23.4348 124.566 23.4642 124.656 23.4996L124.866 23.5761C125.299 23.741 125.743 23.9059 126.2 24.0237C127.053 24.2358 127.894 24.2181 128.831 24.171C129.401 24.1474 129.9 23.9472 130.314 23.5761C130.458 23.4524 130.494 23.3111 130.422 23.1344C130.368 22.999 130.278 22.8988 130.182 22.8046L130.134 22.7457C129.984 22.5867 129.84 22.4277 129.689 22.2686C129.389 21.9506 129.077 21.6267 128.807 21.2792C128.728 21.1732 128.644 21.0731 128.566 20.9671C128.236 20.5371 127.894 20.0954 127.497 19.7008C127.389 19.5948 127.299 19.4711 127.203 19.3415L127.131 19.2473C127.131 19.2473 127.125 19.2355 127.119 19.2355H127.131C127.689 19.2944 128.248 19.2709 128.831 19.159C129.732 18.994 130.626 18.8586 131.497 18.7349C131.72 18.6996 131.936 18.6701 132.158 18.6407C132.621 18.5759 133.101 18.5111 133.57 18.4169C133.786 18.3756 133.984 18.2932 134.182 18.2048C134.579 18.0223 134.915 17.8868 135.251 17.7867C135.648 17.6571 136.152 17.4569 136.513 17.021C136.951 16.4969 137.095 15.9786 136.945 15.4309ZM125.996 11.102L126.122 11.0608C126.332 10.9842 126.536 10.9136 126.74 10.8429C127.245 10.6721 127.773 10.4895 128.278 10.2775C128.38 10.2304 128.476 10.2304 128.548 10.2775C128.638 10.3364 128.692 10.4718 128.692 10.6367C128.692 10.7781 128.584 10.9548 128.512 11.0726C128.188 11.6203 127.803 12.2564 127.365 12.8394C127.167 13.1163 126.89 13.2988 126.542 13.3872C126.422 13.4225 126.302 13.452 126.182 13.4814C125.809 13.5697 125.431 13.6581 125.077 13.8348C124.488 14.1351 124.061 14.4414 123.731 14.8066L123.701 14.8419L123.647 14.8949C123.485 15.0598 123.485 15.0657 123.323 14.9244C122.878 14.5592 122.494 14.3472 122.091 14.2353C122.097 14.2294 122.103 14.2294 122.109 14.2235C122.236 14.1293 122.356 14.035 122.482 13.9408L122.722 13.7641C122.944 13.5933 123.136 13.3872 123.317 13.1869C123.431 13.0632 123.551 12.9396 123.671 12.8218C123.743 12.757 123.821 12.6981 123.899 12.6392C124.061 12.5155 124.224 12.3918 124.326 12.2151C124.692 11.5614 125.329 11.3376 125.996 11.102ZM117.418 15.8196C117.647 15.8431 117.821 15.9668 117.893 16.1494C117.959 16.3261 117.911 16.5145 117.767 16.6677C117.346 17.1153 116.854 17.4097 116.301 17.5452C116.199 17.5747 116.091 17.5747 115.971 17.5805C115.917 17.5805 115.857 17.5805 115.809 17.5864C115.55 17.5864 115.208 17.5629 114.89 17.3862C114.343 17.074 114.241 16.2554 114.523 15.7548C114.673 15.4839 114.866 15.3072 115.118 15.2129C115.394 15.1128 115.695 15.048 116.013 15.0245H116.061C116.253 15.0245 116.415 15.1069 116.511 15.2659C116.71 15.5899 116.998 15.7666 117.418 15.8196ZM117.232 13.3165C117.4 13.1751 117.557 13.0868 117.713 13.022L117.815 12.9749C117.815 12.9749 118.037 12.8512 118.403 12.8512C118.427 12.8512 118.451 12.8571 118.476 12.8571C118.644 12.8807 118.812 12.8866 118.974 12.8924C119.1 12.8924 119.232 12.8924 119.358 12.9101C119.437 12.9219 119.497 12.9278 119.527 12.9337C119.527 12.9337 119.545 12.9455 119.557 12.9455C119.605 12.9572 119.767 13.0102 119.965 13.1869C120.193 13.3931 120.223 13.4696 120.253 13.5521C120.253 13.5639 120.259 13.5756 120.265 13.5815C120.44 13.7936 120.422 13.9879 120.199 14.2588C119.887 14.6299 119.479 14.8596 119.046 15.101L119.01 15.1246C118.65 15.2071 118.361 15.1835 118.349 15.1835C117.953 15.1953 117.635 15.1187 117.352 14.9597C117.112 14.8301 116.926 14.4944 116.896 14.141C116.878 13.9467 116.902 13.5815 117.232 13.3165ZM118.277 16.8444C118.433 16.5322 118.482 16.2554 118.433 15.9727C118.427 15.9432 118.427 15.9315 118.421 15.9256H118.476C118.512 15.9256 118.554 15.9315 118.59 15.9197C118.824 15.9197 118.86 15.9432 118.926 16.1435C118.974 16.279 119.01 16.4203 119.04 16.5617L119.07 16.6912C119.082 16.7266 119.076 16.756 119.022 16.7796L118.968 16.8031C118.872 16.8502 118.776 16.8974 118.68 16.9209C118.373 16.9975 118.115 17.1565 117.881 17.398L117.851 17.4274C117.779 17.504 117.713 17.5747 117.623 17.61C117.917 17.398 118.139 17.1388 118.277 16.8444ZM118.097 18.3933C118.259 17.8868 118.566 17.5747 119.034 17.451C119.088 17.4333 119.136 17.4039 119.172 17.3803C119.19 17.3626 119.226 17.3391 119.238 17.3391C119.28 17.3626 119.316 17.4156 119.352 17.4628C119.376 17.4922 119.394 17.5158 119.413 17.5393C119.647 17.822 119.953 17.9634 120.319 17.9634H120.338C120.668 17.9634 120.992 17.9398 121.238 17.9163C121.533 17.8986 121.677 17.9751 121.779 18.2166C121.857 18.4051 121.797 18.5936 121.605 18.7585C121.443 18.888 121.262 19.0529 121.106 19.2591C120.986 19.424 120.806 19.4829 120.626 19.5241C120.614 19.5241 120.608 19.53 120.602 19.53L120.025 19.6949C119.989 19.7126 119.929 19.7243 119.845 19.7479H119.821C119.334 19.8834 118.932 19.8304 118.542 19.583C118.097 19.3062 117.947 18.8939 118.097 18.3933ZM120.031 17.1153C119.749 16.9739 119.671 16.4498 119.641 16.2495V16.1847C119.605 16.0198 119.503 15.6723 119.497 15.6664C119.497 15.6547 119.497 15.6488 119.497 15.6429C119.509 15.6134 119.575 15.5663 119.605 15.5428L119.641 15.5074C119.923 15.2542 120.271 14.995 120.74 14.9302C120.902 14.9067 121.058 14.8478 121.202 14.7948C121.274 14.7653 121.347 14.7418 121.419 14.7182C121.539 14.677 121.641 14.677 121.725 14.7064C122.169 14.8713 122.668 15.0951 123.046 15.5133C123.185 15.6664 123.251 15.8255 123.239 15.9786C123.227 16.1376 123.136 16.2848 122.968 16.4262C122.902 16.4792 122.83 16.5322 122.764 16.5793C122.704 16.6264 122.65 16.6736 122.59 16.7207C122.362 16.8974 122.121 17.0093 121.869 17.0505C120.902 17.2154 120.283 17.239 120.037 17.1153H120.031ZM122.139 18.6996C122.157 18.623 122.187 18.5405 122.23 18.464C122.302 18.3403 122.38 18.1813 122.38 17.9869C122.38 17.8927 122.362 17.7926 122.314 17.6866C122.476 17.5688 122.632 17.4569 122.788 17.3332C122.854 17.2861 122.926 17.2684 122.998 17.292C123.106 17.3155 123.185 17.3862 123.221 17.4981C123.221 17.4981 123.281 17.61 123.287 17.8102C123.287 18.0105 123.233 18.1636 123.124 18.2578C123.112 18.2637 123.106 18.2696 123.094 18.2755C123.094 18.2755 123.076 18.2932 123.064 18.2991C122.998 18.3462 122.932 18.3992 122.866 18.4463C122.698 18.5818 122.53 18.7055 122.326 18.7467L122.199 18.7644C122.151 18.7761 122.139 18.7585 122.139 18.7585C122.139 18.7585 122.127 18.7467 122.139 18.6996ZM120.728 7.74496C120.728 7.74496 120.758 7.72141 120.764 7.70963L121.383 6.95576L121.491 6.84975L122.308 6.07822C122.476 5.89564 122.656 5.72484 122.836 5.55993C123.034 5.38325 123.233 5.19478 123.413 4.99453C123.641 4.74128 123.875 4.49392 124.11 4.25245C124.206 4.15233 124.302 4.04631 124.398 3.94619C124.626 3.70472 124.806 3.44558 124.944 3.18055C125.089 2.89785 125.551 2.63282 125.881 2.65049C125.929 2.65638 125.959 2.67404 125.996 2.73294C126.194 3.03331 126.29 3.3219 126.29 3.62226C126.29 3.8284 126.248 4.02276 126.164 4.20533C125.797 5.04754 125.527 5.93687 125.269 6.79674C125.215 6.96754 125.161 7.13834 125.113 7.30914C124.71 8.61073 124.206 10.142 123.533 11.585C123.269 12.1621 123.01 12.6745 122.578 13.0868C122.422 13.2399 122.242 13.4107 122.037 13.5344C121.755 13.6993 121.473 13.8996 121.202 14.1351C121.07 14.2471 120.914 14.2706 120.74 14.2942C120.758 14.2294 120.782 14.1705 120.812 14.1116C121.034 13.5815 120.938 13.2164 120.482 12.8571C120.193 12.6333 119.881 12.4036 119.467 12.3565C119.346 12.3388 119.256 12.2505 119.178 12.0679C118.986 11.6262 118.938 11.1727 119.034 10.731C119.238 9.80631 119.677 8.96411 120.325 8.22791C120.422 8.12779 120.506 8.01588 120.572 7.90398C120.614 7.83331 120.668 7.77441 120.728 7.74496ZM117.352 7.98644C117.352 7.84509 117.364 7.70374 117.364 7.56239C117.376 7.48582 117.43 7.11478 117.49 6.77907L117.52 6.5965C117.635 5.97809 117.749 5.39503 118.151 4.90619C118.403 4.59993 118.71 4.35846 119.064 4.19355C119.178 4.13466 119.358 4.09343 119.575 4.34079C119.725 4.51748 119.851 4.72361 119.941 4.96509C120.097 5.37736 120.247 5.78963 120.398 6.20779L120.524 6.56705C120.602 6.76729 120.572 6.90864 120.434 7.05588C120.019 7.50938 119.503 8.07478 119.124 8.70496C118.638 9.52361 118.367 10.2363 118.277 10.943C118.211 11.4495 118.283 11.9207 118.5 12.3271C118.506 12.3447 118.518 12.3624 118.518 12.3742H118.482C118.397 12.3683 118.319 12.3801 118.229 12.3859C118.193 12.3918 118.157 12.3918 118.097 12.4036C118.055 12.4095 118.043 12.4095 118.043 12.4095C118.043 12.4095 118.031 12.3859 118.031 12.3212C118.031 11.8382 117.947 11.3671 117.773 10.8782C117.52 10.1774 117.424 9.43527 117.358 8.7992C117.334 8.53417 117.346 8.25147 117.358 7.98644H117.352ZM106.727 12.2151C106.541 12.0561 106.367 11.8677 106.216 11.6556C106.132 11.5496 106.102 11.4613 106.126 11.3906C106.144 11.3199 106.222 11.2551 106.355 11.1963C106.901 10.9783 107.49 10.8547 108.114 10.8429C108.157 10.8429 108.193 10.837 108.229 10.837C108.883 10.837 109.574 10.9783 110.373 11.261C110.505 11.3082 110.631 11.3553 110.757 11.3965C111.1 11.5143 111.454 11.6321 111.784 11.8029C112.229 12.0208 112.631 12.3212 113.016 12.6097C113.1 12.6745 113.178 12.7334 113.262 12.7923C113.34 12.8512 113.424 12.916 113.502 12.9749C113.67 13.1045 113.845 13.234 114.025 13.3518C114.373 13.5874 114.746 13.7111 115.142 13.7229H115.37C115.538 13.7347 115.713 13.7347 115.887 13.7347C115.989 13.7347 116.079 13.6875 116.121 13.611C116.163 13.5403 116.157 13.4402 116.097 13.3459C116.007 13.1987 115.869 13.1104 115.707 13.1045C114.782 13.0515 114.169 12.4978 113.64 11.9089C113.25 11.479 112.962 10.9724 112.679 10.4777L112.631 10.3953C112.271 9.76509 111.862 9.14079 111.472 8.54006C111.352 8.35748 111.232 8.1749 111.112 7.98644C110.949 7.73318 110.823 7.47993 110.739 7.23257C110.559 6.67895 110.313 6.143 110.073 5.63061C109.982 5.44214 109.892 5.24779 109.808 5.05932C109.658 4.72361 109.532 4.37613 109.412 4.03453L109.304 3.7165C109.172 3.35723 109.088 2.99797 108.997 2.59159C108.895 2.14987 108.853 1.67871 108.865 1.14864C108.865 1.04263 108.883 0.954289 108.919 0.871835C108.955 0.783492 108.985 0.765823 109.003 0.759933C109.015 0.759933 109.045 0.759933 109.124 0.80705C109.34 0.94251 109.55 1.11331 109.748 1.27233C109.82 1.33122 109.892 1.39012 109.958 1.44901C111.232 2.46791 112.163 3.29834 112.968 4.15822C113.652 4.87674 114.331 5.68361 115.124 6.69073C115.995 7.80975 116.487 9.07012 116.86 10.1597C116.908 10.301 116.956 10.4424 117.01 10.5778C117.142 10.9312 117.28 11.2964 117.334 11.6733C117.358 11.8618 117.382 12.062 117.37 12.2682C117.352 12.5921 117.202 12.8277 116.932 12.9631C116.313 13.2812 116.277 13.8407 116.307 14.2294V14.2647C116.313 14.3236 116.319 14.3825 116.313 14.3943C116.301 14.4061 116.223 14.4237 116.163 14.4296C115.49 14.5474 114.962 14.73 114.505 15.0127C114.397 15.0716 114.325 15.1423 114.265 15.2247C114.139 15.4132 113.947 15.5133 113.682 15.5251C113.196 15.5486 112.757 15.5074 112.349 15.3896C112.175 15.3366 112.007 15.2895 111.832 15.2424C111.472 15.1423 111.1 15.0363 110.739 14.9185C110.115 14.7064 109.496 14.359 108.835 13.8583L108.463 13.5815C107.886 13.1457 107.286 12.6922 106.727 12.2151ZM109.1 17.6159C108.577 17.6041 108.187 17.2978 107.862 17.0151C107.862 17.0151 107.85 17.0034 107.844 17.0034C107.67 16.8267 107.189 16.6205 106.805 16.4674C106.799 16.4674 106.787 16.4615 106.781 16.4615C106.625 16.4262 106.475 16.3791 106.325 16.3084C106.108 16.2024 105.868 16.1023 105.592 16.0021C105.508 15.9727 105.454 15.9374 105.442 15.902C105.424 15.8667 105.442 15.8019 105.484 15.7194C105.646 15.4014 105.916 15.154 106.361 14.9185C106.625 14.783 106.925 14.7064 107.189 14.7064H107.262C107.574 14.7064 107.784 14.7477 107.964 14.8537C108.319 15.0539 108.709 15.1364 109.088 15.2071L109.202 15.2306C109.484 15.2895 109.754 15.4073 110.012 15.5192C110.091 15.5545 110.175 15.5899 110.253 15.6193C111.232 16.0316 112.289 16.2613 113.394 16.3084H113.448C113.448 16.3084 113.49 16.3084 113.502 16.3143C113.55 16.3261 113.598 16.3202 113.646 16.3143C113.73 16.3084 113.736 16.3143 113.748 16.3496C113.809 16.5028 113.748 16.7089 113.64 16.7972C113.52 16.8915 113.37 16.9091 113.208 16.9268H113.16C112.829 16.9739 112.553 17.0446 112.307 17.1388C111.971 17.2743 111.634 17.4039 111.298 17.5334C111.034 17.6336 110.775 17.7396 110.511 17.8397C110.451 17.8632 110.421 17.8691 110.391 17.8574C109.97 17.6689 109.52 17.6277 109.1 17.6159ZM111.436 22.0272C110.529 22.7752 109.76 23.6586 109.124 24.4183C108.721 24.9131 108.271 25.3666 107.844 25.7788C107.514 26.0969 107.256 26.4149 107.063 26.7447C106.949 26.9332 106.805 27.0156 106.601 26.9921C106.042 26.9391 105.916 26.8802 105.796 26.3619C105.724 26.0321 105.706 25.6964 105.7 25.2959C105.676 24.7658 105.868 24.1769 106.042 23.7234C106.499 22.4983 107.298 21.3675 108.469 20.2544C109.454 19.3239 110.439 18.6524 111.484 18.1872C112.181 17.8809 112.781 17.7219 113.37 17.6866C113.43 17.6866 113.502 17.6866 113.568 17.6512C113.628 17.6218 113.682 17.61 113.742 17.61C113.857 17.61 113.971 17.6689 114.121 17.8044C114.199 17.875 114.289 17.9516 114.289 17.981C114.289 18.0105 114.193 18.1047 114.121 18.1695C113.857 18.4228 113.634 18.7055 113.466 19.0058C113.118 19.6301 113.178 20.0895 113.67 20.5901C113.7 20.6196 113.706 20.6313 113.712 20.6372C113.706 20.6372 113.7 20.649 113.67 20.6726C113.592 20.7256 113.502 20.7727 113.388 20.8139C112.619 21.0907 111.977 21.5855 111.436 22.0272ZM114.649 28.0522C114.553 28.1641 114.463 28.2878 114.379 28.4056C114.337 28.4645 114.295 28.5234 114.247 28.5823C113.821 29.1418 113.376 29.6483 112.92 30.1018C112.86 30.1607 112.787 30.2196 112.697 30.2844C112.529 30.3963 112.475 30.3904 112.355 30.2313C112.199 30.0311 112.103 29.7896 112.061 29.4951C112.007 29.1536 111.995 28.8002 111.977 28.4586C111.965 28.2112 111.953 27.9639 111.929 27.7165C111.886 27.1334 111.905 26.5327 111.983 25.9261C112.007 25.7199 112.031 25.5138 112.055 25.3018C112.121 24.6716 112.193 24.0178 112.373 23.3936C112.553 22.781 112.775 22.3217 113.088 21.9506C113.232 21.768 113.388 21.6561 113.568 21.5972C113.911 21.4912 114.169 21.2792 114.409 21.0731C114.511 20.9788 114.601 20.9376 114.697 20.9376C114.728 20.9376 114.758 20.9435 114.794 20.9553C114.89 20.9788 114.902 21.0201 114.89 21.0848C114.884 21.1202 114.878 21.1555 114.872 21.1909C114.866 21.2498 114.854 21.3086 114.836 21.3675C114.691 21.8623 114.637 22.3629 114.601 22.9636C114.565 23.6232 114.547 24.1651 114.547 24.6716C114.553 25.449 114.661 26.1852 114.866 26.8625C115.016 27.3455 114.95 27.7106 114.649 28.0522ZM115.094 20.1661C114.74 20.0188 114.391 19.8657 114.043 19.7185C113.893 19.6596 113.851 19.5948 113.851 19.5771C113.881 19.0529 114.409 18.3815 114.962 18.3698L115.328 18.358C115.55 18.3462 115.767 18.3403 115.983 18.3344C116.115 18.3285 116.259 18.3403 116.379 18.3992C116.469 18.4404 116.547 18.4522 116.62 18.4228C116.704 18.3933 116.764 18.3285 116.812 18.2166L116.83 18.1695C116.848 18.1224 116.866 18.0694 116.89 18.0223C116.896 18.0046 116.902 18.0046 116.908 18.0105C116.908 18.1342 116.932 18.2284 116.998 18.2932C117.058 18.3639 117.154 18.3933 117.28 18.3874C117.19 18.7702 117.316 19.1177 117.43 19.4299C117.454 19.4947 117.472 19.5712 117.484 19.6419L117.496 19.7067L117.502 19.7302C117.496 19.7361 117.49 19.742 117.484 19.7479C117.346 19.9423 116.914 20.0954 116.59 20.1661C116.583 20.1661 116.571 20.172 116.559 20.172C116.445 20.2191 116.307 20.2426 116.109 20.2426C115.466 20.3369 115.31 20.2544 115.304 20.2544C115.292 20.2367 115.274 20.225 115.25 20.2191C115.22 20.2132 115.172 20.1955 115.094 20.1661ZM117.701 25.0897C117.322 26.038 116.782 26.8802 116.085 27.5928C116.079 27.5928 116.067 27.6105 116.067 27.6105C116.043 27.6282 116.025 27.6517 116.001 27.6694C115.977 27.6988 115.923 27.7459 115.911 27.7518C115.881 27.7342 115.863 27.7106 115.851 27.6812C115.851 27.6635 115.851 27.6694 115.839 27.6576C115.725 27.422 115.58 26.8095 115.532 26.621C115.34 25.8318 115.25 25.0309 115.274 24.2417C115.28 24.0473 115.28 23.8529 115.28 23.6586C115.28 23.3405 115.28 23.0166 115.304 22.6986C115.346 22.1626 115.49 21.6385 115.616 21.2439C115.677 21.0613 115.749 21.0201 116.013 21.0201H116.097C116.223 21.0318 116.361 21.0377 116.379 21.0554C116.391 21.0731 116.385 21.1614 116.385 21.238C116.379 21.2792 116.379 21.3263 116.379 21.3734C116.355 22.2274 116.686 22.9754 117.034 23.6763C117.04 23.6939 117.052 23.7175 117.064 23.7351C117.094 23.7764 117.118 23.8176 117.13 23.8647C117.19 24.065 117.334 24.1886 117.448 24.2711C117.767 24.5008 117.839 24.7364 117.701 25.0897ZM118.704 22.8576L118.65 22.9754C118.524 23.2581 118.391 23.5467 118.193 23.794C118.139 23.8647 118.073 23.9001 118.013 23.9001H118.001C117.941 23.8942 117.887 23.8529 117.851 23.7823C117.52 23.1403 117.178 22.4748 117.034 21.7386C116.932 21.1909 117.046 20.8139 117.412 20.5253C117.478 20.4723 117.539 20.4193 117.599 20.3663C117.653 20.3133 117.701 20.2662 117.761 20.2191C117.809 20.1837 117.851 20.1661 117.899 20.1661C117.941 20.1661 117.989 20.1837 118.031 20.225C118.193 20.3722 118.373 20.4605 118.608 20.5018C118.836 20.543 118.968 20.6961 119.004 20.9612C119.016 21.0672 119.028 21.185 119.034 21.2969C119.04 21.3558 119.046 21.4205 119.046 21.4736C119.07 21.9918 118.89 22.463 118.704 22.8576ZM125.287 28.2112L125.311 28.3172C125.389 28.6471 125.461 28.9533 125.497 29.2537C125.497 29.395 125.455 29.501 125.377 29.5599C125.305 29.607 125.209 29.6129 125.095 29.5776C124.752 29.4657 124.392 29.342 123.947 29.183C123.731 29.1064 123.533 28.9828 123.293 28.7825C123.076 28.594 122.848 28.4174 122.626 28.2407C122.181 27.8932 121.725 27.528 121.341 27.0981C120.638 26.2971 120.019 25.5609 119.539 24.701C119.419 24.4772 119.346 24.2358 119.268 23.9825C119.226 23.8235 119.178 23.6586 119.112 23.5055C119.094 23.4407 119.13 23.3641 119.154 23.3288C119.569 22.6574 119.725 21.8858 119.659 20.8375C119.641 20.5548 119.677 20.5077 119.971 20.4429C120.079 20.4134 120.193 20.3958 120.307 20.3722C120.392 20.3604 120.482 20.3428 120.566 20.3251C120.77 20.2839 120.944 20.1837 121.118 20.0836L121.19 20.0483C121.19 20.0483 121.214 20.0306 121.22 20.0306C121.22 20.0306 121.22 20.0345 121.22 20.0424C121.353 20.5842 121.677 21.0201 121.995 21.4382L122.043 21.5089C122.218 21.7327 122.38 21.9447 122.512 22.1803C122.56 22.2628 122.614 22.3452 122.704 22.3982C123.227 22.7045 123.479 23.2051 123.743 23.7293C124.362 24.9602 124.836 26.3442 125.281 28.2112H125.287ZM127.227 20.3251C127.227 20.3251 127.227 20.331 127.239 20.3369C127.551 20.6902 127.839 21.0731 128.11 21.45L128.284 21.6797C128.704 22.2569 129.083 22.7045 129.461 23.0873C129.539 23.1639 129.563 23.1992 129.563 23.1992C129.551 23.2228 129.443 23.2699 129.407 23.2875C129.053 23.4642 128.662 23.5055 128.194 23.5113H128.158C126.686 23.5113 125.407 23.2051 124.242 22.5867C123.803 22.3511 123.305 22.0861 122.902 21.7032C122.764 21.5678 122.674 21.4029 122.572 21.2321C122.512 21.1378 122.458 21.0377 122.386 20.9435C122.272 20.7845 122.169 20.6196 122.061 20.4547C122.001 20.3604 121.941 20.2721 121.881 20.1778C121.803 20.0659 121.749 19.9305 121.719 19.7774C121.683 19.5712 121.749 19.4593 121.941 19.3945C122.043 19.3592 122.145 19.3415 122.236 19.3415C122.59 19.3239 122.926 19.2002 123.287 18.9587C123.305 18.9469 123.323 18.9352 123.335 18.9234L123.401 18.8586C123.431 18.835 123.545 18.7761 123.917 18.7761C124.019 18.7761 124.146 18.782 124.296 18.7938H124.32C124.962 18.7997 125.491 18.8586 125.984 19.1059C126.116 19.1707 126.236 19.2591 126.356 19.3474C126.416 19.3945 126.482 19.4417 126.554 19.4947L126.584 19.53C126.957 19.9894 127.173 20.2603 127.227 20.3251ZM136.146 16.3202C135.942 16.6323 135.66 16.8738 135.305 17.0328C134.164 17.5334 133.143 17.875 132.176 18.0753C131.69 18.1754 131.185 18.2343 130.681 18.2461C129.996 18.2696 129.341 18.4169 128.734 18.5759C128.206 18.7113 127.677 18.6583 127.227 18.5936C126.728 18.5288 126.236 18.3992 125.755 18.2814C125.479 18.2107 125.209 18.1401 124.932 18.0812C124.818 18.0576 124.698 18.034 124.584 18.0105C124.452 17.981 124.314 17.9516 124.182 17.9221C124.007 17.8809 123.923 17.7867 123.917 17.6277C123.911 17.3567 123.863 16.9739 123.491 16.7089C123.485 16.703 123.467 16.6912 123.467 16.6794C123.461 16.6677 123.473 16.6441 123.491 16.6264C123.719 16.3614 123.761 16.0316 123.773 15.7489C123.773 15.5604 123.851 15.4309 124.013 15.319C124.128 15.2424 124.236 15.1599 124.35 15.0775C124.506 14.9538 124.668 14.8301 124.83 14.73C125.485 14.3354 126.224 14.1528 126.866 14.0232C127.233 13.9467 127.599 13.9113 127.96 13.9055C128.338 13.9467 128.722 13.9644 129.095 13.9761C129.816 14.0056 130.56 14.035 131.263 14.2588C131.636 14.3707 132.014 14.3943 132.38 14.412C132.549 14.4237 132.723 14.4296 132.891 14.4473C133.245 14.4885 133.606 14.5651 133.948 14.6358C134.086 14.6652 134.224 14.6947 134.356 14.7182C134.404 14.73 134.453 14.7477 134.489 14.7771C134.903 15.0716 135.353 15.2247 135.828 15.3778C136.062 15.4544 136.218 15.5722 136.278 15.7312C136.339 15.8961 136.29 16.0964 136.146 16.3202Z" fill="#282828"/>
<path d="M128.662 10.6192C128.656 10.7606 128.559 10.9372 128.487 11.055C128.157 11.6028 127.773 12.2388 127.334 12.8219C127.136 13.0987 126.86 13.2813 126.511 13.3696C126.391 13.405 126.271 13.4344 126.151 13.4639C125.785 13.5522 125.4 13.6406 125.046 13.8172C124.463 14.1176 124.031 14.4239 123.7 14.789L123.67 14.8244C123.67 14.8244 123.64 14.8597 123.616 14.8774C123.454 15.0423 123.454 15.0482 123.292 14.9068C122.847 14.5417 122.463 14.3296 122.061 14.2177C122.061 14.2118 122.073 14.2118 122.079 14.206C122.205 14.1117 122.331 14.0175 122.451 13.9233L122.691 13.7466C122.919 13.5758 123.106 13.3696 123.292 13.1694C123.4 13.0457 123.52 12.922 123.64 12.8042C123.712 12.7395 123.79 12.6806 123.868 12.6217C124.031 12.498 124.199 12.3743 124.295 12.1976C124.661 11.5439 125.298 11.3201 125.971 11.0845L126.097 11.0433C126.301 10.9667 126.505 10.896 126.71 10.8253C127.22 10.6545 127.743 10.472 128.247 10.2599C128.349 10.2128 128.445 10.2128 128.517 10.2599C128.608 10.3188 128.662 10.4543 128.662 10.6192Z" fill="#EFEDE4"/>
<path d="M136.121 16.3024C135.911 16.6146 135.629 16.856 135.274 17.0151C134.139 17.5157 133.112 17.8573 132.145 18.0575C131.658 18.1576 131.154 18.2165 130.649 18.2283C129.965 18.2519 129.31 18.3991 128.703 18.5581C128.175 18.6936 127.646 18.6406 127.196 18.5758C126.697 18.511 126.205 18.3814 125.724 18.2636C125.448 18.193 125.177 18.1223 124.901 18.0634C124.787 18.0398 124.673 18.0163 124.553 17.9927C124.421 17.9633 124.282 17.9338 124.15 17.9044C123.976 17.8632 123.892 17.7689 123.886 17.6099C123.88 17.339 123.832 16.9562 123.46 16.6911C123.46 16.6852 123.436 16.6735 123.436 16.6617C123.436 16.6499 123.442 16.6263 123.46 16.6087C123.694 16.3436 123.73 16.0138 123.742 15.7311C123.748 15.5427 123.826 15.4131 123.982 15.3012C124.096 15.2246 124.21 15.1422 124.318 15.0597C124.475 14.936 124.637 14.8124 124.805 14.7122C125.454 14.3176 126.198 14.1351 126.835 14.0055C127.202 13.9289 127.574 13.8936 127.928 13.8877C128.307 13.9289 128.691 13.9466 129.064 13.9584C129.784 13.9878 130.529 14.0173 131.232 14.2411C131.61 14.353 131.983 14.3765 132.349 14.3942C132.517 14.406 132.691 14.4119 132.86 14.4295C133.214 14.4708 133.574 14.5473 133.917 14.618C134.055 14.6474 134.193 14.6769 134.325 14.7005C134.373 14.7122 134.421 14.7299 134.457 14.7594C134.872 15.0538 135.328 15.207 135.797 15.3601C136.031 15.4367 136.187 15.5544 136.247 15.7135C136.307 15.8784 136.265 16.0786 136.121 16.3024Z" fill="white"/>
<path d="M129.539 23.1814C129.539 23.1814 129.413 23.252 129.377 23.2697C129.023 23.4464 128.632 23.4876 128.164 23.4935H128.128C126.656 23.4935 125.377 23.1873 124.212 22.5689C123.773 22.3333 123.275 22.0682 122.872 21.6854C122.734 21.55 122.644 21.385 122.542 21.2143C122.488 21.12 122.428 21.0199 122.362 20.9257C122.248 20.7666 122.139 20.6017 122.031 20.4368C121.971 20.3426 121.911 20.2543 121.851 20.16C121.773 20.0481 121.719 19.9127 121.695 19.7595C121.659 19.5534 121.725 19.4415 121.911 19.3767C122.013 19.3414 122.115 19.3237 122.206 19.3237C122.56 19.306 122.896 19.1823 123.257 18.9409C123.281 18.9291 123.293 18.9173 123.305 18.9055L123.323 18.8879L123.371 18.8408C123.371 18.8408 123.515 18.7583 123.887 18.7583C123.989 18.7583 124.116 18.7642 124.266 18.776H124.29C124.932 18.7819 125.461 18.8408 125.96 19.0881C126.092 19.1529 126.206 19.2412 126.326 19.3296C126.392 19.3767 126.452 19.4238 126.524 19.4768L126.554 19.5122C126.927 19.9716 127.143 20.2425 127.197 20.3073C127.203 20.3073 127.203 20.3131 127.209 20.319C127.521 20.6724 127.81 21.0552 128.08 21.4322L128.254 21.6619C128.674 22.239 129.053 22.6866 129.431 23.0695C129.509 23.146 129.533 23.1814 129.539 23.1814Z" fill="#F4F4F4"/>
<path d="M125.467 29.2358C125.467 29.3771 125.425 29.4831 125.347 29.542C125.275 29.5891 125.178 29.595 125.064 29.5597C124.722 29.4478 124.362 29.3241 123.917 29.1651C123.701 29.0885 123.503 28.9648 123.262 28.7646C123.046 28.5761 122.818 28.3994 122.602 28.2228C122.151 27.8753 121.695 27.5101 121.31 27.0802C120.608 26.2792 119.989 25.543 119.508 24.6831C119.388 24.4593 119.316 24.2178 119.244 23.9646C119.196 23.8056 119.148 23.6407 119.088 23.4875C119.064 23.4228 119.1 23.3462 119.124 23.3109C119.544 22.6394 119.701 21.8679 119.629 20.8196C119.611 20.5369 119.647 20.4898 119.941 20.425C120.049 20.3955 120.163 20.3778 120.277 20.3543C120.361 20.3425 120.451 20.3248 120.536 20.3072C120.74 20.2659 120.92 20.1658 121.088 20.0657L121.16 20.0304C121.16 20.0304 121.184 20.0127 121.19 20.0127C121.19 20.0186 121.196 20.0186 121.196 20.0245C121.328 20.5663 121.653 21.0021 121.971 21.4203L122.019 21.491C122.193 21.7148 122.355 21.9268 122.488 22.1624C122.536 22.2448 122.59 22.3273 122.68 22.3803C123.202 22.6866 123.455 23.1872 123.719 23.7113C124.344 24.9423 124.812 26.3263 125.257 28.1933L125.281 28.2993C125.359 28.6291 125.431 28.9354 125.467 29.2358Z" fill="#F4F4F4"/>
<path d="M119.022 21.4559C119.04 21.9742 118.86 22.4454 118.674 22.84L118.619 22.9578C118.493 23.2405 118.361 23.5291 118.163 23.7764C118.115 23.8471 118.049 23.8824 117.983 23.8824H117.971C117.911 23.8765 117.857 23.8353 117.821 23.7646C117.49 23.1227 117.148 22.4572 117.01 21.721C116.902 21.1732 117.016 20.7963 117.382 20.5077C117.448 20.4547 117.508 20.4017 117.568 20.3487C117.622 20.2957 117.676 20.2486 117.73 20.2014C117.779 20.1661 117.827 20.1484 117.869 20.1484C117.917 20.1484 117.959 20.1661 118.001 20.2073C118.163 20.3546 118.349 20.4429 118.577 20.4841C118.812 20.5254 118.938 20.6785 118.974 20.9435C118.992 21.0495 118.998 21.1673 119.004 21.2792C119.01 21.3381 119.016 21.4029 119.022 21.4559Z" fill="#EFEDE4"/>
<path d="M117.671 25.0721C117.298 26.0204 116.752 26.8626 116.055 27.5752C116.049 27.5752 116.037 27.5929 116.037 27.5929C116.013 27.6105 115.995 27.6341 115.977 27.6518C115.947 27.6812 115.899 27.7283 115.887 27.7342C115.851 27.7166 115.833 27.693 115.827 27.6635C115.821 27.6459 115.827 27.6518 115.815 27.64C115.695 27.4044 115.55 26.7919 115.508 26.6034C115.31 25.8142 115.22 25.0132 115.244 24.224C115.25 24.0297 115.25 23.8353 115.25 23.641C115.25 23.3229 115.25 22.999 115.274 22.681C115.316 22.145 115.466 21.6208 115.586 21.2262C115.646 21.0437 115.719 21.0024 115.983 21.0024H116.067C116.199 21.0142 116.331 21.0201 116.349 21.0378C116.361 21.0554 116.355 21.1438 116.355 21.2204C116.349 21.2616 116.349 21.3087 116.349 21.3558C116.325 22.2098 116.656 22.9578 117.004 23.6586C117.016 23.6763 117.028 23.6999 117.04 23.7175C117.064 23.7588 117.088 23.8 117.1 23.8471C117.16 24.0474 117.304 24.171 117.424 24.2535C117.743 24.4832 117.815 24.7188 117.671 25.0721Z" fill="white"/>
<path d="M114.619 28.0345C114.523 28.1464 114.433 28.2701 114.349 28.3879C114.307 28.4468 114.265 28.5057 114.223 28.5646C113.796 29.1241 113.346 29.6306 112.889 30.0841C112.829 30.143 112.757 30.2019 112.667 30.2667C112.505 30.3786 112.445 30.3727 112.325 30.2137C112.169 30.0134 112.073 29.7719 112.03 29.4775C111.982 29.1359 111.964 28.7825 111.946 28.4409C111.934 28.1935 111.922 27.9462 111.898 27.6988C111.862 27.1157 111.874 26.515 111.952 25.9084C111.976 25.7023 112 25.4961 112.024 25.2841C112.091 24.6539 112.163 24.0002 112.343 23.3759C112.523 22.7634 112.745 22.304 113.058 21.9329C113.202 21.7504 113.358 21.6384 113.538 21.5796C113.88 21.4735 114.139 21.2615 114.379 21.0554C114.481 20.9611 114.571 20.9199 114.667 20.9199C114.697 20.9199 114.733 20.9258 114.763 20.9376C114.865 20.9611 114.871 21.0024 114.865 21.0672C114.853 21.1025 114.847 21.1378 114.841 21.1732C114.835 21.2321 114.823 21.291 114.805 21.3499C114.661 21.8446 114.607 22.3452 114.571 22.9459C114.535 23.6056 114.517 24.1474 114.517 24.6539C114.517 25.4313 114.631 26.1675 114.835 26.8448C114.986 27.3278 114.92 27.6929 114.619 28.0345Z" fill="#F4F4F4"/>
<path d="M113.436 18.9881C113.088 19.6124 113.148 20.0718 113.647 20.5724C113.671 20.6019 113.677 20.6136 113.683 20.6195C113.677 20.6195 113.671 20.6313 113.641 20.6549C113.562 20.7079 113.472 20.755 113.358 20.7962C112.589 21.073 111.947 21.5677 111.406 22.0095C110.499 22.7574 109.73 23.6409 109.1 24.4006C108.691 24.8954 108.241 25.3488 107.814 25.7611C107.484 26.0792 107.232 26.3972 107.033 26.727C106.919 26.9155 106.775 26.9979 106.571 26.9744C106.012 26.9214 105.892 26.8625 105.766 26.3442C105.694 26.0144 105.676 25.6787 105.67 25.2782C105.646 24.7481 105.838 24.1592 106.012 23.7057C106.475 22.4806 107.268 21.3498 108.439 20.2367C109.424 19.3061 110.409 18.6347 111.454 18.1695C112.151 17.8632 112.752 17.7042 113.34 17.6688C113.406 17.6688 113.472 17.6688 113.538 17.6335C113.598 17.6041 113.653 17.5923 113.713 17.5923C113.827 17.5923 113.941 17.6512 114.091 17.7866C114.169 17.8573 114.259 17.9339 114.265 17.9633C114.265 17.9869 114.163 18.087 114.097 18.1518C113.827 18.405 113.604 18.6877 113.436 18.9881Z" fill="white"/>
<path d="M113.61 16.7793C113.49 16.8735 113.34 16.8912 113.178 16.9088H113.129C112.799 16.956 112.523 17.0266 112.277 17.1209C111.94 17.2563 111.604 17.3859 111.267 17.5155C111.009 17.6156 110.745 17.7216 110.481 17.8217C110.427 17.8453 110.391 17.8512 110.361 17.8394C109.946 17.6509 109.496 17.6097 109.069 17.5979C108.547 17.5861 108.156 17.2799 107.838 16.9972C107.832 16.9972 107.82 16.9854 107.814 16.9854C107.64 16.8087 107.159 16.6026 106.775 16.4495C106.769 16.4495 106.757 16.4436 106.751 16.4436C106.601 16.4082 106.444 16.3611 106.3 16.2904C106.078 16.1844 105.838 16.0843 105.561 15.9842C105.477 15.9547 105.423 15.9194 105.411 15.8841C105.393 15.8487 105.411 15.7839 105.453 15.7015C105.615 15.3834 105.886 15.1361 106.33 14.9005C106.595 14.765 106.895 14.6885 107.159 14.6885H107.231C107.55 14.6885 107.754 14.7297 107.934 14.8357C108.288 15.036 108.679 15.1184 109.057 15.1891L109.171 15.2126C109.454 15.2715 109.724 15.3893 109.982 15.5012C110.06 15.5366 110.144 15.5719 110.222 15.6014C111.201 16.0136 112.259 16.2433 113.364 16.2904H113.418C113.418 16.2904 113.46 16.2904 113.472 16.2963C113.52 16.3081 113.574 16.3022 113.616 16.2963C113.7 16.2904 113.706 16.2963 113.724 16.3317C113.778 16.4848 113.724 16.6909 113.61 16.7793Z" fill="#EFEDE4"/>
<path d="M126.259 3.60445C126.259 3.81059 126.217 4.00494 126.139 4.18752C125.766 5.02973 125.496 5.91905 125.238 6.77893C125.184 6.94973 125.136 7.12053 125.082 7.29132C124.679 8.59292 124.175 10.1242 123.508 11.5672C123.238 12.1443 122.979 12.6567 122.547 13.069C122.391 13.2221 122.211 13.3929 122.006 13.5166C121.724 13.6815 121.442 13.8818 121.171 14.1173C121.039 14.2292 120.883 14.2528 120.709 14.2764C120.727 14.2116 120.757 14.1527 120.781 14.0938C121.003 13.5637 120.913 13.1986 120.451 12.8393C120.168 12.6155 119.85 12.3858 119.436 12.3387C119.315 12.321 119.225 12.2327 119.147 12.0501C118.955 11.6084 118.907 11.1549 119.003 10.7132C119.207 9.7885 119.646 8.94629 120.301 8.2101C120.397 8.10997 120.475 7.99807 120.541 7.88617C120.589 7.8155 120.643 7.7566 120.703 7.72715C120.715 7.71537 120.727 7.70359 120.733 7.69181L121.358 6.93795C121.388 6.90261 121.424 6.86727 121.46 6.83194L122.277 6.0604C122.445 5.87783 122.625 5.70703 122.805 5.54212C123.003 5.36543 123.202 5.17697 123.382 4.97672C123.61 4.72347 123.844 4.47611 124.079 4.23464C124.175 4.13451 124.271 4.0285 124.367 3.92838C124.595 3.68691 124.775 3.42776 124.913 3.16273C125.058 2.88003 125.52 2.615 125.856 2.63267C125.904 2.63856 125.929 2.65623 125.965 2.71513C126.163 3.01549 126.259 3.30408 126.259 3.60445Z" fill="white"/>
<path d="M120.404 7.03806C119.99 7.49155 119.473 8.05695 119.095 8.68714C118.608 9.50579 118.338 10.2184 118.248 10.9252C118.182 11.4317 118.254 11.9028 118.47 12.3092C118.482 12.3269 118.488 12.3446 118.488 12.3563H118.452C118.368 12.3505 118.29 12.3622 118.206 12.3681C118.164 12.374 118.128 12.374 118.068 12.3858C118.032 12.3917 118.014 12.3917 118.014 12.3917C118.014 12.3917 118.002 12.3681 118.002 12.3033C118.002 11.8204 117.917 11.3492 117.743 10.8604C117.491 10.1595 117.395 9.41744 117.335 8.78137C117.311 8.51634 117.317 8.23364 117.329 7.96861C117.329 7.82726 117.335 7.68591 117.335 7.54456C117.347 7.468 117.401 7.09695 117.461 6.76125L117.491 6.57867C117.611 5.96027 117.719 5.3772 118.122 4.88836C118.374 4.58211 118.68 4.34063 119.035 4.17573C119.149 4.11683 119.329 4.0756 119.545 4.32297C119.695 4.49965 119.822 4.70579 119.912 4.94726C120.068 5.35953 120.218 5.7718 120.368 6.18996L120.494 6.54922C120.572 6.74947 120.548 6.89082 120.404 7.03806Z" fill="#F4F4F4"/>
<path d="M117.34 12.2504C117.322 12.5743 117.172 12.8099 116.901 12.9454C116.283 13.2634 116.247 13.8229 116.277 14.2116V14.247C116.283 14.3059 116.289 14.3648 116.289 14.3765C116.271 14.3883 116.193 14.406 116.133 14.4119C115.46 14.5297 114.937 14.7122 114.475 14.9949C114.373 15.0538 114.295 15.1245 114.235 15.207C114.108 15.3954 113.916 15.4956 113.652 15.5073C113.165 15.5309 112.727 15.4897 112.319 15.3719C112.144 15.3189 111.976 15.2718 111.802 15.2246C111.442 15.1245 111.069 15.0185 110.709 14.9007C110.09 14.6887 109.465 14.3412 108.805 13.8406L108.432 13.5638C107.856 13.128 107.255 12.6745 106.697 12.1974C106.51 12.0384 106.342 11.8499 106.186 11.6379C106.102 11.5319 106.072 11.4435 106.096 11.3729C106.114 11.3022 106.192 11.2374 106.324 11.1785C106.871 10.9606 107.459 10.8369 108.084 10.8251C108.126 10.8251 108.162 10.8192 108.204 10.8192C108.859 10.8192 109.544 10.9606 110.348 11.2433C110.475 11.2904 110.601 11.3375 110.727 11.3788C111.069 11.4965 111.424 11.6143 111.754 11.7851C112.198 12.003 112.601 12.3034 112.985 12.592C113.069 12.6568 113.147 12.7157 113.232 12.7746C113.31 12.8335 113.394 12.8983 113.478 12.9572C113.64 13.0867 113.814 13.2163 113.994 13.3341C114.343 13.5697 114.721 13.6934 115.118 13.7051H115.34C115.508 13.7169 115.682 13.7169 115.856 13.7169C115.964 13.7169 116.049 13.6698 116.091 13.5932C116.133 13.5226 116.127 13.4224 116.067 13.3282C115.982 13.181 115.838 13.0926 115.676 13.0867C114.751 13.0337 114.138 12.4801 113.61 11.8911C113.225 11.4612 112.931 10.9547 112.655 10.46L112.601 10.3775C112.24 9.74734 111.832 9.12305 111.442 8.52231C111.321 8.33973 111.201 8.15716 111.081 7.96869C110.919 7.71544 110.793 7.46219 110.709 7.21483C110.529 6.66121 110.282 6.12525 110.042 5.61286C109.952 5.4244 109.862 5.23004 109.778 5.04157C109.628 4.70587 109.502 4.35838 109.381 4.01679L109.273 3.69875C109.141 3.33949 109.057 2.98022 108.967 2.57384C108.871 2.13213 108.823 1.66096 108.835 1.1309C108.841 1.02489 108.859 0.936543 108.889 0.854089C108.931 0.765746 108.955 0.748077 108.973 0.742188C108.985 0.742188 109.015 0.742188 109.093 0.789304C109.315 0.924764 109.52 1.09556 109.718 1.25458C109.79 1.31348 109.862 1.37237 109.934 1.43127C111.201 2.45016 112.132 3.28059 112.937 4.14047C113.622 4.859 114.307 5.66587 115.093 6.67299C115.964 7.792 116.457 9.05237 116.829 10.1419C116.877 10.2833 116.925 10.4246 116.979 10.5601C117.112 10.9135 117.25 11.2786 117.304 11.6556C117.328 11.844 117.352 12.0443 117.34 12.2504Z" fill="white"/>
</g>
<defs>
<clipPath id="clip0_318_138">
<rect width="137" height="48" fill="white"/>
</clipPath>
</defs>
</svg>
