<svg width="24" height="24" viewBox="0 0 24 24" fill="none" xmlns="http://www.w3.org/2000/svg">
<path d="M11 18C12.9333 18 14.5833 17.3176 15.95 15.9529C17.3167 14.5881 18 12.9372 18 11C18 9.06667 17.3167 7.41667 15.95 6.05C14.5833 4.68333 12.9333 4 11 4C9.06282 4 7.41186 4.68333 6.04712 6.05C4.68237 7.41667 4 9.06667 4 11C4 12.9372 4.68237 14.5881 6.04712 15.9529C7.41186 17.3176 9.06282 18 11 18ZM11 19C9.89102 19 8.85159 18.7914 7.88173 18.3741C6.91186 17.9567 6.06442 17.3856 5.33942 16.6606C4.61442 15.9356 4.04327 15.0881 3.62595 14.1183C3.20865 13.1484 3 12.109 3 11C3 9.89487 3.20865 8.85737 3.62595 7.8875C4.04327 6.91763 4.61442 6.06923 5.33942 5.3423C6.06442 4.61538 6.91186 4.04327 7.88173 3.62595C8.85159 3.20865 9.89102 3 11 3C12.1051 3 13.1426 3.20865 14.1125 3.62595C15.0824 4.04327 15.9308 4.61538 16.6577 5.3423C17.3846 6.06923 17.9567 6.91763 18.374 7.8875C18.7913 8.85737 19 9.89487 19 11C19 12.0154 18.8218 12.9724 18.4654 13.8712C18.109 14.7699 17.616 15.5788 16.9865 16.2981L21 20.3116L20.3058 21L16.2923 16.9923C15.5731 17.6218 14.7641 18.1138 13.8654 18.4683C12.9667 18.8228 12.0115 19 11 19Z" fill="#282828"/>
</svg>
